%TF.GenerationSoftware,KiCad,Pcbnew,7.0.2*%
%TF.CreationDate,2023-05-29T15:59:33-06:00*%
%TF.ProjectId,PCB_Design,5043425f-4465-4736-9967-6e2e6b696361,rev?*%
%TF.SameCoordinates,Original*%
%TF.FileFunction,Copper,L2,Bot*%
%TF.FilePolarity,Positive*%
%FSLAX46Y46*%
G04 Gerber Fmt 4.6, Leading zero omitted, Abs format (unit mm)*
G04 Created by KiCad (PCBNEW 7.0.2) date 2023-05-29 15:59:33*
%MOMM*%
%LPD*%
G01*
G04 APERTURE LIST*
%TA.AperFunction,ComponentPad*%
%ADD10R,1.700000X1.700000*%
%TD*%
%TA.AperFunction,ComponentPad*%
%ADD11O,1.700000X1.700000*%
%TD*%
%TA.AperFunction,ComponentPad*%
%ADD12C,6.400000*%
%TD*%
%TA.AperFunction,ComponentPad*%
%ADD13R,1.800000X1.800000*%
%TD*%
%TA.AperFunction,ComponentPad*%
%ADD14C,1.800000*%
%TD*%
%TA.AperFunction,ViaPad*%
%ADD15C,0.800000*%
%TD*%
%TA.AperFunction,Conductor*%
%ADD16C,0.250000*%
%TD*%
G04 APERTURE END LIST*
D10*
%TO.P,J2,1,Pin_1*%
%TO.N,GND*%
X161452400Y-42036200D03*
D11*
%TO.P,J2,2,Pin_2*%
X158912400Y-42036200D03*
%TO.P,J2,3,Pin_3*%
%TO.N,+5V*%
X161452400Y-44576200D03*
%TO.P,J2,4,Pin_4*%
X158912400Y-44576200D03*
%TO.P,J2,5,Pin_5*%
%TO.N,+3V0*%
X161452400Y-47116200D03*
%TO.P,J2,6,Pin_6*%
X158912400Y-47116200D03*
%TO.P,J2,7,Pin_7*%
%TO.N,unconnected-(J2-Pin_7-Pad7)*%
X161452400Y-49656200D03*
%TO.P,J2,8,Pin_8*%
%TO.N,unconnected-(J2-Pin_8-Pad8)*%
X158912400Y-49656200D03*
%TO.P,J2,9,Pin_9*%
%TO.N,unconnected-(J2-Pin_9-Pad9)*%
X161452400Y-52196200D03*
%TO.P,J2,10,Pin_10*%
%TO.N,unconnected-(J2-Pin_10-Pad10)*%
X158912400Y-52196200D03*
%TO.P,J2,11,Pin_11*%
%TO.N,unconnected-(J2-Pin_11-Pad11)*%
X161452400Y-54736200D03*
%TO.P,J2,12,Pin_12*%
%TO.N,unconnected-(J2-Pin_12-Pad12)*%
X158912400Y-54736200D03*
%TO.P,J2,13,Pin_13*%
%TO.N,unconnected-(J2-Pin_13-Pad13)*%
X161452400Y-57276200D03*
%TO.P,J2,14,Pin_14*%
%TO.N,unconnected-(J2-Pin_14-Pad14)*%
X158912400Y-57276200D03*
%TO.P,J2,15,Pin_15*%
%TO.N,unconnected-(J2-Pin_15-Pad15)*%
X161452400Y-59816200D03*
%TO.P,J2,16,Pin_16*%
%TO.N,unconnected-(J2-Pin_16-Pad16)*%
X158912400Y-59816200D03*
%TO.P,J2,17,Pin_17*%
%TO.N,unconnected-(J2-Pin_17-Pad17)*%
X161452400Y-62356200D03*
%TO.P,J2,18,Pin_18*%
%TO.N,unconnected-(J2-Pin_18-Pad18)*%
X158912400Y-62356200D03*
%TO.P,J2,19,Pin_19*%
%TO.N,unconnected-(J2-Pin_19-Pad19)*%
X161452400Y-64896200D03*
%TO.P,J2,20,Pin_20*%
%TO.N,unconnected-(J2-Pin_20-Pad20)*%
X158912400Y-64896200D03*
%TO.P,J2,21,Pin_21*%
%TO.N,unconnected-(J2-Pin_21-Pad21)*%
X161452400Y-67436200D03*
%TO.P,J2,22,Pin_22*%
%TO.N,unconnected-(J2-Pin_22-Pad22)*%
X158912400Y-67436200D03*
%TO.P,J2,23,Pin_23*%
%TO.N,SDA*%
X161452400Y-69976200D03*
%TO.P,J2,24,Pin_24*%
%TO.N,unconnected-(J2-Pin_24-Pad24)*%
X158912400Y-69976200D03*
%TO.P,J2,25,Pin_25*%
%TO.N,MOSI*%
X161452400Y-72516200D03*
%TO.P,J2,26,Pin_26*%
%TO.N,MISO*%
X158912400Y-72516200D03*
%TO.P,J2,27,Pin_27*%
%TO.N,SCK*%
X161452400Y-75056200D03*
%TO.P,J2,28,Pin_28*%
%TO.N,unconnected-(J2-Pin_28-Pad28)*%
X158912400Y-75056200D03*
%TO.P,J2,29,Pin_29*%
%TO.N,unconnected-(J2-Pin_29-Pad29)*%
X161452400Y-77596200D03*
%TO.P,J2,30,Pin_30*%
%TO.N,unconnected-(J2-Pin_30-Pad30)*%
X158912400Y-77596200D03*
%TO.P,J2,31,Pin_31*%
%TO.N,unconnected-(J2-Pin_31-Pad31)*%
X161452400Y-80136200D03*
%TO.P,J2,32,Pin_32*%
%TO.N,unconnected-(J2-Pin_32-Pad32)*%
X158912400Y-80136200D03*
%TO.P,J2,33,Pin_33*%
%TO.N,unconnected-(J2-Pin_33-Pad33)*%
X161452400Y-82676200D03*
%TO.P,J2,34,Pin_34*%
%TO.N,unconnected-(J2-Pin_34-Pad34)*%
X158912400Y-82676200D03*
%TO.P,J2,35,Pin_35*%
%TO.N,unconnected-(J2-Pin_35-Pad35)*%
X161452400Y-85216200D03*
%TO.P,J2,36,Pin_36*%
%TO.N,unconnected-(J2-Pin_36-Pad36)*%
X158912400Y-85216200D03*
%TO.P,J2,37,Pin_37*%
%TO.N,unconnected-(J2-Pin_37-Pad37)*%
X161452400Y-87756200D03*
%TO.P,J2,38,Pin_38*%
%TO.N,unconnected-(J2-Pin_38-Pad38)*%
X158912400Y-87756200D03*
%TO.P,J2,39,Pin_39*%
%TO.N,unconnected-(J2-Pin_39-Pad39)*%
X161452400Y-90296200D03*
%TO.P,J2,40,Pin_40*%
%TO.N,unconnected-(J2-Pin_40-Pad40)*%
X158912400Y-90296200D03*
%TO.P,J2,41,Pin_41*%
%TO.N,unconnected-(J2-Pin_41-Pad41)*%
X161452400Y-92836200D03*
%TO.P,J2,42,Pin_42*%
%TO.N,unconnected-(J2-Pin_42-Pad42)*%
X158912400Y-92836200D03*
%TO.P,J2,43,Pin_43*%
%TO.N,unconnected-(J2-Pin_43-Pad43)*%
X161452400Y-95376200D03*
%TO.P,J2,44,Pin_44*%
%TO.N,unconnected-(J2-Pin_44-Pad44)*%
X158912400Y-95376200D03*
%TO.P,J2,45,Pin_45*%
%TO.N,unconnected-(J2-Pin_45-Pad45)*%
X161452400Y-97916200D03*
%TO.P,J2,46,Pin_46*%
%TO.N,unconnected-(J2-Pin_46-Pad46)*%
X158912400Y-97916200D03*
%TO.P,J2,47,Pin_47*%
%TO.N,unconnected-(J2-Pin_47-Pad47)*%
X161452400Y-100456200D03*
%TO.P,J2,48,Pin_48*%
%TO.N,unconnected-(J2-Pin_48-Pad48)*%
X158912400Y-100456200D03*
%TO.P,J2,49,Pin_49*%
%TO.N,GND*%
X161452400Y-102996200D03*
%TO.P,J2,50,Pin_50*%
X158912400Y-102996200D03*
%TD*%
D12*
%TO.P,H3,1*%
%TO.N,N/C*%
X185699400Y-101879400D03*
%TD*%
D13*
%TO.P,RGB_LED,1,A*%
%TO.N,GND*%
X87630000Y-73090000D03*
D14*
%TO.P,RGB_LED,2,BK*%
%TO.N,Blue*%
X87630000Y-70931000D03*
%TO.P,RGB_LED,3,GK*%
%TO.N,Green*%
X87630000Y-68772000D03*
%TO.P,RGB_LED,4,RK*%
%TO.N,Red*%
X87630000Y-66613000D03*
%TD*%
D10*
%TO.P,J1,1,Pin_1*%
%TO.N,GND*%
X110662400Y-42016200D03*
D11*
%TO.P,J1,2,Pin_2*%
X108122400Y-42016200D03*
%TO.P,J1,3,Pin_3*%
%TO.N,unconnected-(J1-Pin_3-Pad3)*%
X110662400Y-44556200D03*
%TO.P,J1,4,Pin_4*%
%TO.N,unconnected-(J1-Pin_4-Pad4)*%
X108122400Y-44556200D03*
%TO.P,J1,5,Pin_5*%
%TO.N,unconnected-(J1-Pin_5-Pad5)*%
X110662400Y-47096200D03*
%TO.P,J1,6,Pin_6*%
%TO.N,GND*%
X108122400Y-47096200D03*
%TO.P,J1,7,Pin_7*%
%TO.N,unconnected-(J1-Pin_7-Pad7)*%
X110662400Y-49636200D03*
%TO.P,J1,8,Pin_8*%
%TO.N,unconnected-(J1-Pin_8-Pad8)*%
X108122400Y-49636200D03*
%TO.P,J1,9,Pin_9*%
%TO.N,unconnected-(J1-Pin_9-Pad9)*%
X110662400Y-52176200D03*
%TO.P,J1,10,Pin_10*%
%TO.N,unconnected-(J1-Pin_10-Pad10)*%
X108122400Y-52176200D03*
%TO.P,J1,11,Pin_11*%
%TO.N,unconnected-(J1-Pin_11-Pad11)*%
X110662400Y-54716200D03*
%TO.P,J1,12,Pin_12*%
%TO.N,unconnected-(J1-Pin_12-Pad12)*%
X108122400Y-54716200D03*
%TO.P,J1,13,Pin_13*%
%TO.N,unconnected-(J1-Pin_13-Pad13)*%
X110662400Y-57256200D03*
%TO.P,J1,14,Pin_14*%
%TO.N,unconnected-(J1-Pin_14-Pad14)*%
X108122400Y-57256200D03*
%TO.P,J1,15,Pin_15*%
%TO.N,unconnected-(J1-Pin_15-Pad15)*%
X110662400Y-59796200D03*
%TO.P,J1,16,Pin_16*%
%TO.N,unconnected-(J1-Pin_16-Pad16)*%
X108122400Y-59796200D03*
%TO.P,J1,17,Pin_17*%
%TO.N,unconnected-(J1-Pin_17-Pad17)*%
X110662400Y-62336200D03*
%TO.P,J1,18,Pin_18*%
%TO.N,unconnected-(J1-Pin_18-Pad18)*%
X108122400Y-62336200D03*
%TO.P,J1,19,Pin_19*%
%TO.N,unconnected-(J1-Pin_19-Pad19)*%
X110662400Y-64876200D03*
%TO.P,J1,20,Pin_20*%
%TO.N,unconnected-(J1-Pin_20-Pad20)*%
X108122400Y-64876200D03*
%TO.P,J1,21,Pin_21*%
%TO.N,unconnected-(J1-Pin_21-Pad21)*%
X110662400Y-67416200D03*
%TO.P,J1,22,Pin_22*%
%TO.N,unconnected-(J1-Pin_22-Pad22)*%
X108122400Y-67416200D03*
%TO.P,J1,23,Pin_23*%
%TO.N,unconnected-(J1-Pin_23-Pad23)*%
X110662400Y-69956200D03*
%TO.P,J1,24,Pin_24*%
%TO.N,GND*%
X108122400Y-69956200D03*
%TO.P,J1,25,Pin_25*%
%TO.N,unconnected-(J1-Pin_25-Pad25)*%
X110662400Y-72496200D03*
%TO.P,J1,26,Pin_26*%
%TO.N,unconnected-(J1-Pin_26-Pad26)*%
X108122400Y-72496200D03*
%TO.P,J1,27,Pin_27*%
%TO.N,Green*%
X110662400Y-75036200D03*
%TO.P,J1,28,Pin_28*%
%TO.N,Red*%
X108122400Y-75036200D03*
%TO.P,J1,29,Pin_29*%
%TO.N,unconnected-(J1-Pin_29-Pad29)*%
X110662400Y-77576200D03*
%TO.P,J1,30,Pin_30*%
%TO.N,Blue*%
X108122400Y-77576200D03*
%TO.P,J1,31,Pin_31*%
%TO.N,unconnected-(J1-Pin_31-Pad31)*%
X110662400Y-80116200D03*
%TO.P,J1,32,Pin_32*%
%TO.N,unconnected-(J1-Pin_32-Pad32)*%
X108122400Y-80116200D03*
%TO.P,J1,33,Pin_33*%
%TO.N,unconnected-(J1-Pin_33-Pad33)*%
X110662400Y-82656200D03*
%TO.P,J1,34,Pin_34*%
%TO.N,unconnected-(J1-Pin_34-Pad34)*%
X108122400Y-82656200D03*
%TO.P,J1,35,Pin_35*%
%TO.N,RST*%
X110662400Y-85196200D03*
%TO.P,J1,36,Pin_36*%
%TO.N,unconnected-(J1-Pin_36-Pad36)*%
X108122400Y-85196200D03*
%TO.P,J1,37,Pin_37*%
%TO.N,unconnected-(J1-Pin_37-Pad37)*%
X110662400Y-87736200D03*
%TO.P,J1,38,Pin_38*%
%TO.N,unconnected-(J1-Pin_38-Pad38)*%
X108122400Y-87736200D03*
%TO.P,J1,39,Pin_39*%
%TO.N,unconnected-(J1-Pin_39-Pad39)*%
X110662400Y-90276200D03*
%TO.P,J1,40,Pin_40*%
%TO.N,unconnected-(J1-Pin_40-Pad40)*%
X108122400Y-90276200D03*
%TO.P,J1,41,Pin_41*%
%TO.N,unconnected-(J1-Pin_41-Pad41)*%
X110662400Y-92816200D03*
%TO.P,J1,42,Pin_42*%
%TO.N,unconnected-(J1-Pin_42-Pad42)*%
X108122400Y-92816200D03*
%TO.P,J1,43,Pin_43*%
%TO.N,unconnected-(J1-Pin_43-Pad43)*%
X110662400Y-95356200D03*
%TO.P,J1,44,Pin_44*%
%TO.N,unconnected-(J1-Pin_44-Pad44)*%
X108122400Y-95356200D03*
%TO.P,J1,45,Pin_45*%
%TO.N,unconnected-(J1-Pin_45-Pad45)*%
X110662400Y-97896200D03*
%TO.P,J1,46,Pin_46*%
%TO.N,unconnected-(J1-Pin_46-Pad46)*%
X108122400Y-97896200D03*
%TO.P,J1,47,Pin_47*%
%TO.N,unconnected-(J1-Pin_47-Pad47)*%
X110662400Y-100436200D03*
%TO.P,J1,48,Pin_48*%
%TO.N,unconnected-(J1-Pin_48-Pad48)*%
X108122400Y-100436200D03*
%TO.P,J1,49,Pin_49*%
%TO.N,GND*%
X110662400Y-102976200D03*
%TO.P,J1,50,Pin_50*%
X108122400Y-102976200D03*
%TD*%
D10*
%TO.P,RC522,1,SDA*%
%TO.N,SDA*%
X181610000Y-59690000D03*
D11*
%TO.P,RC522,2,SCK*%
%TO.N,SCK*%
X181610000Y-62230000D03*
%TO.P,RC522,3,MOSI*%
%TO.N,MOSI*%
X181610000Y-64770000D03*
%TO.P,RC522,4,MISO*%
%TO.N,MISO*%
X181610000Y-67310000D03*
%TO.P,RC522,5,IRQ*%
%TO.N,unconnected-(P1-IRQ-Pad5)*%
X181610000Y-69850000D03*
%TO.P,RC522,6,GND*%
%TO.N,GND*%
X181610000Y-72390000D03*
%TO.P,RC522,7,RST*%
%TO.N,RST*%
X181610000Y-74930000D03*
%TO.P,RC522,8,3.3V*%
%TO.N,+3V0*%
X181610000Y-77470000D03*
%TD*%
D12*
%TO.P,H4,1*%
%TO.N,N/C*%
X76200000Y-102870000D03*
%TD*%
%TO.P,H1,1*%
%TO.N,N/C*%
X76200000Y-41910000D03*
%TD*%
%TO.P,H2,1*%
%TO.N,N/C*%
X185699400Y-42824400D03*
%TD*%
D15*
%TO.N,GND*%
X106527600Y-47066200D03*
%TO.N,MOSI*%
X167640000Y-71120000D03*
X165100000Y-69850000D03*
%TO.N,MISO*%
X175260000Y-46990000D03*
X175260000Y-66040000D03*
%TO.N,RST*%
X113030000Y-87630000D03*
X116840000Y-88900000D03*
%TD*%
D16*
%TO.N,MOSI*%
X166370000Y-71120000D02*
X165100000Y-69850000D01*
X167640000Y-71120000D02*
X166370000Y-71120000D01*
%TO.N,MISO*%
X175260000Y-66040000D02*
X175260000Y-46990000D01*
%TO.N,RST*%
X113030000Y-87630000D02*
X115570000Y-87630000D01*
X115570000Y-87630000D02*
X116840000Y-88900000D01*
%TD*%
%TA.AperFunction,Conductor*%
%TO.N,GND*%
G36*
X110202907Y-102766356D02*
G01*
X110162400Y-102904311D01*
X110162400Y-103048089D01*
X110202907Y-103186044D01*
X110228714Y-103226200D01*
X108556086Y-103226200D01*
X108581893Y-103186044D01*
X108622400Y-103048089D01*
X108622400Y-102904311D01*
X108581893Y-102766356D01*
X108556086Y-102726200D01*
X110228714Y-102726200D01*
X110202907Y-102766356D01*
G37*
%TD.AperFunction*%
%TA.AperFunction,Conductor*%
G36*
X110202907Y-41806356D02*
G01*
X110162400Y-41944311D01*
X110162400Y-42088089D01*
X110202907Y-42226044D01*
X110228714Y-42266200D01*
X108556086Y-42266200D01*
X108581893Y-42226044D01*
X108622400Y-42088089D01*
X108622400Y-41944311D01*
X108581893Y-41806356D01*
X108556086Y-41766200D01*
X110228714Y-41766200D01*
X110202907Y-41806356D01*
G37*
%TD.AperFunction*%
%TA.AperFunction,Conductor*%
G36*
X160992907Y-102786356D02*
G01*
X160952400Y-102924311D01*
X160952400Y-103068089D01*
X160992907Y-103206044D01*
X161018714Y-103246200D01*
X159346086Y-103246200D01*
X159371893Y-103206044D01*
X159412400Y-103068089D01*
X159412400Y-102924311D01*
X159371893Y-102786356D01*
X159346086Y-102746200D01*
X161018714Y-102746200D01*
X160992907Y-102786356D01*
G37*
%TD.AperFunction*%
%TA.AperFunction,Conductor*%
G36*
X160992907Y-41826356D02*
G01*
X160952400Y-41964311D01*
X160952400Y-42108089D01*
X160992907Y-42246044D01*
X161018714Y-42286200D01*
X159346086Y-42286200D01*
X159371893Y-42246044D01*
X159412400Y-42108089D01*
X159412400Y-41964311D01*
X159371893Y-41826356D01*
X159346086Y-41786200D01*
X161018714Y-41786200D01*
X160992907Y-41826356D01*
G37*
%TD.AperFunction*%
%TA.AperFunction,Conductor*%
G36*
X187188154Y-36373405D02*
G01*
X187403299Y-36382304D01*
X187599357Y-36390865D01*
X187609263Y-36391697D01*
X187822666Y-36418297D01*
X188021216Y-36444436D01*
X188030425Y-36446006D01*
X188220433Y-36485846D01*
X188240559Y-36490067D01*
X188436948Y-36533605D01*
X188445421Y-36535802D01*
X188651236Y-36597076D01*
X188843585Y-36657724D01*
X188851302Y-36660443D01*
X189050397Y-36738129D01*
X189052467Y-36738962D01*
X189238178Y-36815886D01*
X189245145Y-36819028D01*
X189436953Y-36912798D01*
X189439635Y-36914151D01*
X189578057Y-36986209D01*
X189617885Y-37006943D01*
X189624101Y-37010409D01*
X189677879Y-37042453D01*
X189807427Y-37119647D01*
X189810497Y-37121540D01*
X189980005Y-37229528D01*
X189985430Y-37233189D01*
X190159040Y-37357144D01*
X190162443Y-37359663D01*
X190321920Y-37482034D01*
X190326537Y-37485757D01*
X190489323Y-37623630D01*
X190492940Y-37626816D01*
X190641137Y-37762613D01*
X190645045Y-37766355D01*
X190795843Y-37917153D01*
X190799585Y-37921061D01*
X190935382Y-38069258D01*
X190938575Y-38072883D01*
X191076434Y-38235652D01*
X191080164Y-38240278D01*
X191202535Y-38399755D01*
X191205076Y-38403188D01*
X191329007Y-38576765D01*
X191332670Y-38582193D01*
X191440633Y-38751660D01*
X191442576Y-38754812D01*
X191551789Y-38938097D01*
X191555255Y-38944313D01*
X191648018Y-39122507D01*
X191649430Y-39125304D01*
X191743161Y-39317034D01*
X191746321Y-39324041D01*
X191791454Y-39433002D01*
X191823184Y-39509603D01*
X191824129Y-39511954D01*
X191901742Y-39710859D01*
X191904486Y-39718647D01*
X191965124Y-39910968D01*
X192026388Y-40116747D01*
X192028601Y-40125282D01*
X192072132Y-40321640D01*
X192116188Y-40531752D01*
X192117765Y-40541008D01*
X192143902Y-40739533D01*
X192170500Y-40952926D01*
X192171334Y-40962852D01*
X192179909Y-41159227D01*
X192188793Y-41374027D01*
X192188899Y-41379177D01*
X192175900Y-103362753D01*
X192175794Y-103367851D01*
X192166909Y-103582671D01*
X192158334Y-103779046D01*
X192157500Y-103788973D01*
X192130902Y-104002364D01*
X192104766Y-104200888D01*
X192103188Y-104210148D01*
X192059132Y-104420259D01*
X192015602Y-104616614D01*
X192013387Y-104625153D01*
X191952124Y-104830931D01*
X191891484Y-105023256D01*
X191888744Y-105031033D01*
X191811141Y-105229916D01*
X191810184Y-105232295D01*
X191733321Y-105417857D01*
X191730161Y-105424864D01*
X191636430Y-105616594D01*
X191635018Y-105619391D01*
X191542255Y-105797585D01*
X191538789Y-105803801D01*
X191429576Y-105987086D01*
X191427633Y-105990238D01*
X191319670Y-106159705D01*
X191316007Y-106165133D01*
X191192076Y-106338710D01*
X191189535Y-106342143D01*
X191067164Y-106501620D01*
X191063410Y-106506276D01*
X190925581Y-106669009D01*
X190922382Y-106672640D01*
X190786585Y-106820837D01*
X190782843Y-106824745D01*
X190632045Y-106975543D01*
X190628137Y-106979285D01*
X190479940Y-107115082D01*
X190476309Y-107118281D01*
X190313576Y-107256110D01*
X190308920Y-107259864D01*
X190149443Y-107382235D01*
X190146010Y-107384776D01*
X189972433Y-107508707D01*
X189967005Y-107512370D01*
X189797538Y-107620333D01*
X189794386Y-107622276D01*
X189611101Y-107731489D01*
X189604885Y-107734955D01*
X189426691Y-107827718D01*
X189423894Y-107829130D01*
X189232164Y-107922861D01*
X189225157Y-107926021D01*
X189039595Y-108002884D01*
X189037217Y-108003840D01*
X188838339Y-108081442D01*
X188830551Y-108084186D01*
X188638231Y-108144824D01*
X188432451Y-108206088D01*
X188423916Y-108208301D01*
X188227559Y-108251832D01*
X188017446Y-108295888D01*
X188008190Y-108297465D01*
X187809666Y-108323602D01*
X187596272Y-108350200D01*
X187586346Y-108351034D01*
X187390152Y-108359601D01*
X187175274Y-108368488D01*
X187169941Y-108368594D01*
X73439961Y-108176838D01*
X73439667Y-108176751D01*
X73390931Y-108176751D01*
X73385535Y-108176634D01*
X73196914Y-108168418D01*
X72968424Y-108157868D01*
X72957995Y-108156944D01*
X72753862Y-108130132D01*
X72541172Y-108100532D01*
X72531489Y-108098790D01*
X72326507Y-108053455D01*
X72120812Y-108005191D01*
X72111940Y-108002758D01*
X71909865Y-107939200D01*
X71710707Y-107872613D01*
X71702687Y-107869620D01*
X71507138Y-107788826D01*
X71504510Y-107787704D01*
X71314125Y-107703857D01*
X71306967Y-107700427D01*
X71118816Y-107602744D01*
X71115739Y-107601091D01*
X70934264Y-107500286D01*
X70927988Y-107496554D01*
X70841363Y-107441526D01*
X70748787Y-107382717D01*
X70745399Y-107380485D01*
X70574145Y-107263518D01*
X70568748Y-107259614D01*
X70564167Y-107256110D01*
X70400009Y-107130536D01*
X70396308Y-107127590D01*
X70236715Y-106995491D01*
X70232163Y-106991533D01*
X70075231Y-106848219D01*
X70071325Y-106844493D01*
X70047584Y-106820837D01*
X69924585Y-106698278D01*
X69920882Y-106694423D01*
X69777007Y-106538005D01*
X69773032Y-106533468D01*
X69640353Y-106374338D01*
X69637374Y-106370622D01*
X69612781Y-106338710D01*
X69507684Y-106202335D01*
X69503793Y-106196996D01*
X69386217Y-106026168D01*
X69383963Y-106022772D01*
X69269477Y-105843968D01*
X69265724Y-105837709D01*
X69164274Y-105656603D01*
X69162611Y-105653533D01*
X69115808Y-105564170D01*
X69064250Y-105465726D01*
X69060812Y-105458618D01*
X68976208Y-105268365D01*
X68975150Y-105265909D01*
X68893640Y-105070610D01*
X68890641Y-105062665D01*
X68823318Y-104863680D01*
X68759035Y-104661829D01*
X68756586Y-104653022D01*
X68707579Y-104447472D01*
X68695357Y-104393137D01*
X68661496Y-104242596D01*
X68659732Y-104232982D01*
X68629393Y-104020557D01*
X68601826Y-103816344D01*
X68600867Y-103805937D01*
X68599530Y-103779046D01*
X68589280Y-103572874D01*
X68580637Y-103389534D01*
X68580500Y-103383737D01*
X68580500Y-102870000D01*
X72494422Y-102870000D01*
X72494592Y-102873243D01*
X72510985Y-103186044D01*
X72514722Y-103257338D01*
X72515227Y-103260531D01*
X72515229Y-103260543D01*
X72574889Y-103637224D01*
X72574891Y-103637237D01*
X72575398Y-103640433D01*
X72576235Y-103643557D01*
X72576237Y-103643566D01*
X72667677Y-103984824D01*
X72675786Y-104015087D01*
X72676943Y-104018102D01*
X72676946Y-104018110D01*
X72806803Y-104356397D01*
X72814786Y-104377194D01*
X72816255Y-104380077D01*
X72816259Y-104380086D01*
X72946256Y-104635220D01*
X72990875Y-104722789D01*
X73202124Y-105048084D01*
X73446219Y-105349516D01*
X73720484Y-105623781D01*
X74021916Y-105867876D01*
X74347211Y-106079125D01*
X74692806Y-106255214D01*
X75054913Y-106394214D01*
X75429567Y-106494602D01*
X75812662Y-106555278D01*
X76200000Y-106575578D01*
X76587338Y-106555278D01*
X76970433Y-106494602D01*
X77345087Y-106394214D01*
X77707194Y-106255214D01*
X78052789Y-106079125D01*
X78378084Y-105867876D01*
X78679516Y-105623781D01*
X78953781Y-105349516D01*
X79197876Y-105048084D01*
X79409125Y-104722789D01*
X79585214Y-104377194D01*
X79724214Y-104015087D01*
X79824602Y-103640433D01*
X79885278Y-103257338D01*
X79905578Y-102870000D01*
X79885278Y-102482662D01*
X79824602Y-102099567D01*
X79724214Y-101724913D01*
X79585214Y-101362806D01*
X79409125Y-101017211D01*
X79197876Y-100691916D01*
X78990801Y-100436200D01*
X106766740Y-100436200D01*
X106787336Y-100671607D01*
X106804977Y-100737442D01*
X106848497Y-100899863D01*
X106948365Y-101114030D01*
X107083905Y-101307601D01*
X107250999Y-101474695D01*
X107436996Y-101604932D01*
X107480619Y-101659507D01*
X107487812Y-101729006D01*
X107456290Y-101791360D01*
X107436995Y-101808080D01*
X107251319Y-101938092D01*
X107084290Y-102105121D01*
X106948800Y-102298621D01*
X106848969Y-102512707D01*
X106791764Y-102726199D01*
X106791764Y-102726200D01*
X107688714Y-102726200D01*
X107662907Y-102766356D01*
X107622400Y-102904311D01*
X107622400Y-103048089D01*
X107662907Y-103186044D01*
X107688714Y-103226200D01*
X106791764Y-103226200D01*
X106848969Y-103439692D01*
X106948799Y-103653776D01*
X107084293Y-103847281D01*
X107251318Y-104014306D01*
X107444823Y-104149800D01*
X107658909Y-104249630D01*
X107872400Y-104306834D01*
X107872400Y-103411701D01*
X107980085Y-103460880D01*
X108086637Y-103476200D01*
X108158163Y-103476200D01*
X108264715Y-103460880D01*
X108372399Y-103411701D01*
X108372399Y-104306833D01*
X108585890Y-104249630D01*
X108799976Y-104149800D01*
X108993481Y-104014306D01*
X109160506Y-103847281D01*
X109290825Y-103661168D01*
X109345402Y-103617544D01*
X109414901Y-103610351D01*
X109477255Y-103641873D01*
X109493975Y-103661168D01*
X109624293Y-103847281D01*
X109791318Y-104014306D01*
X109984823Y-104149800D01*
X110198909Y-104249630D01*
X110412400Y-104306834D01*
X110412400Y-103411701D01*
X110520085Y-103460880D01*
X110626637Y-103476200D01*
X110698163Y-103476200D01*
X110804715Y-103460880D01*
X110912400Y-103411701D01*
X110912400Y-104306833D01*
X111125890Y-104249630D01*
X111339976Y-104149800D01*
X111533481Y-104014306D01*
X111700506Y-103847281D01*
X111836000Y-103653776D01*
X111935830Y-103439692D01*
X111993036Y-103226200D01*
X111096086Y-103226200D01*
X111121893Y-103186044D01*
X111162400Y-103048089D01*
X111162400Y-102904311D01*
X111121893Y-102766356D01*
X111096086Y-102726200D01*
X111993036Y-102726200D01*
X111993035Y-102726199D01*
X111935830Y-102512707D01*
X111835999Y-102298621D01*
X111700509Y-102105121D01*
X111533481Y-101938093D01*
X111347804Y-101808080D01*
X111304180Y-101753503D01*
X111296987Y-101684004D01*
X111328509Y-101621650D01*
X111347799Y-101604934D01*
X111533801Y-101474695D01*
X111700895Y-101307601D01*
X111836435Y-101114030D01*
X111936303Y-100899863D01*
X111997463Y-100671608D01*
X112016309Y-100456199D01*
X157556740Y-100456199D01*
X157577336Y-100691607D01*
X157589618Y-100737442D01*
X157638497Y-100919863D01*
X157738365Y-101134030D01*
X157873905Y-101327601D01*
X158040999Y-101494695D01*
X158226996Y-101624932D01*
X158270619Y-101679507D01*
X158277812Y-101749006D01*
X158246290Y-101811360D01*
X158226995Y-101828080D01*
X158041319Y-101958092D01*
X157874290Y-102125121D01*
X157738800Y-102318621D01*
X157638969Y-102532707D01*
X157581764Y-102746199D01*
X157581764Y-102746200D01*
X158478714Y-102746200D01*
X158452907Y-102786356D01*
X158412400Y-102924311D01*
X158412400Y-103068089D01*
X158452907Y-103206044D01*
X158478714Y-103246200D01*
X157581764Y-103246200D01*
X157638969Y-103459692D01*
X157738799Y-103673776D01*
X157874293Y-103867281D01*
X158041318Y-104034306D01*
X158234823Y-104169800D01*
X158448909Y-104269630D01*
X158662400Y-104326834D01*
X158662400Y-103431701D01*
X158770085Y-103480880D01*
X158876637Y-103496200D01*
X158948163Y-103496200D01*
X159054715Y-103480880D01*
X159162400Y-103431701D01*
X159162400Y-104326833D01*
X159375890Y-104269630D01*
X159589976Y-104169800D01*
X159783481Y-104034306D01*
X159950506Y-103867281D01*
X160080825Y-103681168D01*
X160135402Y-103637544D01*
X160204901Y-103630351D01*
X160267255Y-103661873D01*
X160283975Y-103681168D01*
X160414293Y-103867281D01*
X160581318Y-104034306D01*
X160774823Y-104169800D01*
X160988909Y-104269630D01*
X161202400Y-104326834D01*
X161202400Y-103431701D01*
X161310085Y-103480880D01*
X161416637Y-103496200D01*
X161488163Y-103496200D01*
X161594715Y-103480880D01*
X161702400Y-103431701D01*
X161702400Y-104326833D01*
X161915890Y-104269630D01*
X162129976Y-104169800D01*
X162323481Y-104034306D01*
X162490506Y-103867281D01*
X162626000Y-103673776D01*
X162725830Y-103459692D01*
X162783036Y-103246200D01*
X161886086Y-103246200D01*
X161911893Y-103206044D01*
X161952400Y-103068089D01*
X161952400Y-102924311D01*
X161911893Y-102786356D01*
X161886086Y-102746200D01*
X162783036Y-102746200D01*
X162783035Y-102746199D01*
X162725830Y-102532707D01*
X162625999Y-102318621D01*
X162490509Y-102125121D01*
X162323481Y-101958093D01*
X162211096Y-101879400D01*
X181993822Y-101879400D01*
X182014122Y-102266738D01*
X182014627Y-102269931D01*
X182014629Y-102269943D01*
X182074289Y-102646624D01*
X182074291Y-102646637D01*
X182074798Y-102649833D01*
X182075635Y-102652957D01*
X182075637Y-102652966D01*
X182095260Y-102726199D01*
X182175186Y-103024487D01*
X182176343Y-103027502D01*
X182176346Y-103027510D01*
X182283632Y-103306998D01*
X182314186Y-103386594D01*
X182315655Y-103389477D01*
X182315659Y-103389486D01*
X182488800Y-103729295D01*
X182490275Y-103732189D01*
X182701524Y-104057484D01*
X182945619Y-104358916D01*
X183219884Y-104633181D01*
X183521316Y-104877276D01*
X183846611Y-105088525D01*
X184192206Y-105264614D01*
X184554313Y-105403614D01*
X184928967Y-105504002D01*
X185312062Y-105564678D01*
X185699400Y-105584978D01*
X186086738Y-105564678D01*
X186469833Y-105504002D01*
X186844487Y-105403614D01*
X187206594Y-105264614D01*
X187552189Y-105088525D01*
X187877484Y-104877276D01*
X188178916Y-104633181D01*
X188453181Y-104358916D01*
X188697276Y-104057484D01*
X188908525Y-103732189D01*
X189084614Y-103386594D01*
X189223614Y-103024487D01*
X189324002Y-102649833D01*
X189384678Y-102266738D01*
X189404978Y-101879400D01*
X189384678Y-101492062D01*
X189324002Y-101108967D01*
X189223614Y-100734313D01*
X189084614Y-100372206D01*
X188908525Y-100026611D01*
X188697276Y-99701316D01*
X188453181Y-99399884D01*
X188178916Y-99125619D01*
X188135220Y-99090235D01*
X188075115Y-99041562D01*
X187877484Y-98881524D01*
X187552189Y-98670275D01*
X187549301Y-98668803D01*
X187549295Y-98668800D01*
X187209486Y-98495659D01*
X187209477Y-98495655D01*
X187206594Y-98494186D01*
X187203562Y-98493022D01*
X186847510Y-98356346D01*
X186847502Y-98356343D01*
X186844487Y-98355186D01*
X186841362Y-98354348D01*
X186841357Y-98354347D01*
X186472966Y-98255637D01*
X186472957Y-98255635D01*
X186469833Y-98254798D01*
X186466637Y-98254291D01*
X186466624Y-98254289D01*
X186089943Y-98194629D01*
X186089931Y-98194627D01*
X186086738Y-98194122D01*
X186083503Y-98193952D01*
X186083499Y-98193952D01*
X185702644Y-98173992D01*
X185699400Y-98173822D01*
X185696156Y-98173992D01*
X185315300Y-98193952D01*
X185315294Y-98193952D01*
X185312062Y-98194122D01*
X185308870Y-98194627D01*
X185308856Y-98194629D01*
X184932175Y-98254289D01*
X184932158Y-98254292D01*
X184928967Y-98254798D01*
X184925846Y-98255634D01*
X184925833Y-98255637D01*
X184557442Y-98354347D01*
X184557431Y-98354350D01*
X184554313Y-98355186D01*
X184551302Y-98356341D01*
X184551289Y-98356346D01*
X184195237Y-98493022D01*
X184195228Y-98493025D01*
X184192206Y-98494186D01*
X184189329Y-98495651D01*
X184189313Y-98495659D01*
X183849504Y-98668800D01*
X183849490Y-98668808D01*
X183846611Y-98670275D01*
X183843891Y-98672041D01*
X183843883Y-98672046D01*
X183524044Y-98879752D01*
X183524038Y-98879755D01*
X183521316Y-98881524D01*
X183518796Y-98883564D01*
X183518790Y-98883569D01*
X183222402Y-99123579D01*
X183222391Y-99123588D01*
X183219884Y-99125619D01*
X183217599Y-99127903D01*
X183217589Y-99127913D01*
X182947913Y-99397589D01*
X182947903Y-99397599D01*
X182945619Y-99399884D01*
X182943588Y-99402391D01*
X182943579Y-99402402D01*
X182703569Y-99698790D01*
X182703564Y-99698796D01*
X182701524Y-99701316D01*
X182699755Y-99704038D01*
X182699752Y-99704044D01*
X182492046Y-100023883D01*
X182492041Y-100023891D01*
X182490275Y-100026611D01*
X182488808Y-100029490D01*
X182488800Y-100029504D01*
X182315659Y-100369313D01*
X182315651Y-100369329D01*
X182314186Y-100372206D01*
X182313025Y-100375228D01*
X182313022Y-100375237D01*
X182176346Y-100731289D01*
X182176341Y-100731302D01*
X182175186Y-100734313D01*
X182174350Y-100737431D01*
X182174347Y-100737442D01*
X182075637Y-101105833D01*
X182075634Y-101105846D01*
X182074798Y-101108967D01*
X182074292Y-101112158D01*
X182074289Y-101112175D01*
X182014629Y-101488856D01*
X182014627Y-101488870D01*
X182014122Y-101492062D01*
X182013952Y-101495294D01*
X182013952Y-101495300D01*
X182000656Y-101749006D01*
X181993822Y-101879400D01*
X162211096Y-101879400D01*
X162137804Y-101828080D01*
X162094180Y-101773503D01*
X162086987Y-101704004D01*
X162118509Y-101641650D01*
X162137799Y-101624934D01*
X162323801Y-101494695D01*
X162490895Y-101327601D01*
X162626435Y-101134030D01*
X162726303Y-100919863D01*
X162787463Y-100691608D01*
X162808059Y-100456200D01*
X162802309Y-100390484D01*
X162787463Y-100220792D01*
X162782104Y-100200792D01*
X162726303Y-99992537D01*
X162626435Y-99778371D01*
X162490895Y-99584799D01*
X162323801Y-99417705D01*
X162138239Y-99287773D01*
X162094616Y-99233198D01*
X162087422Y-99163700D01*
X162118945Y-99101345D01*
X162138237Y-99084628D01*
X162323801Y-98954695D01*
X162490895Y-98787601D01*
X162626435Y-98594030D01*
X162726303Y-98379863D01*
X162787463Y-98151608D01*
X162808059Y-97916200D01*
X162787463Y-97680792D01*
X162726303Y-97452537D01*
X162626435Y-97238371D01*
X162490895Y-97044799D01*
X162323801Y-96877705D01*
X162138239Y-96747773D01*
X162094616Y-96693198D01*
X162087422Y-96623700D01*
X162118945Y-96561345D01*
X162138237Y-96544628D01*
X162323801Y-96414695D01*
X162490895Y-96247601D01*
X162626435Y-96054030D01*
X162726303Y-95839863D01*
X162787463Y-95611608D01*
X162808059Y-95376200D01*
X162787463Y-95140792D01*
X162726303Y-94912537D01*
X162626435Y-94698371D01*
X162490895Y-94504799D01*
X162323801Y-94337705D01*
X162138239Y-94207773D01*
X162094616Y-94153198D01*
X162087422Y-94083700D01*
X162118945Y-94021345D01*
X162138237Y-94004628D01*
X162323801Y-93874695D01*
X162490895Y-93707601D01*
X162626435Y-93514030D01*
X162726303Y-93299863D01*
X162787463Y-93071608D01*
X162808059Y-92836200D01*
X162787463Y-92600792D01*
X162726303Y-92372537D01*
X162626435Y-92158371D01*
X162490895Y-91964799D01*
X162323801Y-91797705D01*
X162138239Y-91667773D01*
X162094616Y-91613198D01*
X162087422Y-91543700D01*
X162118945Y-91481345D01*
X162138237Y-91464628D01*
X162323801Y-91334695D01*
X162490895Y-91167601D01*
X162626435Y-90974030D01*
X162726303Y-90759863D01*
X162787463Y-90531608D01*
X162808059Y-90296200D01*
X162787463Y-90060792D01*
X162726303Y-89832537D01*
X162626435Y-89618371D01*
X162490895Y-89424799D01*
X162323801Y-89257705D01*
X162138239Y-89127773D01*
X162094616Y-89073198D01*
X162087422Y-89003700D01*
X162118945Y-88941345D01*
X162138237Y-88924628D01*
X162323801Y-88794695D01*
X162490895Y-88627601D01*
X162626435Y-88434030D01*
X162726303Y-88219863D01*
X162787463Y-87991608D01*
X162808059Y-87756200D01*
X162787463Y-87520792D01*
X162726303Y-87292537D01*
X162626435Y-87078371D01*
X162490895Y-86884799D01*
X162323801Y-86717705D01*
X162138239Y-86587773D01*
X162094616Y-86533198D01*
X162087422Y-86463700D01*
X162118945Y-86401345D01*
X162138237Y-86384628D01*
X162323801Y-86254695D01*
X162490895Y-86087601D01*
X162626435Y-85894030D01*
X162726303Y-85679863D01*
X162787463Y-85451608D01*
X162808059Y-85216200D01*
X162787463Y-84980792D01*
X162726303Y-84752537D01*
X162626435Y-84538371D01*
X162490895Y-84344799D01*
X162323801Y-84177705D01*
X162138239Y-84047773D01*
X162094616Y-83993198D01*
X162087422Y-83923700D01*
X162118945Y-83861345D01*
X162138237Y-83844628D01*
X162323801Y-83714695D01*
X162490895Y-83547601D01*
X162626435Y-83354030D01*
X162726303Y-83139863D01*
X162787463Y-82911608D01*
X162808059Y-82676200D01*
X162787463Y-82440792D01*
X162726303Y-82212537D01*
X162626435Y-81998371D01*
X162490895Y-81804799D01*
X162323801Y-81637705D01*
X162138239Y-81507773D01*
X162094616Y-81453198D01*
X162087422Y-81383700D01*
X162118945Y-81321345D01*
X162138237Y-81304628D01*
X162323801Y-81174695D01*
X162490895Y-81007601D01*
X162626435Y-80814030D01*
X162726303Y-80599863D01*
X162787463Y-80371608D01*
X162808059Y-80136200D01*
X162787463Y-79900792D01*
X162726303Y-79672537D01*
X162626435Y-79458371D01*
X162490895Y-79264799D01*
X162323801Y-79097705D01*
X162138239Y-78967773D01*
X162094616Y-78913198D01*
X162087422Y-78843700D01*
X162118945Y-78781345D01*
X162138237Y-78764628D01*
X162323801Y-78634695D01*
X162490895Y-78467601D01*
X162626435Y-78274030D01*
X162726303Y-78059863D01*
X162787463Y-77831608D01*
X162808059Y-77596200D01*
X162797018Y-77469999D01*
X180254340Y-77469999D01*
X180274936Y-77705407D01*
X180308752Y-77831608D01*
X180336097Y-77933663D01*
X180435965Y-78147830D01*
X180571505Y-78341401D01*
X180738599Y-78508495D01*
X180932170Y-78644035D01*
X181146337Y-78743903D01*
X181374592Y-78805063D01*
X181610000Y-78825659D01*
X181845408Y-78805063D01*
X182073663Y-78743903D01*
X182287830Y-78644035D01*
X182481401Y-78508495D01*
X182648495Y-78341401D01*
X182784035Y-78147830D01*
X182883903Y-77933663D01*
X182945063Y-77705408D01*
X182965659Y-77470000D01*
X182945063Y-77234592D01*
X182883903Y-77006337D01*
X182784035Y-76792171D01*
X182648495Y-76598599D01*
X182481401Y-76431505D01*
X182295839Y-76301573D01*
X182252216Y-76246998D01*
X182245022Y-76177500D01*
X182276545Y-76115145D01*
X182295837Y-76098428D01*
X182481401Y-75968495D01*
X182648495Y-75801401D01*
X182784035Y-75607830D01*
X182883903Y-75393663D01*
X182945063Y-75165408D01*
X182965659Y-74930000D01*
X182945063Y-74694592D01*
X182883903Y-74466337D01*
X182784035Y-74252171D01*
X182648495Y-74058599D01*
X182481401Y-73891505D01*
X182295402Y-73761267D01*
X182251780Y-73706692D01*
X182244587Y-73637193D01*
X182276109Y-73574839D01*
X182295405Y-73558119D01*
X182481078Y-73428109D01*
X182648106Y-73261081D01*
X182783600Y-73067576D01*
X182883430Y-72853492D01*
X182940636Y-72640000D01*
X182043686Y-72640000D01*
X182069493Y-72599844D01*
X182110000Y-72461889D01*
X182110000Y-72318111D01*
X182069493Y-72180156D01*
X182043686Y-72140000D01*
X182940636Y-72140000D01*
X182940635Y-72139999D01*
X182883430Y-71926507D01*
X182783599Y-71712421D01*
X182648109Y-71518921D01*
X182481081Y-71351893D01*
X182295404Y-71221880D01*
X182251780Y-71167303D01*
X182244587Y-71097804D01*
X182276109Y-71035450D01*
X182295399Y-71018734D01*
X182481401Y-70888495D01*
X182648495Y-70721401D01*
X182784035Y-70527830D01*
X182883903Y-70313663D01*
X182945063Y-70085408D01*
X182965659Y-69850000D01*
X182963878Y-69829649D01*
X182945063Y-69614592D01*
X182922731Y-69531248D01*
X182883903Y-69386337D01*
X182784035Y-69172171D01*
X182648495Y-68978599D01*
X182481401Y-68811505D01*
X182295839Y-68681573D01*
X182252216Y-68626998D01*
X182245022Y-68557500D01*
X182276545Y-68495145D01*
X182295837Y-68478428D01*
X182481401Y-68348495D01*
X182648495Y-68181401D01*
X182784035Y-67987830D01*
X182883903Y-67773663D01*
X182945063Y-67545408D01*
X182965659Y-67310000D01*
X182945063Y-67074592D01*
X182883903Y-66846337D01*
X182784035Y-66632171D01*
X182648495Y-66438599D01*
X182481401Y-66271505D01*
X182295839Y-66141573D01*
X182252215Y-66086997D01*
X182245023Y-66017498D01*
X182276545Y-65955144D01*
X182295831Y-65938432D01*
X182481401Y-65808495D01*
X182648495Y-65641401D01*
X182784035Y-65447830D01*
X182883903Y-65233663D01*
X182945063Y-65005408D01*
X182965659Y-64770000D01*
X182945063Y-64534592D01*
X182883903Y-64306337D01*
X182784035Y-64092171D01*
X182648495Y-63898599D01*
X182481401Y-63731505D01*
X182295839Y-63601573D01*
X182252217Y-63546998D01*
X182245024Y-63477499D01*
X182276546Y-63415145D01*
X182295837Y-63398428D01*
X182481401Y-63268495D01*
X182648495Y-63101401D01*
X182784035Y-62907830D01*
X182883903Y-62693663D01*
X182945063Y-62465408D01*
X182965659Y-62230000D01*
X182945063Y-61994592D01*
X182883903Y-61766337D01*
X182784035Y-61552171D01*
X182648495Y-61358599D01*
X182526569Y-61236672D01*
X182493084Y-61175350D01*
X182498068Y-61105658D01*
X182539940Y-61049725D01*
X182570915Y-61032810D01*
X182702331Y-60983796D01*
X182817546Y-60897546D01*
X182903796Y-60782331D01*
X182954091Y-60647483D01*
X182960500Y-60587873D01*
X182960499Y-58792128D01*
X182954091Y-58732517D01*
X182903796Y-58597669D01*
X182817546Y-58482454D01*
X182702331Y-58396204D01*
X182567483Y-58345909D01*
X182507873Y-58339500D01*
X182504550Y-58339500D01*
X180715439Y-58339500D01*
X180715420Y-58339500D01*
X180712128Y-58339501D01*
X180708848Y-58339853D01*
X180708840Y-58339854D01*
X180652515Y-58345909D01*
X180517669Y-58396204D01*
X180402454Y-58482454D01*
X180316204Y-58597668D01*
X180265909Y-58732516D01*
X180261051Y-58777705D01*
X180259500Y-58792127D01*
X180259500Y-58795448D01*
X180259500Y-58795449D01*
X180259500Y-60584560D01*
X180259500Y-60584578D01*
X180259501Y-60587872D01*
X180259853Y-60591152D01*
X180259854Y-60591159D01*
X180265909Y-60647484D01*
X180280872Y-60687601D01*
X180316204Y-60782331D01*
X180402454Y-60897546D01*
X180517669Y-60983796D01*
X180629907Y-61025658D01*
X180649082Y-61032810D01*
X180705016Y-61074681D01*
X180729433Y-61140146D01*
X180714581Y-61208419D01*
X180693431Y-61236673D01*
X180571503Y-61358601D01*
X180435965Y-61552170D01*
X180336097Y-61766336D01*
X180274936Y-61994592D01*
X180254340Y-62230000D01*
X180274936Y-62465407D01*
X180308752Y-62591608D01*
X180336097Y-62693663D01*
X180435965Y-62907830D01*
X180571505Y-63101401D01*
X180738599Y-63268495D01*
X180924160Y-63398426D01*
X180967783Y-63453002D01*
X180974976Y-63522501D01*
X180943454Y-63584855D01*
X180924158Y-63601575D01*
X180821871Y-63673198D01*
X180738595Y-63731508D01*
X180571505Y-63898598D01*
X180435965Y-64092170D01*
X180336097Y-64306336D01*
X180274936Y-64534592D01*
X180254340Y-64769999D01*
X180274936Y-65005407D01*
X180308752Y-65131608D01*
X180336097Y-65233663D01*
X180435965Y-65447830D01*
X180571505Y-65641401D01*
X180738599Y-65808495D01*
X180924160Y-65938426D01*
X180967783Y-65993002D01*
X180974976Y-66062501D01*
X180943454Y-66124855D01*
X180924160Y-66141574D01*
X180743928Y-66267774D01*
X180738595Y-66271508D01*
X180571505Y-66438598D01*
X180435965Y-66632170D01*
X180336097Y-66846336D01*
X180274936Y-67074592D01*
X180254340Y-67309999D01*
X180274936Y-67545407D01*
X180308752Y-67671608D01*
X180336097Y-67773663D01*
X180435965Y-67987830D01*
X180571505Y-68181401D01*
X180738599Y-68348495D01*
X180924160Y-68478426D01*
X180967783Y-68533002D01*
X180974976Y-68602501D01*
X180943454Y-68664855D01*
X180924158Y-68681575D01*
X180821871Y-68753198D01*
X180738595Y-68811508D01*
X180571505Y-68978598D01*
X180435965Y-69172170D01*
X180336097Y-69386336D01*
X180274936Y-69614592D01*
X180254340Y-69850000D01*
X180274936Y-70085407D01*
X180310866Y-70219500D01*
X180336097Y-70313663D01*
X180435965Y-70527830D01*
X180571505Y-70721401D01*
X180738599Y-70888495D01*
X180924596Y-71018732D01*
X180968219Y-71073307D01*
X180975412Y-71142806D01*
X180943890Y-71205160D01*
X180924595Y-71221880D01*
X180738919Y-71351892D01*
X180571890Y-71518921D01*
X180436400Y-71712421D01*
X180336569Y-71926507D01*
X180279364Y-72139999D01*
X180279364Y-72140000D01*
X181176314Y-72140000D01*
X181150507Y-72180156D01*
X181110000Y-72318111D01*
X181110000Y-72461889D01*
X181150507Y-72599844D01*
X181176314Y-72640000D01*
X180279364Y-72640000D01*
X180336569Y-72853492D01*
X180436399Y-73067576D01*
X180571893Y-73261081D01*
X180738918Y-73428106D01*
X180924595Y-73558119D01*
X180968219Y-73612696D01*
X180975412Y-73682195D01*
X180943890Y-73744549D01*
X180924595Y-73761269D01*
X180821870Y-73833198D01*
X180743928Y-73887774D01*
X180738595Y-73891508D01*
X180571505Y-74058598D01*
X180435965Y-74252170D01*
X180336097Y-74466336D01*
X180274936Y-74694592D01*
X180254340Y-74930000D01*
X180274936Y-75165407D01*
X180308752Y-75291608D01*
X180336097Y-75393663D01*
X180435965Y-75607830D01*
X180571505Y-75801401D01*
X180738599Y-75968495D01*
X180924160Y-76098426D01*
X180967783Y-76153002D01*
X180974976Y-76222501D01*
X180943454Y-76284855D01*
X180924158Y-76301575D01*
X180821871Y-76373198D01*
X180738595Y-76431508D01*
X180571505Y-76598598D01*
X180435965Y-76792170D01*
X180336097Y-77006336D01*
X180274936Y-77234592D01*
X180254340Y-77469999D01*
X162797018Y-77469999D01*
X162787463Y-77360792D01*
X162726303Y-77132537D01*
X162626435Y-76918371D01*
X162490895Y-76724799D01*
X162323801Y-76557705D01*
X162138239Y-76427773D01*
X162094616Y-76373198D01*
X162087422Y-76303700D01*
X162118945Y-76241345D01*
X162138237Y-76224628D01*
X162323801Y-76094695D01*
X162490895Y-75927601D01*
X162626435Y-75734030D01*
X162726303Y-75519863D01*
X162787463Y-75291608D01*
X162808059Y-75056200D01*
X162787463Y-74820792D01*
X162726303Y-74592537D01*
X162626435Y-74378371D01*
X162490895Y-74184799D01*
X162323801Y-74017705D01*
X162138239Y-73887773D01*
X162094616Y-73833198D01*
X162087422Y-73763700D01*
X162118945Y-73701345D01*
X162138237Y-73684628D01*
X162323801Y-73554695D01*
X162490895Y-73387601D01*
X162626435Y-73194030D01*
X162726303Y-72979863D01*
X162787463Y-72751608D01*
X162808059Y-72516200D01*
X162787463Y-72280792D01*
X162726303Y-72052537D01*
X162626435Y-71838371D01*
X162490895Y-71644799D01*
X162323801Y-71477705D01*
X162138239Y-71347773D01*
X162094616Y-71293198D01*
X162087422Y-71223700D01*
X162118945Y-71161345D01*
X162138237Y-71144628D01*
X162323801Y-71014695D01*
X162490895Y-70847601D01*
X162626435Y-70654030D01*
X162726303Y-70439863D01*
X162787463Y-70211608D01*
X162808059Y-69976200D01*
X162797018Y-69849999D01*
X164194540Y-69849999D01*
X164214326Y-70038257D01*
X164272820Y-70218284D01*
X164367466Y-70382216D01*
X164494129Y-70522889D01*
X164647269Y-70634151D01*
X164820197Y-70711144D01*
X165005352Y-70750500D01*
X165005354Y-70750500D01*
X165064548Y-70750500D01*
X165131587Y-70770185D01*
X165152228Y-70786818D01*
X165515644Y-71150235D01*
X165869196Y-71503787D01*
X165882096Y-71519888D01*
X165933223Y-71567900D01*
X165936020Y-71570611D01*
X165955529Y-71590120D01*
X165958709Y-71592587D01*
X165967571Y-71600155D01*
X165999418Y-71630062D01*
X166016970Y-71639711D01*
X166033238Y-71650397D01*
X166049064Y-71662673D01*
X166089146Y-71680017D01*
X166099633Y-71685155D01*
X166137907Y-71706197D01*
X166146410Y-71708379D01*
X166157308Y-71711178D01*
X166175713Y-71717478D01*
X166194104Y-71725437D01*
X166237250Y-71732270D01*
X166248668Y-71734635D01*
X166290981Y-71745500D01*
X166311016Y-71745500D01*
X166330415Y-71747027D01*
X166350196Y-71750160D01*
X166393674Y-71746050D01*
X166405344Y-71745500D01*
X166936253Y-71745500D01*
X167003292Y-71765185D01*
X167028400Y-71786526D01*
X167034129Y-71792888D01*
X167187270Y-71904151D01*
X167187271Y-71904151D01*
X167187272Y-71904152D01*
X167360197Y-71981144D01*
X167545352Y-72020500D01*
X167545354Y-72020500D01*
X167734648Y-72020500D01*
X167858083Y-71994262D01*
X167919803Y-71981144D01*
X168092730Y-71904151D01*
X168124350Y-71881178D01*
X168245870Y-71792889D01*
X168251598Y-71786528D01*
X168372533Y-71652216D01*
X168467179Y-71488284D01*
X168525674Y-71308256D01*
X168545460Y-71120000D01*
X168525674Y-70931744D01*
X168467179Y-70751716D01*
X168467179Y-70751715D01*
X168372533Y-70587783D01*
X168245870Y-70447110D01*
X168092730Y-70335848D01*
X167919802Y-70258855D01*
X167734648Y-70219500D01*
X167734646Y-70219500D01*
X167545354Y-70219500D01*
X167545352Y-70219500D01*
X167360197Y-70258855D01*
X167187272Y-70335847D01*
X167123451Y-70382216D01*
X167034129Y-70447112D01*
X167028401Y-70453472D01*
X166968916Y-70490121D01*
X166936253Y-70494500D01*
X166680453Y-70494500D01*
X166613414Y-70474815D01*
X166592772Y-70458181D01*
X166038960Y-69904369D01*
X166005475Y-69843046D01*
X166003323Y-69829668D01*
X165985674Y-69661744D01*
X165943273Y-69531248D01*
X165927179Y-69481715D01*
X165832533Y-69317783D01*
X165705870Y-69177110D01*
X165552730Y-69065848D01*
X165379802Y-68988855D01*
X165194648Y-68949500D01*
X165194646Y-68949500D01*
X165005354Y-68949500D01*
X165005352Y-68949500D01*
X164820197Y-68988855D01*
X164647269Y-69065848D01*
X164494129Y-69177110D01*
X164367466Y-69317783D01*
X164272820Y-69481715D01*
X164214326Y-69661742D01*
X164194540Y-69849999D01*
X162797018Y-69849999D01*
X162787463Y-69740792D01*
X162726303Y-69512537D01*
X162626435Y-69298371D01*
X162490895Y-69104799D01*
X162323801Y-68937705D01*
X162138239Y-68807773D01*
X162094616Y-68753198D01*
X162087422Y-68683700D01*
X162118945Y-68621345D01*
X162138237Y-68604628D01*
X162323801Y-68474695D01*
X162490895Y-68307601D01*
X162626435Y-68114030D01*
X162726303Y-67899863D01*
X162787463Y-67671608D01*
X162808059Y-67436200D01*
X162787463Y-67200792D01*
X162726303Y-66972537D01*
X162626435Y-66758371D01*
X162490895Y-66564799D01*
X162323801Y-66397705D01*
X162138239Y-66267773D01*
X162094615Y-66213197D01*
X162087423Y-66143698D01*
X162118945Y-66081344D01*
X162138231Y-66064632D01*
X162173409Y-66040000D01*
X174354540Y-66040000D01*
X174374326Y-66228257D01*
X174432820Y-66408284D01*
X174527466Y-66572216D01*
X174654129Y-66712889D01*
X174807269Y-66824151D01*
X174980197Y-66901144D01*
X175165352Y-66940500D01*
X175165354Y-66940500D01*
X175354648Y-66940500D01*
X175478084Y-66914262D01*
X175539803Y-66901144D01*
X175712730Y-66824151D01*
X175744350Y-66801178D01*
X175865870Y-66712889D01*
X175992533Y-66572216D01*
X176087179Y-66408284D01*
X176132833Y-66267775D01*
X176145674Y-66228256D01*
X176165460Y-66040000D01*
X176145674Y-65851744D01*
X176087179Y-65671716D01*
X176087179Y-65671715D01*
X175992533Y-65507783D01*
X175917350Y-65424284D01*
X175887120Y-65361293D01*
X175885500Y-65341312D01*
X175885500Y-47688687D01*
X175905185Y-47621648D01*
X175917350Y-47605714D01*
X175992533Y-47522216D01*
X175993148Y-47521152D01*
X176087179Y-47358284D01*
X176089348Y-47351608D01*
X176145674Y-47178256D01*
X176165460Y-46990000D01*
X176145674Y-46801744D01*
X176103273Y-46671248D01*
X176087179Y-46621715D01*
X175992533Y-46457783D01*
X175865870Y-46317110D01*
X175712730Y-46205848D01*
X175539802Y-46128855D01*
X175354648Y-46089500D01*
X175354646Y-46089500D01*
X175165354Y-46089500D01*
X175165352Y-46089500D01*
X174980197Y-46128855D01*
X174807269Y-46205848D01*
X174654129Y-46317110D01*
X174527466Y-46457783D01*
X174432820Y-46621715D01*
X174374326Y-46801742D01*
X174354540Y-46989999D01*
X174374326Y-47178257D01*
X174432820Y-47358284D01*
X174527464Y-47522213D01*
X174602650Y-47605714D01*
X174632880Y-47668706D01*
X174634500Y-47688687D01*
X174634500Y-65341312D01*
X174614815Y-65408351D01*
X174602650Y-65424284D01*
X174527466Y-65507783D01*
X174432820Y-65671715D01*
X174374326Y-65851742D01*
X174354540Y-66040000D01*
X162173409Y-66040000D01*
X162323801Y-65934695D01*
X162490895Y-65767601D01*
X162626435Y-65574030D01*
X162726303Y-65359863D01*
X162787463Y-65131608D01*
X162808059Y-64896200D01*
X162787463Y-64660792D01*
X162726303Y-64432537D01*
X162626435Y-64218371D01*
X162490895Y-64024799D01*
X162323801Y-63857705D01*
X162138239Y-63727773D01*
X162094617Y-63673198D01*
X162087424Y-63603699D01*
X162118946Y-63541345D01*
X162138237Y-63524628D01*
X162323801Y-63394695D01*
X162490895Y-63227601D01*
X162626435Y-63034030D01*
X162726303Y-62819863D01*
X162787463Y-62591608D01*
X162808059Y-62356200D01*
X162787463Y-62120792D01*
X162726303Y-61892537D01*
X162626435Y-61678371D01*
X162490895Y-61484799D01*
X162323801Y-61317705D01*
X162138239Y-61187773D01*
X162094615Y-61133197D01*
X162087423Y-61063698D01*
X162118945Y-61001344D01*
X162138231Y-60984632D01*
X162323801Y-60854695D01*
X162490895Y-60687601D01*
X162626435Y-60494030D01*
X162726303Y-60279863D01*
X162787463Y-60051608D01*
X162808059Y-59816200D01*
X162787463Y-59580792D01*
X162726303Y-59352537D01*
X162626435Y-59138371D01*
X162490895Y-58944799D01*
X162323801Y-58777705D01*
X162138239Y-58647773D01*
X162094617Y-58593198D01*
X162087424Y-58523699D01*
X162118946Y-58461345D01*
X162138237Y-58444628D01*
X162323801Y-58314695D01*
X162490895Y-58147601D01*
X162626435Y-57954030D01*
X162726303Y-57739863D01*
X162787463Y-57511608D01*
X162808059Y-57276200D01*
X162787463Y-57040792D01*
X162726303Y-56812537D01*
X162626435Y-56598371D01*
X162490895Y-56404799D01*
X162323801Y-56237705D01*
X162138239Y-56107773D01*
X162094615Y-56053197D01*
X162087423Y-55983698D01*
X162118945Y-55921344D01*
X162138231Y-55904632D01*
X162323801Y-55774695D01*
X162490895Y-55607601D01*
X162626435Y-55414030D01*
X162726303Y-55199863D01*
X162787463Y-54971608D01*
X162808059Y-54736200D01*
X162787463Y-54500792D01*
X162726303Y-54272537D01*
X162626435Y-54058371D01*
X162490895Y-53864799D01*
X162323801Y-53697705D01*
X162138239Y-53567773D01*
X162094617Y-53513198D01*
X162087424Y-53443699D01*
X162118946Y-53381345D01*
X162138237Y-53364628D01*
X162323801Y-53234695D01*
X162490895Y-53067601D01*
X162626435Y-52874030D01*
X162726303Y-52659863D01*
X162787463Y-52431608D01*
X162808059Y-52196200D01*
X162787463Y-51960792D01*
X162726303Y-51732537D01*
X162626435Y-51518371D01*
X162490895Y-51324799D01*
X162323801Y-51157705D01*
X162138239Y-51027773D01*
X162094615Y-50973197D01*
X162087423Y-50903698D01*
X162118945Y-50841344D01*
X162138231Y-50824632D01*
X162323801Y-50694695D01*
X162490895Y-50527601D01*
X162626435Y-50334030D01*
X162726303Y-50119863D01*
X162787463Y-49891608D01*
X162808059Y-49656200D01*
X162787463Y-49420792D01*
X162726303Y-49192537D01*
X162626435Y-48978371D01*
X162490895Y-48784799D01*
X162323801Y-48617705D01*
X162138239Y-48487773D01*
X162094616Y-48433198D01*
X162087422Y-48363700D01*
X162118945Y-48301345D01*
X162138237Y-48284628D01*
X162323801Y-48154695D01*
X162490895Y-47987601D01*
X162626435Y-47794030D01*
X162726303Y-47579863D01*
X162787463Y-47351608D01*
X162808059Y-47116200D01*
X162787463Y-46880792D01*
X162726303Y-46652537D01*
X162626435Y-46438371D01*
X162490895Y-46244799D01*
X162323801Y-46077705D01*
X162138239Y-45947773D01*
X162094615Y-45893197D01*
X162087423Y-45823698D01*
X162118945Y-45761344D01*
X162138231Y-45744632D01*
X162323801Y-45614695D01*
X162490895Y-45447601D01*
X162626435Y-45254030D01*
X162726303Y-45039863D01*
X162787463Y-44811608D01*
X162808059Y-44576200D01*
X162787463Y-44340792D01*
X162726303Y-44112537D01*
X162626435Y-43898371D01*
X162490895Y-43704799D01*
X162368581Y-43582485D01*
X162335096Y-43521162D01*
X162340080Y-43451470D01*
X162381952Y-43395537D01*
X162412928Y-43378622D01*
X162544489Y-43329552D01*
X162659588Y-43243388D01*
X162745752Y-43128289D01*
X162795999Y-42993571D01*
X162802045Y-42937332D01*
X162802400Y-42930718D01*
X162802400Y-42824400D01*
X181993822Y-42824400D01*
X181993992Y-42827643D01*
X182009748Y-43128289D01*
X182014122Y-43211738D01*
X182014627Y-43214931D01*
X182014629Y-43214943D01*
X182074289Y-43591624D01*
X182074291Y-43591637D01*
X182074798Y-43594833D01*
X182075635Y-43597957D01*
X182075637Y-43597966D01*
X182174347Y-43966357D01*
X182175186Y-43969487D01*
X182176343Y-43972502D01*
X182176346Y-43972510D01*
X182226885Y-44104167D01*
X182314186Y-44331594D01*
X182315655Y-44334477D01*
X182315659Y-44334486D01*
X182482274Y-44661486D01*
X182490275Y-44677189D01*
X182701524Y-45002484D01*
X182731792Y-45039862D01*
X182937378Y-45293740D01*
X182945619Y-45303916D01*
X183219884Y-45578181D01*
X183521316Y-45822276D01*
X183846611Y-46033525D01*
X184192206Y-46209614D01*
X184554313Y-46348614D01*
X184928967Y-46449002D01*
X185312062Y-46509678D01*
X185699400Y-46529978D01*
X186086738Y-46509678D01*
X186469833Y-46449002D01*
X186844487Y-46348614D01*
X187206594Y-46209614D01*
X187552189Y-46033525D01*
X187877484Y-45822276D01*
X188178916Y-45578181D01*
X188453181Y-45303916D01*
X188697276Y-45002484D01*
X188908525Y-44677189D01*
X189084614Y-44331594D01*
X189223614Y-43969487D01*
X189324002Y-43594833D01*
X189384678Y-43211738D01*
X189404978Y-42824400D01*
X189384678Y-42437062D01*
X189324002Y-42053967D01*
X189223614Y-41679313D01*
X189084614Y-41317206D01*
X188908525Y-40971611D01*
X188697276Y-40646316D01*
X188453181Y-40344884D01*
X188178916Y-40070619D01*
X187877484Y-39826524D01*
X187552189Y-39615275D01*
X187549301Y-39613803D01*
X187549295Y-39613800D01*
X187209486Y-39440659D01*
X187209477Y-39440655D01*
X187206594Y-39439186D01*
X187177946Y-39428189D01*
X186847510Y-39301346D01*
X186847502Y-39301343D01*
X186844487Y-39300186D01*
X186841362Y-39299348D01*
X186841357Y-39299347D01*
X186472966Y-39200637D01*
X186472957Y-39200635D01*
X186469833Y-39199798D01*
X186466637Y-39199291D01*
X186466624Y-39199289D01*
X186089943Y-39139629D01*
X186089931Y-39139627D01*
X186086738Y-39139122D01*
X186083503Y-39138952D01*
X186083499Y-39138952D01*
X185702644Y-39118992D01*
X185699400Y-39118822D01*
X185696156Y-39118992D01*
X185315300Y-39138952D01*
X185315294Y-39138952D01*
X185312062Y-39139122D01*
X185308870Y-39139627D01*
X185308856Y-39139629D01*
X184932175Y-39199289D01*
X184932158Y-39199292D01*
X184928967Y-39199798D01*
X184925846Y-39200634D01*
X184925833Y-39200637D01*
X184557442Y-39299347D01*
X184557431Y-39299350D01*
X184554313Y-39300186D01*
X184551302Y-39301341D01*
X184551289Y-39301346D01*
X184195237Y-39438022D01*
X184195228Y-39438025D01*
X184192206Y-39439186D01*
X184189329Y-39440651D01*
X184189313Y-39440659D01*
X183849504Y-39613800D01*
X183849490Y-39613808D01*
X183846611Y-39615275D01*
X183843891Y-39617041D01*
X183843883Y-39617046D01*
X183524044Y-39824752D01*
X183524038Y-39824755D01*
X183521316Y-39826524D01*
X183518796Y-39828564D01*
X183518790Y-39828569D01*
X183222402Y-40068579D01*
X183222391Y-40068588D01*
X183219884Y-40070619D01*
X183217599Y-40072903D01*
X183217589Y-40072913D01*
X182947913Y-40342589D01*
X182947903Y-40342599D01*
X182945619Y-40344884D01*
X182943588Y-40347391D01*
X182943579Y-40347402D01*
X182703569Y-40643790D01*
X182703564Y-40643796D01*
X182701524Y-40646316D01*
X182699755Y-40649038D01*
X182699752Y-40649044D01*
X182492046Y-40968883D01*
X182492041Y-40968891D01*
X182490275Y-40971611D01*
X182488808Y-40974490D01*
X182488800Y-40974504D01*
X182315659Y-41314313D01*
X182315651Y-41314329D01*
X182314186Y-41317206D01*
X182313025Y-41320228D01*
X182313022Y-41320237D01*
X182176346Y-41676289D01*
X182176341Y-41676302D01*
X182175186Y-41679313D01*
X182174350Y-41682431D01*
X182174347Y-41682442D01*
X182075637Y-42050833D01*
X182075634Y-42050846D01*
X182074798Y-42053967D01*
X182074292Y-42057158D01*
X182074289Y-42057175D01*
X182014629Y-42433856D01*
X182014627Y-42433870D01*
X182014122Y-42437062D01*
X182013952Y-42440294D01*
X182013952Y-42440300D01*
X182010777Y-42500880D01*
X181993822Y-42824400D01*
X162802400Y-42824400D01*
X162802400Y-42286200D01*
X161886086Y-42286200D01*
X161911893Y-42246044D01*
X161952400Y-42108089D01*
X161952400Y-41964311D01*
X161911893Y-41826356D01*
X161886086Y-41786200D01*
X162802400Y-41786200D01*
X162802400Y-41141681D01*
X162802045Y-41135067D01*
X162795999Y-41078828D01*
X162745752Y-40944110D01*
X162659588Y-40829011D01*
X162544489Y-40742847D01*
X162409771Y-40692600D01*
X162353532Y-40686554D01*
X162346918Y-40686200D01*
X161702400Y-40686200D01*
X161702400Y-41600698D01*
X161594715Y-41551520D01*
X161488163Y-41536200D01*
X161416637Y-41536200D01*
X161310085Y-41551520D01*
X161202400Y-41600698D01*
X161202400Y-40686200D01*
X160557882Y-40686200D01*
X160551267Y-40686554D01*
X160495028Y-40692600D01*
X160360310Y-40742847D01*
X160245211Y-40829011D01*
X160159047Y-40944111D01*
X160109785Y-41076187D01*
X160067913Y-41132121D01*
X160002448Y-41156537D01*
X159934176Y-41141685D01*
X159905922Y-41120534D01*
X159783481Y-40998093D01*
X159589976Y-40862599D01*
X159375892Y-40762769D01*
X159162400Y-40705564D01*
X159162400Y-41600698D01*
X159054715Y-41551520D01*
X158948163Y-41536200D01*
X158876637Y-41536200D01*
X158770085Y-41551520D01*
X158662400Y-41600698D01*
X158662400Y-40705564D01*
X158662399Y-40705564D01*
X158448907Y-40762769D01*
X158234821Y-40862600D01*
X158041321Y-40998090D01*
X157874290Y-41165121D01*
X157738800Y-41358621D01*
X157638969Y-41572707D01*
X157581764Y-41786199D01*
X157581764Y-41786200D01*
X158478714Y-41786200D01*
X158452907Y-41826356D01*
X158412400Y-41964311D01*
X158412400Y-42108089D01*
X158452907Y-42246044D01*
X158478714Y-42286200D01*
X157581764Y-42286200D01*
X157638969Y-42499692D01*
X157738799Y-42713776D01*
X157874293Y-42907281D01*
X158041318Y-43074306D01*
X158226995Y-43204319D01*
X158270619Y-43258896D01*
X158277812Y-43328395D01*
X158246290Y-43390749D01*
X158226995Y-43407469D01*
X158093188Y-43501162D01*
X158045961Y-43534231D01*
X158040995Y-43537708D01*
X157873905Y-43704798D01*
X157738365Y-43898370D01*
X157638497Y-44112536D01*
X157577336Y-44340792D01*
X157556740Y-44576200D01*
X157577336Y-44811607D01*
X157603606Y-44909647D01*
X157638497Y-45039863D01*
X157738365Y-45254030D01*
X157873905Y-45447601D01*
X158040999Y-45614695D01*
X158226560Y-45744626D01*
X158270183Y-45799202D01*
X158277376Y-45868701D01*
X158245854Y-45931055D01*
X158226560Y-45947774D01*
X158069010Y-46058092D01*
X158040995Y-46077708D01*
X157873905Y-46244798D01*
X157738365Y-46438370D01*
X157638497Y-46652536D01*
X157577336Y-46880792D01*
X157556740Y-47116199D01*
X157577336Y-47351607D01*
X157597537Y-47426998D01*
X157638497Y-47579863D01*
X157738365Y-47794030D01*
X157873905Y-47987601D01*
X158040999Y-48154695D01*
X158226560Y-48284626D01*
X158270183Y-48339202D01*
X158277376Y-48408701D01*
X158245854Y-48471055D01*
X158226559Y-48487775D01*
X158040995Y-48617708D01*
X157873905Y-48784798D01*
X157738365Y-48978370D01*
X157638497Y-49192536D01*
X157577336Y-49420792D01*
X157556740Y-49656200D01*
X157577336Y-49891607D01*
X157622109Y-50058701D01*
X157638497Y-50119863D01*
X157738365Y-50334030D01*
X157873905Y-50527601D01*
X158040999Y-50694695D01*
X158226560Y-50824626D01*
X158270183Y-50879202D01*
X158277376Y-50948701D01*
X158245854Y-51011055D01*
X158226559Y-51027775D01*
X158040995Y-51157708D01*
X157873905Y-51324798D01*
X157738365Y-51518370D01*
X157638497Y-51732536D01*
X157577336Y-51960792D01*
X157556740Y-52196200D01*
X157577336Y-52431607D01*
X157622109Y-52598702D01*
X157638497Y-52659863D01*
X157738365Y-52874030D01*
X157873905Y-53067601D01*
X158040999Y-53234695D01*
X158226560Y-53364626D01*
X158270183Y-53419202D01*
X158277376Y-53488701D01*
X158245854Y-53551055D01*
X158226559Y-53567775D01*
X158040995Y-53697708D01*
X157873905Y-53864798D01*
X157738365Y-54058370D01*
X157638497Y-54272536D01*
X157577336Y-54500792D01*
X157556740Y-54736199D01*
X157577336Y-54971607D01*
X157622109Y-55138702D01*
X157638497Y-55199863D01*
X157738365Y-55414030D01*
X157873905Y-55607601D01*
X158040999Y-55774695D01*
X158226560Y-55904626D01*
X158270183Y-55959202D01*
X158277376Y-56028701D01*
X158245854Y-56091055D01*
X158226559Y-56107775D01*
X158040995Y-56237708D01*
X157873905Y-56404798D01*
X157738365Y-56598370D01*
X157638497Y-56812536D01*
X157577336Y-57040792D01*
X157556740Y-57276200D01*
X157577336Y-57511607D01*
X157622109Y-57678701D01*
X157638497Y-57739863D01*
X157738365Y-57954030D01*
X157873905Y-58147601D01*
X158040999Y-58314695D01*
X158226560Y-58444626D01*
X158270183Y-58499202D01*
X158277376Y-58568701D01*
X158245854Y-58631055D01*
X158226558Y-58647775D01*
X158105535Y-58732517D01*
X158040995Y-58777708D01*
X157873905Y-58944798D01*
X157738365Y-59138370D01*
X157638497Y-59352536D01*
X157577336Y-59580792D01*
X157556740Y-59816199D01*
X157577336Y-60051607D01*
X157622109Y-60218701D01*
X157638497Y-60279863D01*
X157738365Y-60494030D01*
X157873905Y-60687601D01*
X158040999Y-60854695D01*
X158226560Y-60984626D01*
X158270183Y-61039202D01*
X158277376Y-61108701D01*
X158245854Y-61171055D01*
X158226559Y-61187775D01*
X158040995Y-61317708D01*
X157873905Y-61484798D01*
X157738365Y-61678370D01*
X157638497Y-61892536D01*
X157577336Y-62120792D01*
X157556740Y-62356200D01*
X157577336Y-62591607D01*
X157604682Y-62693662D01*
X157638497Y-62819863D01*
X157738365Y-63034030D01*
X157873905Y-63227601D01*
X158040999Y-63394695D01*
X158226560Y-63524626D01*
X158270183Y-63579202D01*
X158277376Y-63648701D01*
X158245854Y-63711055D01*
X158226559Y-63727775D01*
X158040995Y-63857708D01*
X157873905Y-64024798D01*
X157738365Y-64218370D01*
X157638497Y-64432536D01*
X157577336Y-64660792D01*
X157556740Y-64896200D01*
X157577336Y-65131607D01*
X157604682Y-65233662D01*
X157638497Y-65359863D01*
X157738365Y-65574030D01*
X157873905Y-65767601D01*
X158040999Y-65934695D01*
X158226560Y-66064626D01*
X158270183Y-66119202D01*
X158277376Y-66188701D01*
X158245854Y-66251055D01*
X158226559Y-66267775D01*
X158040995Y-66397708D01*
X157873905Y-66564798D01*
X157738365Y-66758370D01*
X157638497Y-66972536D01*
X157577336Y-67200792D01*
X157556740Y-67436199D01*
X157577336Y-67671607D01*
X157605438Y-67776483D01*
X157638497Y-67899863D01*
X157738365Y-68114030D01*
X157873905Y-68307601D01*
X158040999Y-68474695D01*
X158226560Y-68604626D01*
X158270183Y-68659202D01*
X158277376Y-68728701D01*
X158245854Y-68791055D01*
X158226558Y-68807775D01*
X158069010Y-68918092D01*
X158040995Y-68937708D01*
X157873905Y-69104798D01*
X157738365Y-69298370D01*
X157638497Y-69512536D01*
X157577336Y-69740792D01*
X157556740Y-69976200D01*
X157577336Y-70211607D01*
X157610627Y-70335849D01*
X157638497Y-70439863D01*
X157738365Y-70654030D01*
X157873905Y-70847601D01*
X158040999Y-71014695D01*
X158226560Y-71144626D01*
X158270183Y-71199202D01*
X158277376Y-71268701D01*
X158245854Y-71331055D01*
X158226559Y-71347775D01*
X158040995Y-71477708D01*
X157873905Y-71644798D01*
X157738365Y-71838370D01*
X157638497Y-72052536D01*
X157577336Y-72280792D01*
X157556740Y-72516199D01*
X157577336Y-72751607D01*
X157622109Y-72918701D01*
X157638497Y-72979863D01*
X157738365Y-73194030D01*
X157873905Y-73387601D01*
X158040999Y-73554695D01*
X158226560Y-73684626D01*
X158270183Y-73739202D01*
X158277376Y-73808701D01*
X158245854Y-73871055D01*
X158226559Y-73887775D01*
X158040995Y-74017708D01*
X157873905Y-74184798D01*
X157738365Y-74378370D01*
X157638497Y-74592536D01*
X157577336Y-74820792D01*
X157556740Y-75056200D01*
X157577336Y-75291607D01*
X157604682Y-75393662D01*
X157638497Y-75519863D01*
X157738365Y-75734030D01*
X157873905Y-75927601D01*
X158040999Y-76094695D01*
X158226560Y-76224626D01*
X158270183Y-76279202D01*
X158277376Y-76348701D01*
X158245854Y-76411055D01*
X158226559Y-76427775D01*
X158040995Y-76557708D01*
X157873905Y-76724798D01*
X157738365Y-76918370D01*
X157638497Y-77132536D01*
X157577336Y-77360792D01*
X157556740Y-77596199D01*
X157577336Y-77831607D01*
X157604682Y-77933662D01*
X157638497Y-78059863D01*
X157738365Y-78274030D01*
X157873905Y-78467601D01*
X158040999Y-78634695D01*
X158226560Y-78764626D01*
X158270183Y-78819202D01*
X158277376Y-78888701D01*
X158245854Y-78951055D01*
X158226559Y-78967775D01*
X158040995Y-79097708D01*
X157873905Y-79264798D01*
X157738365Y-79458370D01*
X157638497Y-79672536D01*
X157577336Y-79900792D01*
X157556740Y-80136199D01*
X157577336Y-80371607D01*
X157622109Y-80538701D01*
X157638497Y-80599863D01*
X157738365Y-80814030D01*
X157873905Y-81007601D01*
X158040999Y-81174695D01*
X158226560Y-81304626D01*
X158270183Y-81359202D01*
X158277376Y-81428701D01*
X158245854Y-81491055D01*
X158226559Y-81507775D01*
X158040995Y-81637708D01*
X157873905Y-81804798D01*
X157738365Y-81998370D01*
X157638497Y-82212536D01*
X157577336Y-82440792D01*
X157556740Y-82676200D01*
X157577336Y-82911607D01*
X157622109Y-83078701D01*
X157638497Y-83139863D01*
X157738365Y-83354030D01*
X157873905Y-83547601D01*
X158040999Y-83714695D01*
X158226560Y-83844626D01*
X158270183Y-83899202D01*
X158277376Y-83968701D01*
X158245854Y-84031055D01*
X158226559Y-84047775D01*
X158040995Y-84177708D01*
X157873905Y-84344798D01*
X157738365Y-84538370D01*
X157638497Y-84752536D01*
X157577336Y-84980792D01*
X157556740Y-85216199D01*
X157577336Y-85451607D01*
X157622109Y-85618702D01*
X157638497Y-85679863D01*
X157738365Y-85894030D01*
X157873905Y-86087601D01*
X158040999Y-86254695D01*
X158226560Y-86384626D01*
X158270183Y-86439202D01*
X158277376Y-86508701D01*
X158245854Y-86571055D01*
X158226559Y-86587775D01*
X158040995Y-86717708D01*
X157873905Y-86884798D01*
X157738365Y-87078370D01*
X157638497Y-87292536D01*
X157577336Y-87520792D01*
X157556740Y-87756200D01*
X157577336Y-87991607D01*
X157610627Y-88115849D01*
X157638497Y-88219863D01*
X157738365Y-88434030D01*
X157873905Y-88627601D01*
X158040999Y-88794695D01*
X158226560Y-88924626D01*
X158270183Y-88979202D01*
X158277376Y-89048701D01*
X158245854Y-89111055D01*
X158226559Y-89127775D01*
X158040995Y-89257708D01*
X157873905Y-89424798D01*
X157738365Y-89618370D01*
X157638497Y-89832536D01*
X157577336Y-90060792D01*
X157556740Y-90296200D01*
X157577336Y-90531607D01*
X157622109Y-90698701D01*
X157638497Y-90759863D01*
X157738365Y-90974030D01*
X157873905Y-91167601D01*
X158040999Y-91334695D01*
X158226560Y-91464626D01*
X158270183Y-91519202D01*
X158277376Y-91588701D01*
X158245854Y-91651055D01*
X158226559Y-91667775D01*
X158040995Y-91797708D01*
X157873905Y-91964798D01*
X157738365Y-92158370D01*
X157638497Y-92372536D01*
X157577336Y-92600792D01*
X157556740Y-92836199D01*
X157577336Y-93071607D01*
X157622109Y-93238701D01*
X157638497Y-93299863D01*
X157738365Y-93514030D01*
X157873905Y-93707601D01*
X158040999Y-93874695D01*
X158226560Y-94004626D01*
X158270183Y-94059202D01*
X158277376Y-94128701D01*
X158245854Y-94191055D01*
X158226559Y-94207775D01*
X158040995Y-94337708D01*
X157873905Y-94504798D01*
X157738365Y-94698370D01*
X157638497Y-94912536D01*
X157577336Y-95140792D01*
X157556740Y-95376200D01*
X157577336Y-95611607D01*
X157622109Y-95778702D01*
X157638497Y-95839863D01*
X157738365Y-96054030D01*
X157873905Y-96247601D01*
X158040999Y-96414695D01*
X158226560Y-96544626D01*
X158270183Y-96599202D01*
X158277376Y-96668701D01*
X158245854Y-96731055D01*
X158226559Y-96747775D01*
X158040995Y-96877708D01*
X157873905Y-97044798D01*
X157738365Y-97238370D01*
X157638497Y-97452536D01*
X157577336Y-97680792D01*
X157556740Y-97916200D01*
X157577336Y-98151607D01*
X157588728Y-98194122D01*
X157638497Y-98379863D01*
X157738365Y-98594030D01*
X157873905Y-98787601D01*
X158040999Y-98954695D01*
X158226560Y-99084626D01*
X158270183Y-99139202D01*
X158277376Y-99208701D01*
X158245854Y-99271055D01*
X158226558Y-99287775D01*
X158143711Y-99345786D01*
X158040995Y-99417708D01*
X157873905Y-99584798D01*
X157738365Y-99778370D01*
X157638497Y-99992536D01*
X157577336Y-100220792D01*
X157556740Y-100456199D01*
X112016309Y-100456199D01*
X112018059Y-100436200D01*
X112013858Y-100388189D01*
X111997463Y-100200792D01*
X111936303Y-99972537D01*
X111836435Y-99758371D01*
X111700895Y-99564799D01*
X111533801Y-99397705D01*
X111348239Y-99267773D01*
X111304616Y-99213198D01*
X111297422Y-99143700D01*
X111328945Y-99081345D01*
X111348237Y-99064628D01*
X111533801Y-98934695D01*
X111700895Y-98767601D01*
X111836435Y-98574030D01*
X111936303Y-98359863D01*
X111997463Y-98131608D01*
X112018059Y-97896200D01*
X111997463Y-97660792D01*
X111936303Y-97432537D01*
X111836435Y-97218371D01*
X111700895Y-97024799D01*
X111533801Y-96857705D01*
X111348239Y-96727773D01*
X111304616Y-96673198D01*
X111297422Y-96603700D01*
X111328945Y-96541345D01*
X111348237Y-96524628D01*
X111533801Y-96394695D01*
X111700895Y-96227601D01*
X111836435Y-96034030D01*
X111936303Y-95819863D01*
X111997463Y-95591608D01*
X112018059Y-95356200D01*
X111997463Y-95120792D01*
X111936303Y-94892537D01*
X111836435Y-94678371D01*
X111700895Y-94484799D01*
X111533801Y-94317705D01*
X111348239Y-94187773D01*
X111304616Y-94133198D01*
X111297422Y-94063700D01*
X111328945Y-94001345D01*
X111348237Y-93984628D01*
X111533801Y-93854695D01*
X111700895Y-93687601D01*
X111836435Y-93494030D01*
X111936303Y-93279863D01*
X111997463Y-93051608D01*
X112018059Y-92816200D01*
X111997463Y-92580792D01*
X111936303Y-92352537D01*
X111836435Y-92138371D01*
X111700895Y-91944799D01*
X111533801Y-91777705D01*
X111348239Y-91647773D01*
X111304616Y-91593198D01*
X111297422Y-91523700D01*
X111328945Y-91461345D01*
X111348237Y-91444628D01*
X111533801Y-91314695D01*
X111700895Y-91147601D01*
X111836435Y-90954030D01*
X111936303Y-90739863D01*
X111997463Y-90511608D01*
X112018059Y-90276200D01*
X111997463Y-90040792D01*
X111936303Y-89812537D01*
X111836435Y-89598371D01*
X111700895Y-89404799D01*
X111533801Y-89237705D01*
X111348239Y-89107773D01*
X111304616Y-89053198D01*
X111297422Y-88983700D01*
X111328945Y-88921345D01*
X111348237Y-88904628D01*
X111533801Y-88774695D01*
X111700895Y-88607601D01*
X111836435Y-88414030D01*
X111936303Y-88199863D01*
X111980196Y-88036049D01*
X112016561Y-87976389D01*
X112079408Y-87945860D01*
X112148783Y-87954155D01*
X112202661Y-87998640D01*
X112207358Y-88006143D01*
X112297466Y-88162216D01*
X112424129Y-88302889D01*
X112577269Y-88414151D01*
X112750197Y-88491144D01*
X112935352Y-88530500D01*
X112935354Y-88530500D01*
X113124648Y-88530500D01*
X113248083Y-88504262D01*
X113309803Y-88491144D01*
X113482730Y-88414151D01*
X113635871Y-88302888D01*
X113641598Y-88296527D01*
X113701084Y-88259879D01*
X113733747Y-88255500D01*
X115259548Y-88255500D01*
X115326587Y-88275185D01*
X115347229Y-88291819D01*
X115901038Y-88845629D01*
X115934523Y-88906952D01*
X115936678Y-88920348D01*
X115954326Y-89088257D01*
X116012820Y-89268284D01*
X116107466Y-89432216D01*
X116234129Y-89572889D01*
X116387269Y-89684151D01*
X116560197Y-89761144D01*
X116745352Y-89800500D01*
X116745354Y-89800500D01*
X116934648Y-89800500D01*
X117058084Y-89774262D01*
X117119803Y-89761144D01*
X117292730Y-89684151D01*
X117324350Y-89661178D01*
X117445870Y-89572889D01*
X117572533Y-89432216D01*
X117667179Y-89268284D01*
X117712833Y-89127775D01*
X117725674Y-89088256D01*
X117745460Y-88900000D01*
X117725674Y-88711744D01*
X117667179Y-88531716D01*
X117667179Y-88531715D01*
X117572533Y-88367783D01*
X117445870Y-88227110D01*
X117292730Y-88115848D01*
X117119802Y-88038855D01*
X116934648Y-87999500D01*
X116934646Y-87999500D01*
X116875453Y-87999500D01*
X116808414Y-87979815D01*
X116787772Y-87963181D01*
X116070802Y-87246211D01*
X116057906Y-87230113D01*
X116006775Y-87182098D01*
X116003978Y-87179387D01*
X115987227Y-87162636D01*
X115984471Y-87159880D01*
X115981290Y-87157412D01*
X115972422Y-87149837D01*
X115940582Y-87119938D01*
X115923024Y-87110285D01*
X115906764Y-87099604D01*
X115890936Y-87087327D01*
X115850851Y-87069980D01*
X115840361Y-87064841D01*
X115802091Y-87043802D01*
X115782691Y-87038821D01*
X115764284Y-87032519D01*
X115745897Y-87024562D01*
X115702758Y-87017729D01*
X115691324Y-87015361D01*
X115649019Y-87004500D01*
X115628984Y-87004500D01*
X115609586Y-87002973D01*
X115602162Y-87001797D01*
X115589805Y-86999840D01*
X115589804Y-86999840D01*
X115556751Y-87002964D01*
X115546325Y-87003950D01*
X115534656Y-87004500D01*
X113733747Y-87004500D01*
X113666708Y-86984815D01*
X113641599Y-86963473D01*
X113635871Y-86957112D01*
X113482730Y-86845849D01*
X113482729Y-86845848D01*
X113482727Y-86845847D01*
X113309802Y-86768855D01*
X113124648Y-86729500D01*
X113124646Y-86729500D01*
X112935354Y-86729500D01*
X112935352Y-86729500D01*
X112750197Y-86768855D01*
X112577269Y-86845848D01*
X112424129Y-86957110D01*
X112297466Y-87097783D01*
X112202821Y-87261714D01*
X112184527Y-87318018D01*
X112145089Y-87375693D01*
X112080730Y-87402891D01*
X112011884Y-87390976D01*
X111960408Y-87343732D01*
X111946821Y-87311792D01*
X111936303Y-87272537D01*
X111836435Y-87058371D01*
X111700895Y-86864799D01*
X111533801Y-86697705D01*
X111348239Y-86567773D01*
X111304616Y-86513198D01*
X111297422Y-86443700D01*
X111328945Y-86381345D01*
X111348237Y-86364628D01*
X111533801Y-86234695D01*
X111700895Y-86067601D01*
X111836435Y-85874030D01*
X111936303Y-85659863D01*
X111997463Y-85431608D01*
X112018059Y-85196200D01*
X111997463Y-84960792D01*
X111936303Y-84732537D01*
X111836435Y-84518371D01*
X111700895Y-84324799D01*
X111533801Y-84157705D01*
X111348239Y-84027773D01*
X111304616Y-83973198D01*
X111297422Y-83903700D01*
X111328945Y-83841345D01*
X111348237Y-83824628D01*
X111533801Y-83694695D01*
X111700895Y-83527601D01*
X111836435Y-83334030D01*
X111936303Y-83119863D01*
X111997463Y-82891608D01*
X112018059Y-82656200D01*
X111997463Y-82420792D01*
X111936303Y-82192537D01*
X111836435Y-81978371D01*
X111700895Y-81784799D01*
X111533801Y-81617705D01*
X111348239Y-81487773D01*
X111304616Y-81433198D01*
X111297422Y-81363700D01*
X111328945Y-81301345D01*
X111348237Y-81284628D01*
X111533801Y-81154695D01*
X111700895Y-80987601D01*
X111836435Y-80794030D01*
X111936303Y-80579863D01*
X111997463Y-80351608D01*
X112018059Y-80116200D01*
X111997463Y-79880792D01*
X111936303Y-79652537D01*
X111836435Y-79438371D01*
X111700895Y-79244799D01*
X111533801Y-79077705D01*
X111348239Y-78947773D01*
X111304616Y-78893198D01*
X111297422Y-78823700D01*
X111328945Y-78761345D01*
X111348237Y-78744628D01*
X111533801Y-78614695D01*
X111700895Y-78447601D01*
X111836435Y-78254030D01*
X111936303Y-78039863D01*
X111997463Y-77811608D01*
X112018059Y-77576200D01*
X111997463Y-77340792D01*
X111936303Y-77112537D01*
X111836435Y-76898371D01*
X111700895Y-76704799D01*
X111533801Y-76537705D01*
X111348239Y-76407773D01*
X111304616Y-76353198D01*
X111297422Y-76283700D01*
X111328945Y-76221345D01*
X111348237Y-76204628D01*
X111533801Y-76074695D01*
X111700895Y-75907601D01*
X111836435Y-75714030D01*
X111936303Y-75499863D01*
X111997463Y-75271608D01*
X112018059Y-75036200D01*
X112008767Y-74930000D01*
X111997463Y-74800792D01*
X111969007Y-74694592D01*
X111936303Y-74572537D01*
X111836435Y-74358371D01*
X111700895Y-74164799D01*
X111533801Y-73997705D01*
X111348239Y-73867773D01*
X111304616Y-73813198D01*
X111297422Y-73743700D01*
X111328945Y-73681345D01*
X111348237Y-73664628D01*
X111533801Y-73534695D01*
X111700895Y-73367601D01*
X111836435Y-73174030D01*
X111936303Y-72959863D01*
X111997463Y-72731608D01*
X112018059Y-72496200D01*
X111997463Y-72260792D01*
X111936303Y-72032537D01*
X111836435Y-71818371D01*
X111700895Y-71624799D01*
X111533801Y-71457705D01*
X111348239Y-71327773D01*
X111304616Y-71273198D01*
X111297422Y-71203700D01*
X111328945Y-71141345D01*
X111348237Y-71124628D01*
X111533801Y-70994695D01*
X111700895Y-70827601D01*
X111836435Y-70634030D01*
X111936303Y-70419863D01*
X111997463Y-70191608D01*
X112018059Y-69956200D01*
X112016246Y-69935483D01*
X111997463Y-69720792D01*
X111974516Y-69635151D01*
X111936303Y-69492537D01*
X111836435Y-69278371D01*
X111700895Y-69084799D01*
X111533801Y-68917705D01*
X111348239Y-68787773D01*
X111304616Y-68733198D01*
X111297422Y-68663700D01*
X111328945Y-68601345D01*
X111348237Y-68584628D01*
X111533801Y-68454695D01*
X111700895Y-68287601D01*
X111836435Y-68094030D01*
X111936303Y-67879863D01*
X111997463Y-67651608D01*
X112018059Y-67416200D01*
X111997463Y-67180792D01*
X111936303Y-66952537D01*
X111836435Y-66738371D01*
X111700895Y-66544799D01*
X111533801Y-66377705D01*
X111348239Y-66247773D01*
X111304617Y-66193198D01*
X111297424Y-66123699D01*
X111328946Y-66061345D01*
X111348237Y-66044628D01*
X111533801Y-65914695D01*
X111700895Y-65747601D01*
X111836435Y-65554030D01*
X111936303Y-65339863D01*
X111997463Y-65111608D01*
X112018059Y-64876200D01*
X112008767Y-64770000D01*
X111997463Y-64640792D01*
X111969007Y-64534592D01*
X111936303Y-64412537D01*
X111836435Y-64198371D01*
X111700895Y-64004799D01*
X111533801Y-63837705D01*
X111348239Y-63707773D01*
X111304615Y-63653197D01*
X111297423Y-63583698D01*
X111328945Y-63521344D01*
X111348231Y-63504632D01*
X111533801Y-63374695D01*
X111700895Y-63207601D01*
X111836435Y-63014030D01*
X111936303Y-62799863D01*
X111997463Y-62571608D01*
X112018059Y-62336200D01*
X111997463Y-62100792D01*
X111936303Y-61872537D01*
X111836435Y-61658371D01*
X111700895Y-61464799D01*
X111533801Y-61297705D01*
X111348239Y-61167773D01*
X111304615Y-61113197D01*
X111297423Y-61043698D01*
X111328945Y-60981344D01*
X111348231Y-60964632D01*
X111533801Y-60834695D01*
X111700895Y-60667601D01*
X111836435Y-60474030D01*
X111936303Y-60259863D01*
X111997463Y-60031608D01*
X112018059Y-59796200D01*
X111997463Y-59560792D01*
X111936303Y-59332537D01*
X111836435Y-59118371D01*
X111700895Y-58924799D01*
X111533801Y-58757705D01*
X111348239Y-58627773D01*
X111304615Y-58573197D01*
X111297423Y-58503698D01*
X111328945Y-58441344D01*
X111348231Y-58424632D01*
X111533801Y-58294695D01*
X111700895Y-58127601D01*
X111836435Y-57934030D01*
X111936303Y-57719863D01*
X111997463Y-57491608D01*
X112018059Y-57256200D01*
X111997463Y-57020792D01*
X111936303Y-56792537D01*
X111836435Y-56578371D01*
X111700895Y-56384799D01*
X111533801Y-56217705D01*
X111348239Y-56087773D01*
X111304617Y-56033198D01*
X111297424Y-55963699D01*
X111328946Y-55901345D01*
X111348237Y-55884628D01*
X111533801Y-55754695D01*
X111700895Y-55587601D01*
X111836435Y-55394030D01*
X111936303Y-55179863D01*
X111997463Y-54951608D01*
X112018059Y-54716200D01*
X111997463Y-54480792D01*
X111936303Y-54252537D01*
X111836435Y-54038371D01*
X111700895Y-53844799D01*
X111533801Y-53677705D01*
X111348239Y-53547773D01*
X111304617Y-53493198D01*
X111297424Y-53423699D01*
X111328946Y-53361345D01*
X111348237Y-53344628D01*
X111533801Y-53214695D01*
X111700895Y-53047601D01*
X111836435Y-52854030D01*
X111936303Y-52639863D01*
X111997463Y-52411608D01*
X112018059Y-52176200D01*
X111997463Y-51940792D01*
X111936303Y-51712537D01*
X111836435Y-51498371D01*
X111700895Y-51304799D01*
X111533801Y-51137705D01*
X111348239Y-51007773D01*
X111304615Y-50953197D01*
X111297423Y-50883698D01*
X111328945Y-50821344D01*
X111348231Y-50804632D01*
X111533801Y-50674695D01*
X111700895Y-50507601D01*
X111836435Y-50314030D01*
X111936303Y-50099863D01*
X111997463Y-49871608D01*
X112018059Y-49636200D01*
X111997463Y-49400792D01*
X111936303Y-49172537D01*
X111836435Y-48958371D01*
X111700895Y-48764799D01*
X111533801Y-48597705D01*
X111348239Y-48467773D01*
X111304617Y-48413198D01*
X111297424Y-48343699D01*
X111328946Y-48281345D01*
X111348237Y-48264628D01*
X111533801Y-48134695D01*
X111700895Y-47967601D01*
X111836435Y-47774030D01*
X111936303Y-47559863D01*
X111997463Y-47331608D01*
X112018059Y-47096200D01*
X111997463Y-46860792D01*
X111936303Y-46632537D01*
X111836435Y-46418371D01*
X111700895Y-46224799D01*
X111533801Y-46057705D01*
X111348239Y-45927773D01*
X111304615Y-45873197D01*
X111297423Y-45803698D01*
X111328945Y-45741344D01*
X111348231Y-45724632D01*
X111533801Y-45594695D01*
X111700895Y-45427601D01*
X111836435Y-45234030D01*
X111936303Y-45019863D01*
X111997463Y-44791608D01*
X112018059Y-44556200D01*
X111997463Y-44320792D01*
X111936303Y-44092537D01*
X111836435Y-43878371D01*
X111700895Y-43684799D01*
X111578581Y-43562484D01*
X111545096Y-43501162D01*
X111550080Y-43431470D01*
X111591952Y-43375537D01*
X111622928Y-43358622D01*
X111754489Y-43309552D01*
X111869588Y-43223388D01*
X111955752Y-43108289D01*
X112005999Y-42973571D01*
X112012045Y-42917332D01*
X112012400Y-42910718D01*
X112012400Y-42266200D01*
X111096086Y-42266200D01*
X111121893Y-42226044D01*
X111162400Y-42088089D01*
X111162400Y-41944311D01*
X111121893Y-41806356D01*
X111096086Y-41766200D01*
X112012400Y-41766200D01*
X112012400Y-41121681D01*
X112012045Y-41115067D01*
X112005999Y-41058828D01*
X111955752Y-40924110D01*
X111869588Y-40809011D01*
X111754489Y-40722847D01*
X111619771Y-40672600D01*
X111563532Y-40666554D01*
X111556918Y-40666200D01*
X110912400Y-40666200D01*
X110912400Y-41580698D01*
X110804715Y-41531520D01*
X110698163Y-41516200D01*
X110626637Y-41516200D01*
X110520085Y-41531520D01*
X110412400Y-41580698D01*
X110412400Y-40666200D01*
X109767882Y-40666200D01*
X109761267Y-40666554D01*
X109705028Y-40672600D01*
X109570310Y-40722847D01*
X109455211Y-40809011D01*
X109369047Y-40924111D01*
X109319785Y-41056187D01*
X109277913Y-41112121D01*
X109212448Y-41136537D01*
X109144176Y-41121685D01*
X109115922Y-41100534D01*
X108993481Y-40978093D01*
X108799976Y-40842599D01*
X108585892Y-40742769D01*
X108372400Y-40685564D01*
X108372400Y-41580698D01*
X108264715Y-41531520D01*
X108158163Y-41516200D01*
X108086637Y-41516200D01*
X107980085Y-41531520D01*
X107872400Y-41580698D01*
X107872400Y-40685564D01*
X107872399Y-40685564D01*
X107658907Y-40742769D01*
X107444821Y-40842600D01*
X107251321Y-40978090D01*
X107084290Y-41145121D01*
X106948800Y-41338621D01*
X106848969Y-41552707D01*
X106791764Y-41766199D01*
X106791764Y-41766200D01*
X107688714Y-41766200D01*
X107662907Y-41806356D01*
X107622400Y-41944311D01*
X107622400Y-42088089D01*
X107662907Y-42226044D01*
X107688714Y-42266200D01*
X106791764Y-42266200D01*
X106848969Y-42479692D01*
X106948799Y-42693776D01*
X107084293Y-42887281D01*
X107251318Y-43054306D01*
X107436995Y-43184319D01*
X107480619Y-43238896D01*
X107487812Y-43308395D01*
X107456290Y-43370749D01*
X107436995Y-43387469D01*
X107250995Y-43517708D01*
X107083905Y-43684798D01*
X106948365Y-43878370D01*
X106848497Y-44092536D01*
X106787336Y-44320792D01*
X106766740Y-44556200D01*
X106787336Y-44791607D01*
X106818965Y-44909647D01*
X106848497Y-45019863D01*
X106948365Y-45234030D01*
X107083905Y-45427601D01*
X107250999Y-45594695D01*
X107436996Y-45724932D01*
X107480619Y-45779507D01*
X107487812Y-45849006D01*
X107456290Y-45911360D01*
X107436995Y-45928080D01*
X107251319Y-46058092D01*
X107084290Y-46225121D01*
X106948800Y-46418621D01*
X106848969Y-46632707D01*
X106791764Y-46846199D01*
X106791764Y-46846200D01*
X107688714Y-46846200D01*
X107662907Y-46886356D01*
X107622400Y-47024311D01*
X107622400Y-47168089D01*
X107662907Y-47306044D01*
X107688714Y-47346200D01*
X106791764Y-47346200D01*
X106848969Y-47559692D01*
X106948799Y-47773776D01*
X107084293Y-47967281D01*
X107251318Y-48134306D01*
X107436995Y-48264319D01*
X107480619Y-48318896D01*
X107487812Y-48388395D01*
X107456290Y-48450749D01*
X107436995Y-48467469D01*
X107250995Y-48597708D01*
X107083905Y-48764798D01*
X106948365Y-48958370D01*
X106848497Y-49172536D01*
X106787336Y-49400792D01*
X106766740Y-49636200D01*
X106787336Y-49871607D01*
X106832109Y-50038701D01*
X106848497Y-50099863D01*
X106948365Y-50314030D01*
X107083905Y-50507601D01*
X107250999Y-50674695D01*
X107436560Y-50804626D01*
X107480183Y-50859202D01*
X107487376Y-50928701D01*
X107455854Y-50991055D01*
X107436559Y-51007775D01*
X107250995Y-51137708D01*
X107083905Y-51304798D01*
X106948365Y-51498370D01*
X106848497Y-51712536D01*
X106787336Y-51940792D01*
X106766740Y-52176199D01*
X106787336Y-52411607D01*
X106832109Y-52578701D01*
X106848497Y-52639863D01*
X106948365Y-52854030D01*
X107083905Y-53047601D01*
X107250999Y-53214695D01*
X107436560Y-53344626D01*
X107480183Y-53399202D01*
X107487376Y-53468701D01*
X107455854Y-53531055D01*
X107436559Y-53547775D01*
X107250995Y-53677708D01*
X107083905Y-53844798D01*
X106948365Y-54038370D01*
X106848497Y-54252536D01*
X106787336Y-54480792D01*
X106766740Y-54716200D01*
X106787336Y-54951607D01*
X106832109Y-55118702D01*
X106848497Y-55179863D01*
X106948365Y-55394030D01*
X107083905Y-55587601D01*
X107250999Y-55754695D01*
X107436560Y-55884626D01*
X107480183Y-55939202D01*
X107487376Y-56008701D01*
X107455854Y-56071055D01*
X107436559Y-56087775D01*
X107250995Y-56217708D01*
X107083905Y-56384798D01*
X106948365Y-56578370D01*
X106848497Y-56792536D01*
X106787336Y-57020792D01*
X106766740Y-57256199D01*
X106787336Y-57491607D01*
X106832109Y-57658702D01*
X106848497Y-57719863D01*
X106948365Y-57934030D01*
X107083905Y-58127601D01*
X107250999Y-58294695D01*
X107436560Y-58424626D01*
X107480183Y-58479202D01*
X107487376Y-58548701D01*
X107455854Y-58611055D01*
X107436560Y-58627774D01*
X107286972Y-58732517D01*
X107250995Y-58757708D01*
X107083905Y-58924798D01*
X106948365Y-59118370D01*
X106848497Y-59332536D01*
X106787336Y-59560792D01*
X106766740Y-59796200D01*
X106787336Y-60031607D01*
X106832109Y-60198702D01*
X106848497Y-60259863D01*
X106948365Y-60474030D01*
X107083905Y-60667601D01*
X107250999Y-60834695D01*
X107436560Y-60964626D01*
X107480183Y-61019202D01*
X107487376Y-61088701D01*
X107455854Y-61151055D01*
X107436559Y-61167775D01*
X107250995Y-61297708D01*
X107083905Y-61464798D01*
X106948365Y-61658370D01*
X106848497Y-61872536D01*
X106787336Y-62100792D01*
X106766740Y-62336200D01*
X106787336Y-62571607D01*
X106820041Y-62693662D01*
X106848497Y-62799863D01*
X106948365Y-63014030D01*
X107083905Y-63207601D01*
X107250999Y-63374695D01*
X107436560Y-63504626D01*
X107480183Y-63559202D01*
X107487376Y-63628701D01*
X107455854Y-63691055D01*
X107436559Y-63707775D01*
X107250995Y-63837708D01*
X107083905Y-64004798D01*
X106948365Y-64198370D01*
X106848497Y-64412536D01*
X106787336Y-64640792D01*
X106766740Y-64876199D01*
X106787336Y-65111607D01*
X106820041Y-65233662D01*
X106848497Y-65339863D01*
X106948365Y-65554030D01*
X107083905Y-65747601D01*
X107250999Y-65914695D01*
X107436560Y-66044626D01*
X107480183Y-66099202D01*
X107487376Y-66168701D01*
X107455854Y-66231055D01*
X107436559Y-66247775D01*
X107250995Y-66377708D01*
X107083905Y-66544798D01*
X106948365Y-66738370D01*
X106848497Y-66952536D01*
X106787336Y-67180792D01*
X106766740Y-67416200D01*
X106787336Y-67651607D01*
X106820041Y-67773662D01*
X106848497Y-67879863D01*
X106948365Y-68094030D01*
X107083905Y-68287601D01*
X107250999Y-68454695D01*
X107436996Y-68584932D01*
X107480619Y-68639507D01*
X107487812Y-68709006D01*
X107456290Y-68771360D01*
X107436995Y-68788080D01*
X107251319Y-68918092D01*
X107084290Y-69085121D01*
X106948800Y-69278621D01*
X106848969Y-69492707D01*
X106791764Y-69706199D01*
X106791764Y-69706200D01*
X107688714Y-69706200D01*
X107662907Y-69746356D01*
X107622400Y-69884311D01*
X107622400Y-70028089D01*
X107662907Y-70166044D01*
X107688714Y-70206200D01*
X106791764Y-70206200D01*
X106848969Y-70419692D01*
X106948799Y-70633776D01*
X107084293Y-70827281D01*
X107251318Y-70994306D01*
X107436995Y-71124319D01*
X107480619Y-71178896D01*
X107487812Y-71248395D01*
X107456290Y-71310749D01*
X107436995Y-71327469D01*
X107250995Y-71457708D01*
X107083905Y-71624798D01*
X106948365Y-71818370D01*
X106848497Y-72032536D01*
X106787336Y-72260792D01*
X106766740Y-72496200D01*
X106787336Y-72731607D01*
X106829777Y-72890000D01*
X106848497Y-72959863D01*
X106948365Y-73174030D01*
X107083905Y-73367601D01*
X107250999Y-73534695D01*
X107436560Y-73664626D01*
X107480183Y-73719202D01*
X107487376Y-73788701D01*
X107455854Y-73851055D01*
X107436559Y-73867775D01*
X107250995Y-73997708D01*
X107083905Y-74164798D01*
X106948365Y-74358370D01*
X106848497Y-74572536D01*
X106787336Y-74800792D01*
X106766740Y-75036199D01*
X106787336Y-75271607D01*
X106820041Y-75393662D01*
X106848497Y-75499863D01*
X106948365Y-75714030D01*
X107083905Y-75907601D01*
X107250999Y-76074695D01*
X107436560Y-76204626D01*
X107480183Y-76259202D01*
X107487376Y-76328701D01*
X107455854Y-76391055D01*
X107436559Y-76407775D01*
X107250995Y-76537708D01*
X107083905Y-76704798D01*
X106948365Y-76898370D01*
X106848497Y-77112536D01*
X106787336Y-77340792D01*
X106766740Y-77576200D01*
X106787336Y-77811607D01*
X106820041Y-77933662D01*
X106848497Y-78039863D01*
X106948365Y-78254030D01*
X107083905Y-78447601D01*
X107250999Y-78614695D01*
X107436560Y-78744626D01*
X107480183Y-78799202D01*
X107487376Y-78868701D01*
X107455854Y-78931055D01*
X107436559Y-78947775D01*
X107250995Y-79077708D01*
X107083905Y-79244798D01*
X106948365Y-79438370D01*
X106848497Y-79652536D01*
X106787336Y-79880792D01*
X106766740Y-80116200D01*
X106787336Y-80351607D01*
X106832109Y-80518702D01*
X106848497Y-80579863D01*
X106948365Y-80794030D01*
X107083905Y-80987601D01*
X107250999Y-81154695D01*
X107436560Y-81284626D01*
X107480183Y-81339202D01*
X107487376Y-81408701D01*
X107455854Y-81471055D01*
X107436559Y-81487775D01*
X107250995Y-81617708D01*
X107083905Y-81784798D01*
X106948365Y-81978370D01*
X106848497Y-82192536D01*
X106787336Y-82420792D01*
X106766740Y-82656200D01*
X106787336Y-82891607D01*
X106832109Y-83058701D01*
X106848497Y-83119863D01*
X106948365Y-83334030D01*
X107083905Y-83527601D01*
X107250999Y-83694695D01*
X107436560Y-83824626D01*
X107480183Y-83879202D01*
X107487376Y-83948701D01*
X107455854Y-84011055D01*
X107436559Y-84027775D01*
X107250995Y-84157708D01*
X107083905Y-84324798D01*
X106948365Y-84518370D01*
X106848497Y-84732536D01*
X106787336Y-84960792D01*
X106766740Y-85196200D01*
X106787336Y-85431607D01*
X106832109Y-85598702D01*
X106848497Y-85659863D01*
X106948365Y-85874030D01*
X107083905Y-86067601D01*
X107250999Y-86234695D01*
X107436560Y-86364626D01*
X107480183Y-86419202D01*
X107487376Y-86488701D01*
X107455854Y-86551055D01*
X107436559Y-86567775D01*
X107250995Y-86697708D01*
X107083905Y-86864798D01*
X106948365Y-87058370D01*
X106848497Y-87272536D01*
X106787336Y-87500792D01*
X106766740Y-87736199D01*
X106787336Y-87971607D01*
X106825986Y-88115849D01*
X106848497Y-88199863D01*
X106948365Y-88414030D01*
X107083905Y-88607601D01*
X107250999Y-88774695D01*
X107436560Y-88904626D01*
X107480183Y-88959202D01*
X107487376Y-89028701D01*
X107455854Y-89091055D01*
X107436559Y-89107775D01*
X107250995Y-89237708D01*
X107083905Y-89404798D01*
X106948365Y-89598370D01*
X106848497Y-89812536D01*
X106787336Y-90040792D01*
X106766740Y-90276200D01*
X106787336Y-90511607D01*
X106832109Y-90678702D01*
X106848497Y-90739863D01*
X106948365Y-90954030D01*
X107083905Y-91147601D01*
X107250999Y-91314695D01*
X107436560Y-91444626D01*
X107480183Y-91499202D01*
X107487376Y-91568701D01*
X107455854Y-91631055D01*
X107436559Y-91647775D01*
X107250995Y-91777708D01*
X107083905Y-91944798D01*
X106948365Y-92138370D01*
X106848497Y-92352536D01*
X106787336Y-92580792D01*
X106766740Y-92816199D01*
X106787336Y-93051607D01*
X106832109Y-93218701D01*
X106848497Y-93279863D01*
X106948365Y-93494030D01*
X107083905Y-93687601D01*
X107250999Y-93854695D01*
X107436560Y-93984626D01*
X107480183Y-94039202D01*
X107487376Y-94108701D01*
X107455854Y-94171055D01*
X107436559Y-94187775D01*
X107250995Y-94317708D01*
X107083905Y-94484798D01*
X106948365Y-94678370D01*
X106848497Y-94892536D01*
X106787336Y-95120792D01*
X106766740Y-95356200D01*
X106787336Y-95591607D01*
X106832109Y-95758702D01*
X106848497Y-95819863D01*
X106948365Y-96034030D01*
X107083905Y-96227601D01*
X107250999Y-96394695D01*
X107436560Y-96524626D01*
X107480183Y-96579202D01*
X107487376Y-96648701D01*
X107455854Y-96711055D01*
X107436559Y-96727775D01*
X107250995Y-96857708D01*
X107083905Y-97024798D01*
X106948365Y-97218370D01*
X106848497Y-97432536D01*
X106787336Y-97660792D01*
X106766740Y-97896199D01*
X106787336Y-98131607D01*
X106804087Y-98194122D01*
X106848497Y-98359863D01*
X106948365Y-98574030D01*
X107083905Y-98767601D01*
X107250999Y-98934695D01*
X107436560Y-99064626D01*
X107480183Y-99119202D01*
X107487376Y-99188701D01*
X107455854Y-99251055D01*
X107436559Y-99267775D01*
X107250995Y-99397708D01*
X107083905Y-99564798D01*
X106948365Y-99758370D01*
X106848497Y-99972536D01*
X106787336Y-100200792D01*
X106766740Y-100436200D01*
X78990801Y-100436200D01*
X78953781Y-100390484D01*
X78679516Y-100116219D01*
X78378084Y-99872124D01*
X78052789Y-99660875D01*
X78049901Y-99659403D01*
X78049895Y-99659400D01*
X77710086Y-99486259D01*
X77710077Y-99486255D01*
X77707194Y-99484786D01*
X77704162Y-99483622D01*
X77348110Y-99346946D01*
X77348102Y-99346943D01*
X77345087Y-99345786D01*
X77341962Y-99344948D01*
X77341957Y-99344947D01*
X76973566Y-99246237D01*
X76973557Y-99246235D01*
X76970433Y-99245398D01*
X76967237Y-99244891D01*
X76967224Y-99244889D01*
X76590543Y-99185229D01*
X76590531Y-99185227D01*
X76587338Y-99184722D01*
X76584103Y-99184552D01*
X76584099Y-99184552D01*
X76203244Y-99164592D01*
X76200000Y-99164422D01*
X76196756Y-99164592D01*
X75815900Y-99184552D01*
X75815894Y-99184552D01*
X75812662Y-99184722D01*
X75809470Y-99185227D01*
X75809456Y-99185229D01*
X75432775Y-99244889D01*
X75432758Y-99244892D01*
X75429567Y-99245398D01*
X75426446Y-99246234D01*
X75426433Y-99246237D01*
X75058042Y-99344947D01*
X75058031Y-99344950D01*
X75054913Y-99345786D01*
X75051902Y-99346941D01*
X75051889Y-99346946D01*
X74695837Y-99483622D01*
X74695828Y-99483625D01*
X74692806Y-99484786D01*
X74689929Y-99486251D01*
X74689913Y-99486259D01*
X74350104Y-99659400D01*
X74350090Y-99659408D01*
X74347211Y-99660875D01*
X74344491Y-99662641D01*
X74344483Y-99662646D01*
X74024644Y-99870352D01*
X74024638Y-99870355D01*
X74021916Y-99872124D01*
X74019396Y-99874164D01*
X74019390Y-99874169D01*
X73723002Y-100114179D01*
X73722991Y-100114188D01*
X73720484Y-100116219D01*
X73718199Y-100118503D01*
X73718189Y-100118513D01*
X73448513Y-100388189D01*
X73448503Y-100388199D01*
X73446219Y-100390484D01*
X73444188Y-100392991D01*
X73444179Y-100393002D01*
X73204169Y-100689390D01*
X73204164Y-100689396D01*
X73202124Y-100691916D01*
X73200355Y-100694638D01*
X73200352Y-100694644D01*
X72992646Y-101014483D01*
X72992641Y-101014491D01*
X72990875Y-101017211D01*
X72989408Y-101020090D01*
X72989400Y-101020104D01*
X72816259Y-101359913D01*
X72816251Y-101359929D01*
X72814786Y-101362806D01*
X72813625Y-101365828D01*
X72813622Y-101365837D01*
X72676946Y-101721889D01*
X72676941Y-101721902D01*
X72675786Y-101724913D01*
X72674950Y-101728031D01*
X72674947Y-101728042D01*
X72576237Y-102096433D01*
X72576234Y-102096446D01*
X72575398Y-102099567D01*
X72574892Y-102102758D01*
X72574889Y-102102775D01*
X72515229Y-102479456D01*
X72515227Y-102479470D01*
X72514722Y-102482662D01*
X72514552Y-102485894D01*
X72514552Y-102485900D01*
X72505145Y-102665402D01*
X72494422Y-102870000D01*
X68580500Y-102870000D01*
X68580500Y-70931000D01*
X86224699Y-70931000D01*
X86243865Y-71162299D01*
X86243865Y-71162301D01*
X86243866Y-71162305D01*
X86291877Y-71351893D01*
X86300844Y-71387303D01*
X86394075Y-71599849D01*
X86425681Y-71648226D01*
X86445869Y-71715116D01*
X86426688Y-71782301D01*
X86396184Y-71815313D01*
X86372812Y-71832809D01*
X86286647Y-71947910D01*
X86236400Y-72082628D01*
X86230354Y-72138867D01*
X86230000Y-72145481D01*
X86230000Y-72840000D01*
X87254722Y-72840000D01*
X87206375Y-72923740D01*
X87176190Y-73055992D01*
X87186327Y-73191265D01*
X87235887Y-73317541D01*
X87253797Y-73340000D01*
X86230000Y-73340000D01*
X86230000Y-74034518D01*
X86230354Y-74041132D01*
X86236400Y-74097371D01*
X86286647Y-74232089D01*
X86372811Y-74347188D01*
X86487910Y-74433352D01*
X86622628Y-74483599D01*
X86678867Y-74489645D01*
X86685482Y-74490000D01*
X87380000Y-74490000D01*
X87380000Y-73464189D01*
X87432547Y-73500016D01*
X87562173Y-73540000D01*
X87663724Y-73540000D01*
X87764138Y-73524865D01*
X87880000Y-73469068D01*
X87880000Y-74490000D01*
X88574518Y-74490000D01*
X88581132Y-74489645D01*
X88637371Y-74483599D01*
X88772089Y-74433352D01*
X88887188Y-74347188D01*
X88973352Y-74232089D01*
X89023599Y-74097371D01*
X89029645Y-74041132D01*
X89030000Y-74034518D01*
X89030000Y-73340000D01*
X88005278Y-73340000D01*
X88053625Y-73256260D01*
X88083810Y-73124008D01*
X88073673Y-72988735D01*
X88024113Y-72862459D01*
X88006203Y-72840000D01*
X89030000Y-72840000D01*
X89030000Y-72145481D01*
X89029645Y-72138867D01*
X89023599Y-72082628D01*
X88973352Y-71947910D01*
X88887187Y-71832808D01*
X88863815Y-71815312D01*
X88821944Y-71759378D01*
X88816960Y-71689687D01*
X88834314Y-71648230D01*
X88865924Y-71599849D01*
X88959157Y-71387300D01*
X89016134Y-71162305D01*
X89035300Y-70931000D01*
X89016134Y-70699695D01*
X88959157Y-70474700D01*
X88865924Y-70262151D01*
X88738979Y-70067847D01*
X88617130Y-69935483D01*
X88586208Y-69872828D01*
X88594068Y-69803402D01*
X88617130Y-69767517D01*
X88641732Y-69740792D01*
X88738979Y-69635153D01*
X88865924Y-69440849D01*
X88959157Y-69228300D01*
X89016134Y-69003305D01*
X89035300Y-68772000D01*
X89016134Y-68540695D01*
X88959157Y-68315700D01*
X88865924Y-68103151D01*
X88738979Y-67908847D01*
X88617129Y-67776482D01*
X88586207Y-67713827D01*
X88594067Y-67644401D01*
X88617124Y-67608522D01*
X88738979Y-67476153D01*
X88865924Y-67281849D01*
X88959157Y-67069300D01*
X89016134Y-66844305D01*
X89035300Y-66613000D01*
X89016134Y-66381695D01*
X88959157Y-66156700D01*
X88865924Y-65944151D01*
X88738979Y-65749847D01*
X88581784Y-65579087D01*
X88398626Y-65436530D01*
X88194503Y-65326064D01*
X88194499Y-65326062D01*
X88194498Y-65326062D01*
X87974984Y-65250702D01*
X87803281Y-65222050D01*
X87746049Y-65212500D01*
X87513951Y-65212500D01*
X87468164Y-65220140D01*
X87285015Y-65250702D01*
X87065501Y-65326062D01*
X87065497Y-65326063D01*
X87065497Y-65326064D01*
X86949364Y-65388912D01*
X86861372Y-65436531D01*
X86678215Y-65579087D01*
X86521020Y-65749848D01*
X86394076Y-65944150D01*
X86300844Y-66156696D01*
X86300842Y-66156700D01*
X86300843Y-66156700D01*
X86244877Y-66377705D01*
X86243865Y-66381700D01*
X86224699Y-66613000D01*
X86243865Y-66844299D01*
X86243865Y-66844301D01*
X86243866Y-66844305D01*
X86300843Y-67069300D01*
X86394076Y-67281849D01*
X86521021Y-67476153D01*
X86625586Y-67589742D01*
X86642870Y-67608517D01*
X86673792Y-67671172D01*
X86665932Y-67740598D01*
X86642870Y-67776483D01*
X86521020Y-67908848D01*
X86394076Y-68103150D01*
X86300844Y-68315696D01*
X86300842Y-68315700D01*
X86300843Y-68315700D01*
X86258215Y-68484035D01*
X86243865Y-68540700D01*
X86224699Y-68771999D01*
X86243865Y-69003299D01*
X86243865Y-69003301D01*
X86243866Y-69003305D01*
X86300843Y-69228300D01*
X86300844Y-69228303D01*
X86331579Y-69298371D01*
X86394076Y-69440849D01*
X86521021Y-69635153D01*
X86618268Y-69740792D01*
X86642870Y-69767517D01*
X86673792Y-69830172D01*
X86665932Y-69899598D01*
X86642870Y-69935483D01*
X86521020Y-70067848D01*
X86394076Y-70262150D01*
X86300844Y-70474696D01*
X86300842Y-70474700D01*
X86300843Y-70474700D01*
X86253402Y-70662041D01*
X86243865Y-70699700D01*
X86224699Y-70931000D01*
X68580500Y-70931000D01*
X68580500Y-41910000D01*
X72494422Y-41910000D01*
X72494592Y-41913243D01*
X72510985Y-42226044D01*
X72514722Y-42297338D01*
X72515227Y-42300531D01*
X72515229Y-42300543D01*
X72574889Y-42677224D01*
X72574891Y-42677237D01*
X72575398Y-42680433D01*
X72576235Y-42683557D01*
X72576237Y-42683566D01*
X72674947Y-43051957D01*
X72675786Y-43055087D01*
X72676943Y-43058102D01*
X72676946Y-43058110D01*
X72804635Y-43390749D01*
X72814786Y-43417194D01*
X72816255Y-43420077D01*
X72816259Y-43420086D01*
X72989400Y-43759895D01*
X72990875Y-43762789D01*
X73202124Y-44088084D01*
X73204169Y-44090609D01*
X73401656Y-44334486D01*
X73446219Y-44389516D01*
X73720484Y-44663781D01*
X74021916Y-44907876D01*
X74347211Y-45119125D01*
X74350104Y-45120599D01*
X74589829Y-45242745D01*
X74692806Y-45295214D01*
X75054913Y-45434214D01*
X75429567Y-45534602D01*
X75812662Y-45595278D01*
X76200000Y-45615578D01*
X76587338Y-45595278D01*
X76970433Y-45534602D01*
X77345087Y-45434214D01*
X77707194Y-45295214D01*
X78052789Y-45119125D01*
X78378084Y-44907876D01*
X78679516Y-44663781D01*
X78953781Y-44389516D01*
X79197876Y-44088084D01*
X79409125Y-43762789D01*
X79585214Y-43417194D01*
X79724214Y-43055087D01*
X79824602Y-42680433D01*
X79885278Y-42297338D01*
X79905578Y-41910000D01*
X79885278Y-41522662D01*
X79824602Y-41139567D01*
X79724214Y-40764913D01*
X79585214Y-40402806D01*
X79409125Y-40057211D01*
X79197876Y-39731916D01*
X78953781Y-39430484D01*
X78679516Y-39156219D01*
X78627335Y-39113964D01*
X78405907Y-38934655D01*
X78378084Y-38912124D01*
X78052789Y-38700875D01*
X78049901Y-38699403D01*
X78049895Y-38699400D01*
X77710086Y-38526259D01*
X77710077Y-38526255D01*
X77707194Y-38524786D01*
X77704162Y-38523622D01*
X77348110Y-38386946D01*
X77348102Y-38386943D01*
X77345087Y-38385786D01*
X77341962Y-38384948D01*
X77341957Y-38384947D01*
X76973566Y-38286237D01*
X76973557Y-38286235D01*
X76970433Y-38285398D01*
X76967237Y-38284891D01*
X76967224Y-38284889D01*
X76590543Y-38225229D01*
X76590531Y-38225227D01*
X76587338Y-38224722D01*
X76584103Y-38224552D01*
X76584099Y-38224552D01*
X76203244Y-38204592D01*
X76200000Y-38204422D01*
X76196756Y-38204592D01*
X75815900Y-38224552D01*
X75815894Y-38224552D01*
X75812662Y-38224722D01*
X75809470Y-38225227D01*
X75809456Y-38225229D01*
X75432775Y-38284889D01*
X75432758Y-38284892D01*
X75429567Y-38285398D01*
X75426446Y-38286234D01*
X75426433Y-38286237D01*
X75058042Y-38384947D01*
X75058031Y-38384950D01*
X75054913Y-38385786D01*
X75051902Y-38386941D01*
X75051889Y-38386946D01*
X74695837Y-38523622D01*
X74695828Y-38523625D01*
X74692806Y-38524786D01*
X74689929Y-38526251D01*
X74689913Y-38526259D01*
X74350104Y-38699400D01*
X74350090Y-38699408D01*
X74347211Y-38700875D01*
X74344491Y-38702641D01*
X74344483Y-38702646D01*
X74024644Y-38910352D01*
X74024638Y-38910355D01*
X74021916Y-38912124D01*
X74019396Y-38914164D01*
X74019390Y-38914169D01*
X73723002Y-39154179D01*
X73722991Y-39154188D01*
X73720484Y-39156219D01*
X73718199Y-39158503D01*
X73718189Y-39158513D01*
X73448513Y-39428189D01*
X73448503Y-39428199D01*
X73446219Y-39430484D01*
X73444188Y-39432991D01*
X73444179Y-39433002D01*
X73204169Y-39729390D01*
X73204164Y-39729396D01*
X73202124Y-39731916D01*
X73200355Y-39734638D01*
X73200352Y-39734644D01*
X72992646Y-40054483D01*
X72992641Y-40054491D01*
X72990875Y-40057211D01*
X72989408Y-40060090D01*
X72989400Y-40060104D01*
X72816259Y-40399913D01*
X72816251Y-40399929D01*
X72814786Y-40402806D01*
X72813625Y-40405828D01*
X72813622Y-40405837D01*
X72676946Y-40761889D01*
X72676941Y-40761902D01*
X72675786Y-40764913D01*
X72674950Y-40768031D01*
X72674947Y-40768042D01*
X72576237Y-41136433D01*
X72576234Y-41136446D01*
X72575398Y-41139567D01*
X72574892Y-41142758D01*
X72574889Y-41142775D01*
X72515229Y-41519456D01*
X72515227Y-41519470D01*
X72514722Y-41522662D01*
X72514552Y-41525894D01*
X72514552Y-41525900D01*
X72506512Y-41679313D01*
X72494422Y-41910000D01*
X68580500Y-41910000D01*
X68580500Y-41445513D01*
X68580705Y-41444815D01*
X68580511Y-41396462D01*
X68580602Y-41391193D01*
X68581856Y-41358621D01*
X68588999Y-41173108D01*
X68589325Y-41165121D01*
X68597061Y-40975405D01*
X68597880Y-40965380D01*
X68624709Y-40747190D01*
X68650533Y-40548642D01*
X68652112Y-40539315D01*
X68696880Y-40325305D01*
X68740539Y-40128089D01*
X68742758Y-40119536D01*
X68805196Y-39910359D01*
X68866400Y-39716885D01*
X68869160Y-39709090D01*
X68948419Y-39507105D01*
X68949346Y-39504815D01*
X69027165Y-39318107D01*
X69030340Y-39311115D01*
X69126146Y-39116670D01*
X69127522Y-39113964D01*
X69221654Y-38934655D01*
X69225155Y-38928434D01*
X69336851Y-38742798D01*
X69338699Y-38739829D01*
X69448411Y-38569393D01*
X69452095Y-38563994D01*
X69578885Y-38388455D01*
X69581391Y-38385110D01*
X69705718Y-38225071D01*
X69709517Y-38220419D01*
X69850519Y-38056170D01*
X69853731Y-38052576D01*
X69991749Y-37904124D01*
X69995478Y-37900286D01*
X70149745Y-37748424D01*
X70153664Y-37744734D01*
X70304296Y-37609037D01*
X70307830Y-37605977D01*
X70474364Y-37467497D01*
X70479024Y-37463811D01*
X70641008Y-37342004D01*
X70644406Y-37339541D01*
X70821909Y-37215528D01*
X70827385Y-37211917D01*
X70999473Y-37104926D01*
X71002494Y-37103110D01*
X71189879Y-36994333D01*
X71196163Y-36990927D01*
X71376906Y-36899635D01*
X71379689Y-36898274D01*
X71575496Y-36805591D01*
X71582618Y-36802489D01*
X71770665Y-36727556D01*
X71772768Y-36726743D01*
X71976050Y-36650638D01*
X71983840Y-36648018D01*
X72178307Y-36589844D01*
X72388406Y-36530709D01*
X72396998Y-36528623D01*
X72594866Y-36488069D01*
X72809568Y-36446665D01*
X72818909Y-36445234D01*
X73017832Y-36422532D01*
X73236447Y-36399131D01*
X73246443Y-36398471D01*
X73438997Y-36393636D01*
X73663216Y-36388528D01*
X73668244Y-36388517D01*
X73708601Y-36389243D01*
X73716263Y-36388452D01*
X187183046Y-36373300D01*
X187188154Y-36373405D01*
G37*
%TD.AperFunction*%
%TD*%
M02*
