%TF.GenerationSoftware,KiCad,Pcbnew,7.0.2*%
%TF.CreationDate,2023-05-29T15:59:34-06:00*%
%TF.ProjectId,PCB_Design,5043425f-4465-4736-9967-6e2e6b696361,rev?*%
%TF.SameCoordinates,Original*%
%TF.FileFunction,Soldermask,Top*%
%TF.FilePolarity,Negative*%
%FSLAX46Y46*%
G04 Gerber Fmt 4.6, Leading zero omitted, Abs format (unit mm)*
G04 Created by KiCad (PCBNEW 7.0.2) date 2023-05-29 15:59:34*
%MOMM*%
%LPD*%
G01*
G04 APERTURE LIST*
%ADD10R,1.700000X1.700000*%
%ADD11O,1.700000X1.700000*%
%ADD12C,6.400000*%
%ADD13R,1.800000X1.800000*%
%ADD14C,1.800000*%
G04 APERTURE END LIST*
D10*
%TO.C,J2*%
X161452400Y-42036200D03*
D11*
X158912400Y-42036200D03*
X161452400Y-44576200D03*
X158912400Y-44576200D03*
X161452400Y-47116200D03*
X158912400Y-47116200D03*
X161452400Y-49656200D03*
X158912400Y-49656200D03*
X161452400Y-52196200D03*
X158912400Y-52196200D03*
X161452400Y-54736200D03*
X158912400Y-54736200D03*
X161452400Y-57276200D03*
X158912400Y-57276200D03*
X161452400Y-59816200D03*
X158912400Y-59816200D03*
X161452400Y-62356200D03*
X158912400Y-62356200D03*
X161452400Y-64896200D03*
X158912400Y-64896200D03*
X161452400Y-67436200D03*
X158912400Y-67436200D03*
X161452400Y-69976200D03*
X158912400Y-69976200D03*
X161452400Y-72516200D03*
X158912400Y-72516200D03*
X161452400Y-75056200D03*
X158912400Y-75056200D03*
X161452400Y-77596200D03*
X158912400Y-77596200D03*
X161452400Y-80136200D03*
X158912400Y-80136200D03*
X161452400Y-82676200D03*
X158912400Y-82676200D03*
X161452400Y-85216200D03*
X158912400Y-85216200D03*
X161452400Y-87756200D03*
X158912400Y-87756200D03*
X161452400Y-90296200D03*
X158912400Y-90296200D03*
X161452400Y-92836200D03*
X158912400Y-92836200D03*
X161452400Y-95376200D03*
X158912400Y-95376200D03*
X161452400Y-97916200D03*
X158912400Y-97916200D03*
X161452400Y-100456200D03*
X158912400Y-100456200D03*
X161452400Y-102996200D03*
X158912400Y-102996200D03*
%TD*%
D12*
%TO.C,H3*%
X185699400Y-101879400D03*
%TD*%
D13*
%TO.C,RGB_LED*%
X87630000Y-73090000D03*
D14*
X87630000Y-70931000D03*
X87630000Y-68772000D03*
X87630000Y-66613000D03*
%TD*%
D10*
%TO.C,J1*%
X110662400Y-42016200D03*
D11*
X108122400Y-42016200D03*
X110662400Y-44556200D03*
X108122400Y-44556200D03*
X110662400Y-47096200D03*
X108122400Y-47096200D03*
X110662400Y-49636200D03*
X108122400Y-49636200D03*
X110662400Y-52176200D03*
X108122400Y-52176200D03*
X110662400Y-54716200D03*
X108122400Y-54716200D03*
X110662400Y-57256200D03*
X108122400Y-57256200D03*
X110662400Y-59796200D03*
X108122400Y-59796200D03*
X110662400Y-62336200D03*
X108122400Y-62336200D03*
X110662400Y-64876200D03*
X108122400Y-64876200D03*
X110662400Y-67416200D03*
X108122400Y-67416200D03*
X110662400Y-69956200D03*
X108122400Y-69956200D03*
X110662400Y-72496200D03*
X108122400Y-72496200D03*
X110662400Y-75036200D03*
X108122400Y-75036200D03*
X110662400Y-77576200D03*
X108122400Y-77576200D03*
X110662400Y-80116200D03*
X108122400Y-80116200D03*
X110662400Y-82656200D03*
X108122400Y-82656200D03*
X110662400Y-85196200D03*
X108122400Y-85196200D03*
X110662400Y-87736200D03*
X108122400Y-87736200D03*
X110662400Y-90276200D03*
X108122400Y-90276200D03*
X110662400Y-92816200D03*
X108122400Y-92816200D03*
X110662400Y-95356200D03*
X108122400Y-95356200D03*
X110662400Y-97896200D03*
X108122400Y-97896200D03*
X110662400Y-100436200D03*
X108122400Y-100436200D03*
X110662400Y-102976200D03*
X108122400Y-102976200D03*
%TD*%
D10*
%TO.C,RC522*%
X181610000Y-59690000D03*
D11*
X181610000Y-62230000D03*
X181610000Y-64770000D03*
X181610000Y-67310000D03*
X181610000Y-69850000D03*
X181610000Y-72390000D03*
X181610000Y-74930000D03*
X181610000Y-77470000D03*
%TD*%
D12*
%TO.C,H4*%
X76200000Y-102870000D03*
%TD*%
%TO.C,H1*%
X76200000Y-41910000D03*
%TD*%
%TO.C,H2*%
X185699400Y-42824400D03*
%TD*%
M02*
