%TF.GenerationSoftware,KiCad,Pcbnew,7.0.2*%
%TF.CreationDate,2023-05-29T16:26:05-06:00*%
%TF.ProjectId,PCB_Design,5043425f-4465-4736-9967-6e2e6b696361,rev?*%
%TF.SameCoordinates,Original*%
%TF.FileFunction,Copper,L1,Top*%
%TF.FilePolarity,Positive*%
%FSLAX46Y46*%
G04 Gerber Fmt 4.6, Leading zero omitted, Abs format (unit mm)*
G04 Created by KiCad (PCBNEW 7.0.2) date 2023-05-29 16:26:05*
%MOMM*%
%LPD*%
G01*
G04 APERTURE LIST*
G04 Aperture macros list*
%AMRoundRect*
0 Rectangle with rounded corners*
0 $1 Rounding radius*
0 $2 $3 $4 $5 $6 $7 $8 $9 X,Y pos of 4 corners*
0 Add a 4 corners polygon primitive as box body*
4,1,4,$2,$3,$4,$5,$6,$7,$8,$9,$2,$3,0*
0 Add four circle primitives for the rounded corners*
1,1,$1+$1,$2,$3*
1,1,$1+$1,$4,$5*
1,1,$1+$1,$6,$7*
1,1,$1+$1,$8,$9*
0 Add four rect primitives between the rounded corners*
20,1,$1+$1,$2,$3,$4,$5,0*
20,1,$1+$1,$4,$5,$6,$7,0*
20,1,$1+$1,$6,$7,$8,$9,0*
20,1,$1+$1,$8,$9,$2,$3,0*%
G04 Aperture macros list end*
%TA.AperFunction,ComponentPad*%
%ADD10R,1.700000X1.700000*%
%TD*%
%TA.AperFunction,ComponentPad*%
%ADD11O,1.700000X1.700000*%
%TD*%
%TA.AperFunction,ComponentPad*%
%ADD12C,6.400000*%
%TD*%
%TA.AperFunction,SMDPad,CuDef*%
%ADD13RoundRect,0.100000X0.130000X0.100000X-0.130000X0.100000X-0.130000X-0.100000X0.130000X-0.100000X0*%
%TD*%
%TA.AperFunction,ComponentPad*%
%ADD14R,1.800000X1.800000*%
%TD*%
%TA.AperFunction,ComponentPad*%
%ADD15C,1.800000*%
%TD*%
%TA.AperFunction,ViaPad*%
%ADD16C,0.800000*%
%TD*%
%TA.AperFunction,Conductor*%
%ADD17C,0.250000*%
%TD*%
%TA.AperFunction,Conductor*%
%ADD18C,0.203200*%
%TD*%
G04 APERTURE END LIST*
D10*
%TO.P,J2,1,Pin_1*%
%TO.N,GND*%
X161452400Y-42036200D03*
D11*
%TO.P,J2,2,Pin_2*%
%TO.N,unconnected-(J2-Pin_2-Pad2)*%
X158912400Y-42036200D03*
%TO.P,J2,3,Pin_3*%
%TO.N,unconnected-(J2-Pin_3-Pad3)*%
X161452400Y-44576200D03*
%TO.P,J2,4,Pin_4*%
%TO.N,unconnected-(J2-Pin_4-Pad4)*%
X158912400Y-44576200D03*
%TO.P,J2,5,Pin_5*%
%TO.N,+3V0*%
X161452400Y-47116200D03*
%TO.P,J2,6,Pin_6*%
%TO.N,unconnected-(J2-Pin_6-Pad6)*%
X158912400Y-47116200D03*
%TO.P,J2,7,Pin_7*%
%TO.N,unconnected-(J2-Pin_7-Pad7)*%
X161452400Y-49656200D03*
%TO.P,J2,8,Pin_8*%
%TO.N,unconnected-(J2-Pin_8-Pad8)*%
X158912400Y-49656200D03*
%TO.P,J2,9,Pin_9*%
%TO.N,unconnected-(J2-Pin_9-Pad9)*%
X161452400Y-52196200D03*
%TO.P,J2,10,Pin_10*%
%TO.N,unconnected-(J2-Pin_10-Pad10)*%
X158912400Y-52196200D03*
%TO.P,J2,11,Pin_11*%
%TO.N,unconnected-(J2-Pin_11-Pad11)*%
X161452400Y-54736200D03*
%TO.P,J2,12,Pin_12*%
%TO.N,unconnected-(J2-Pin_12-Pad12)*%
X158912400Y-54736200D03*
%TO.P,J2,13,Pin_13*%
%TO.N,unconnected-(J2-Pin_13-Pad13)*%
X161452400Y-57276200D03*
%TO.P,J2,14,Pin_14*%
%TO.N,unconnected-(J2-Pin_14-Pad14)*%
X158912400Y-57276200D03*
%TO.P,J2,15,Pin_15*%
%TO.N,unconnected-(J2-Pin_15-Pad15)*%
X161452400Y-59816200D03*
%TO.P,J2,16,Pin_16*%
%TO.N,unconnected-(J2-Pin_16-Pad16)*%
X158912400Y-59816200D03*
%TO.P,J2,17,Pin_17*%
%TO.N,unconnected-(J2-Pin_17-Pad17)*%
X161452400Y-62356200D03*
%TO.P,J2,18,Pin_18*%
%TO.N,unconnected-(J2-Pin_18-Pad18)*%
X158912400Y-62356200D03*
%TO.P,J2,19,Pin_19*%
%TO.N,unconnected-(J2-Pin_19-Pad19)*%
X161452400Y-64896200D03*
%TO.P,J2,20,Pin_20*%
%TO.N,unconnected-(J2-Pin_20-Pad20)*%
X158912400Y-64896200D03*
%TO.P,J2,21,Pin_21*%
%TO.N,unconnected-(J2-Pin_21-Pad21)*%
X161452400Y-67436200D03*
%TO.P,J2,22,Pin_22*%
%TO.N,unconnected-(J2-Pin_22-Pad22)*%
X158912400Y-67436200D03*
%TO.P,J2,23,Pin_23*%
%TO.N,SDA*%
X161452400Y-69976200D03*
%TO.P,J2,24,Pin_24*%
%TO.N,unconnected-(J2-Pin_24-Pad24)*%
X158912400Y-69976200D03*
%TO.P,J2,25,Pin_25*%
%TO.N,MOSI*%
X161452400Y-72516200D03*
%TO.P,J2,26,Pin_26*%
%TO.N,MISO*%
X158912400Y-72516200D03*
%TO.P,J2,27,Pin_27*%
%TO.N,SCK*%
X161452400Y-75056200D03*
%TO.P,J2,28,Pin_28*%
%TO.N,unconnected-(J2-Pin_28-Pad28)*%
X158912400Y-75056200D03*
%TO.P,J2,29,Pin_29*%
%TO.N,unconnected-(J2-Pin_29-Pad29)*%
X161452400Y-77596200D03*
%TO.P,J2,30,Pin_30*%
%TO.N,unconnected-(J2-Pin_30-Pad30)*%
X158912400Y-77596200D03*
%TO.P,J2,31,Pin_31*%
%TO.N,unconnected-(J2-Pin_31-Pad31)*%
X161452400Y-80136200D03*
%TO.P,J2,32,Pin_32*%
%TO.N,unconnected-(J2-Pin_32-Pad32)*%
X158912400Y-80136200D03*
%TO.P,J2,33,Pin_33*%
%TO.N,unconnected-(J2-Pin_33-Pad33)*%
X161452400Y-82676200D03*
%TO.P,J2,34,Pin_34*%
%TO.N,unconnected-(J2-Pin_34-Pad34)*%
X158912400Y-82676200D03*
%TO.P,J2,35,Pin_35*%
%TO.N,unconnected-(J2-Pin_35-Pad35)*%
X161452400Y-85216200D03*
%TO.P,J2,36,Pin_36*%
%TO.N,unconnected-(J2-Pin_36-Pad36)*%
X158912400Y-85216200D03*
%TO.P,J2,37,Pin_37*%
%TO.N,unconnected-(J2-Pin_37-Pad37)*%
X161452400Y-87756200D03*
%TO.P,J2,38,Pin_38*%
%TO.N,unconnected-(J2-Pin_38-Pad38)*%
X158912400Y-87756200D03*
%TO.P,J2,39,Pin_39*%
%TO.N,unconnected-(J2-Pin_39-Pad39)*%
X161452400Y-90296200D03*
%TO.P,J2,40,Pin_40*%
%TO.N,unconnected-(J2-Pin_40-Pad40)*%
X158912400Y-90296200D03*
%TO.P,J2,41,Pin_41*%
%TO.N,unconnected-(J2-Pin_41-Pad41)*%
X161452400Y-92836200D03*
%TO.P,J2,42,Pin_42*%
%TO.N,unconnected-(J2-Pin_42-Pad42)*%
X158912400Y-92836200D03*
%TO.P,J2,43,Pin_43*%
%TO.N,unconnected-(J2-Pin_43-Pad43)*%
X161452400Y-95376200D03*
%TO.P,J2,44,Pin_44*%
%TO.N,unconnected-(J2-Pin_44-Pad44)*%
X158912400Y-95376200D03*
%TO.P,J2,45,Pin_45*%
%TO.N,unconnected-(J2-Pin_45-Pad45)*%
X161452400Y-97916200D03*
%TO.P,J2,46,Pin_46*%
%TO.N,unconnected-(J2-Pin_46-Pad46)*%
X158912400Y-97916200D03*
%TO.P,J2,47,Pin_47*%
%TO.N,unconnected-(J2-Pin_47-Pad47)*%
X161452400Y-100456200D03*
%TO.P,J2,48,Pin_48*%
%TO.N,unconnected-(J2-Pin_48-Pad48)*%
X158912400Y-100456200D03*
%TO.P,J2,49,Pin_49*%
%TO.N,unconnected-(J2-Pin_49-Pad49)*%
X161452400Y-102996200D03*
%TO.P,J2,50,Pin_50*%
%TO.N,unconnected-(J2-Pin_50-Pad50)*%
X158912400Y-102996200D03*
%TD*%
D12*
%TO.P,H3,1*%
%TO.N,N/C*%
X185699400Y-101879400D03*
%TD*%
D13*
%TO.P,R2,1*%
%TO.N,Green*%
X95480784Y-69850000D03*
%TO.P,R2,2*%
%TO.N,Net-(D1-GK)*%
X94840784Y-69850000D03*
%TD*%
%TO.P,R1,1*%
%TO.N,Red*%
X95718789Y-74748890D03*
%TO.P,R1,2*%
%TO.N,Net-(D1-RK)*%
X95078789Y-74748890D03*
%TD*%
D10*
%TO.P,J1,1,Pin_1*%
%TO.N,unconnected-(J1-Pin_1-Pad1)*%
X110662400Y-42016200D03*
D11*
%TO.P,J1,2,Pin_2*%
%TO.N,unconnected-(J1-Pin_2-Pad2)*%
X108122400Y-42016200D03*
%TO.P,J1,3,Pin_3*%
%TO.N,unconnected-(J1-Pin_3-Pad3)*%
X110662400Y-44556200D03*
%TO.P,J1,4,Pin_4*%
%TO.N,unconnected-(J1-Pin_4-Pad4)*%
X108122400Y-44556200D03*
%TO.P,J1,5,Pin_5*%
%TO.N,unconnected-(J1-Pin_5-Pad5)*%
X110662400Y-47096200D03*
%TO.P,J1,6,Pin_6*%
%TO.N,unconnected-(J1-Pin_6-Pad6)*%
X108122400Y-47096200D03*
%TO.P,J1,7,Pin_7*%
%TO.N,unconnected-(J1-Pin_7-Pad7)*%
X110662400Y-49636200D03*
%TO.P,J1,8,Pin_8*%
%TO.N,unconnected-(J1-Pin_8-Pad8)*%
X108122400Y-49636200D03*
%TO.P,J1,9,Pin_9*%
%TO.N,unconnected-(J1-Pin_9-Pad9)*%
X110662400Y-52176200D03*
%TO.P,J1,10,Pin_10*%
%TO.N,unconnected-(J1-Pin_10-Pad10)*%
X108122400Y-52176200D03*
%TO.P,J1,11,Pin_11*%
%TO.N,unconnected-(J1-Pin_11-Pad11)*%
X110662400Y-54716200D03*
%TO.P,J1,12,Pin_12*%
%TO.N,unconnected-(J1-Pin_12-Pad12)*%
X108122400Y-54716200D03*
%TO.P,J1,13,Pin_13*%
%TO.N,unconnected-(J1-Pin_13-Pad13)*%
X110662400Y-57256200D03*
%TO.P,J1,14,Pin_14*%
%TO.N,unconnected-(J1-Pin_14-Pad14)*%
X108122400Y-57256200D03*
%TO.P,J1,15,Pin_15*%
%TO.N,unconnected-(J1-Pin_15-Pad15)*%
X110662400Y-59796200D03*
%TO.P,J1,16,Pin_16*%
%TO.N,unconnected-(J1-Pin_16-Pad16)*%
X108122400Y-59796200D03*
%TO.P,J1,17,Pin_17*%
%TO.N,unconnected-(J1-Pin_17-Pad17)*%
X110662400Y-62336200D03*
%TO.P,J1,18,Pin_18*%
%TO.N,unconnected-(J1-Pin_18-Pad18)*%
X108122400Y-62336200D03*
%TO.P,J1,19,Pin_19*%
%TO.N,unconnected-(J1-Pin_19-Pad19)*%
X110662400Y-64876200D03*
%TO.P,J1,20,Pin_20*%
%TO.N,unconnected-(J1-Pin_20-Pad20)*%
X108122400Y-64876200D03*
%TO.P,J1,21,Pin_21*%
%TO.N,unconnected-(J1-Pin_21-Pad21)*%
X110662400Y-67416200D03*
%TO.P,J1,22,Pin_22*%
%TO.N,unconnected-(J1-Pin_22-Pad22)*%
X108122400Y-67416200D03*
%TO.P,J1,23,Pin_23*%
%TO.N,unconnected-(J1-Pin_23-Pad23)*%
X110662400Y-69956200D03*
%TO.P,J1,24,Pin_24*%
%TO.N,GND*%
X108122400Y-69956200D03*
%TO.P,J1,25,Pin_25*%
%TO.N,unconnected-(J1-Pin_25-Pad25)*%
X110662400Y-72496200D03*
%TO.P,J1,26,Pin_26*%
%TO.N,unconnected-(J1-Pin_26-Pad26)*%
X108122400Y-72496200D03*
%TO.P,J1,27,Pin_27*%
%TO.N,Green*%
X110662400Y-75036200D03*
%TO.P,J1,28,Pin_28*%
%TO.N,Red*%
X108122400Y-75036200D03*
%TO.P,J1,29,Pin_29*%
%TO.N,unconnected-(J1-Pin_29-Pad29)*%
X110662400Y-77576200D03*
%TO.P,J1,30,Pin_30*%
%TO.N,Blue*%
X108122400Y-77576200D03*
%TO.P,J1,31,Pin_31*%
%TO.N,unconnected-(J1-Pin_31-Pad31)*%
X110662400Y-80116200D03*
%TO.P,J1,32,Pin_32*%
%TO.N,unconnected-(J1-Pin_32-Pad32)*%
X108122400Y-80116200D03*
%TO.P,J1,33,Pin_33*%
%TO.N,unconnected-(J1-Pin_33-Pad33)*%
X110662400Y-82656200D03*
%TO.P,J1,34,Pin_34*%
%TO.N,unconnected-(J1-Pin_34-Pad34)*%
X108122400Y-82656200D03*
%TO.P,J1,35,Pin_35*%
%TO.N,RST*%
X110662400Y-85196200D03*
%TO.P,J1,36,Pin_36*%
%TO.N,unconnected-(J1-Pin_36-Pad36)*%
X108122400Y-85196200D03*
%TO.P,J1,37,Pin_37*%
%TO.N,unconnected-(J1-Pin_37-Pad37)*%
X110662400Y-87736200D03*
%TO.P,J1,38,Pin_38*%
%TO.N,unconnected-(J1-Pin_38-Pad38)*%
X108122400Y-87736200D03*
%TO.P,J1,39,Pin_39*%
%TO.N,unconnected-(J1-Pin_39-Pad39)*%
X110662400Y-90276200D03*
%TO.P,J1,40,Pin_40*%
%TO.N,unconnected-(J1-Pin_40-Pad40)*%
X108122400Y-90276200D03*
%TO.P,J1,41,Pin_41*%
%TO.N,unconnected-(J1-Pin_41-Pad41)*%
X110662400Y-92816200D03*
%TO.P,J1,42,Pin_42*%
%TO.N,unconnected-(J1-Pin_42-Pad42)*%
X108122400Y-92816200D03*
%TO.P,J1,43,Pin_43*%
%TO.N,unconnected-(J1-Pin_43-Pad43)*%
X110662400Y-95356200D03*
%TO.P,J1,44,Pin_44*%
%TO.N,unconnected-(J1-Pin_44-Pad44)*%
X108122400Y-95356200D03*
%TO.P,J1,45,Pin_45*%
%TO.N,unconnected-(J1-Pin_45-Pad45)*%
X110662400Y-97896200D03*
%TO.P,J1,46,Pin_46*%
%TO.N,unconnected-(J1-Pin_46-Pad46)*%
X108122400Y-97896200D03*
%TO.P,J1,47,Pin_47*%
%TO.N,unconnected-(J1-Pin_47-Pad47)*%
X110662400Y-100436200D03*
%TO.P,J1,48,Pin_48*%
%TO.N,unconnected-(J1-Pin_48-Pad48)*%
X108122400Y-100436200D03*
%TO.P,J1,49,Pin_49*%
%TO.N,unconnected-(J1-Pin_49-Pad49)*%
X110662400Y-102976200D03*
%TO.P,J1,50,Pin_50*%
%TO.N,unconnected-(J1-Pin_50-Pad50)*%
X108122400Y-102976200D03*
%TD*%
D14*
%TO.P,RGB_LED,1,A*%
%TO.N,GND*%
X88918969Y-71724712D03*
D15*
%TO.P,RGB_LED,2,BK*%
%TO.N,Net-(D1-BK)*%
X88900000Y-67911878D03*
%TO.P,RGB_LED,3,GK*%
%TO.N,Net-(D1-GK)*%
X88900000Y-69770872D03*
%TO.P,RGB_LED,4,RK*%
%TO.N,Net-(D1-RK)*%
X88956907Y-73602675D03*
%TD*%
D12*
%TO.P,H4,1*%
%TO.N,N/C*%
X76200000Y-102870000D03*
%TD*%
D13*
%TO.P,R3,1*%
%TO.N,Blue*%
X95397923Y-67319844D03*
%TO.P,R3,2*%
%TO.N,Net-(D1-BK)*%
X94757923Y-67319844D03*
%TD*%
D12*
%TO.P,H1,1*%
%TO.N,N/C*%
X76200000Y-41910000D03*
%TD*%
D10*
%TO.P,RC522,1,SDA*%
%TO.N,SDA*%
X177800000Y-59690000D03*
D11*
%TO.P,RC522,2,SCK*%
%TO.N,SCK*%
X177800000Y-62230000D03*
%TO.P,RC522,3,MOSI*%
%TO.N,MOSI*%
X177800000Y-64770000D03*
%TO.P,RC522,4,MISO*%
%TO.N,MISO*%
X177800000Y-67310000D03*
%TO.P,RC522,5,IRQ*%
%TO.N,unconnected-(P1-IRQ-Pad5)*%
X177800000Y-69850000D03*
%TO.P,RC522,6,GND*%
%TO.N,GND*%
X177800000Y-72390000D03*
%TO.P,RC522,7,RST*%
%TO.N,RST*%
X177800000Y-74930000D03*
%TO.P,RC522,8,3.3V*%
%TO.N,+3V0*%
X177800000Y-77470000D03*
%TD*%
D12*
%TO.P,H2,1*%
%TO.N,N/C*%
X185699400Y-42824400D03*
%TD*%
D16*
%TO.N,GND*%
X113030000Y-67310000D03*
X163830000Y-40640000D03*
X115570000Y-66040000D03*
X182880000Y-68580000D03*
X161290000Y-38100000D03*
X102072003Y-71574725D03*
X103917655Y-69809319D03*
X180340000Y-71120000D03*
%TO.N,Blue*%
X105410000Y-73660000D03*
X105410000Y-76200000D03*
%TO.N,Green*%
X100330000Y-67310000D03*
X99060000Y-68580000D03*
%TO.N,MOSI*%
X168910000Y-69850000D03*
X171450000Y-69850000D03*
%TO.N,MISO*%
X173990000Y-71120000D03*
X173990000Y-45720000D03*
%TO.N,unconnected-(J1-Pin_6-Pad6)*%
X106527600Y-47066200D03*
%TD*%
D17*
%TO.N,GND*%
X101922016Y-71724712D02*
X102072003Y-71574725D01*
X88918969Y-71724712D02*
X101922016Y-71724712D01*
X177800000Y-72390000D02*
X179070000Y-72390000D01*
X179070000Y-72390000D02*
X180340000Y-71120000D01*
X115570000Y-66040000D02*
X127000000Y-66040000D01*
X108122400Y-69956200D02*
X109487400Y-68591200D01*
X182880000Y-68580000D02*
X182880000Y-57783604D01*
X104064536Y-69956200D02*
X103917655Y-69809319D01*
X111748800Y-68591200D02*
X113030000Y-67310000D01*
X182880000Y-57783604D02*
X167132596Y-42036200D01*
X109487400Y-68591200D02*
X111748800Y-68591200D01*
X162433800Y-42036200D02*
X161452400Y-42036200D01*
X108122400Y-69956200D02*
X104064536Y-69956200D01*
X154940000Y-38100000D02*
X161290000Y-38100000D01*
X127000000Y-66040000D02*
X154940000Y-38100000D01*
X163830000Y-40640000D02*
X162433800Y-42036200D01*
X167132596Y-42036200D02*
X161452400Y-42036200D01*
%TO.N,+3V0*%
X161452400Y-47116200D02*
X171576200Y-47116200D01*
X181610000Y-73660000D02*
X177800000Y-77470000D01*
X171576200Y-47116200D02*
X181610000Y-57150000D01*
X181610000Y-57150000D02*
X181610000Y-73660000D01*
%TO.N,SDA*%
X177800000Y-59690000D02*
X171738600Y-59690000D01*
X171738600Y-59690000D02*
X161452400Y-69976200D01*
%TO.N,Blue*%
X105410000Y-76200000D02*
X106786200Y-77576200D01*
X106786200Y-77576200D02*
X108122400Y-77576200D01*
X95397923Y-67319844D02*
X99069844Y-67319844D01*
X99069844Y-67319844D02*
X105410000Y-73660000D01*
%TO.N,Green*%
X97790000Y-69850000D02*
X99060000Y-68580000D01*
X114300000Y-39370000D02*
X114300000Y-71398600D01*
X100330000Y-67310000D02*
X100330000Y-44450000D01*
X95480784Y-69850000D02*
X97790000Y-69850000D01*
X114300000Y-71398600D02*
X110662400Y-75036200D01*
X105410000Y-39370000D02*
X114300000Y-39370000D01*
X100330000Y-44450000D02*
X105410000Y-39370000D01*
%TO.N,Red*%
X96006099Y-75036200D02*
X108122400Y-75036200D01*
X95718789Y-74748890D02*
X96006099Y-75036200D01*
%TO.N,SCK*%
X177800000Y-62230000D02*
X164973800Y-75056200D01*
X164973800Y-75056200D02*
X161452400Y-75056200D01*
%TO.N,MOSI*%
X172720000Y-69850000D02*
X171450000Y-69850000D01*
X177800000Y-64770000D02*
X172720000Y-69850000D01*
X161452400Y-72516200D02*
X166243800Y-72516200D01*
X166243800Y-72516200D02*
X168910000Y-69850000D01*
%TO.N,MISO*%
X177800000Y-67310000D02*
X173990000Y-71120000D01*
X154940000Y-39370000D02*
X154940000Y-68543800D01*
X173990000Y-45720000D02*
X167640000Y-39370000D01*
X154940000Y-68543800D02*
X158912400Y-72516200D01*
X167640000Y-39370000D02*
X154940000Y-39370000D01*
%TO.N,RST*%
X163077400Y-89652600D02*
X163077400Y-103032901D01*
X130876200Y-105410000D02*
X110662400Y-85196200D01*
X113030000Y-87563800D02*
X113030000Y-87630000D01*
X177800000Y-74930000D02*
X163077400Y-89652600D01*
X163077400Y-103032901D02*
X160700301Y-105410000D01*
X160700301Y-105410000D02*
X130876200Y-105410000D01*
D18*
%TO.N,unconnected-(J1-Pin_14-Pad14)*%
X108122400Y-57256200D02*
X108122400Y-57779600D01*
X108122400Y-57256200D02*
X108122400Y-57652600D01*
D17*
%TO.N,Net-(D1-BK)*%
X88900000Y-67911878D02*
X94165889Y-67911878D01*
X94165889Y-67911878D02*
X94757923Y-67319844D01*
%TO.N,Net-(D1-GK)*%
X94761656Y-69770872D02*
X94840784Y-69850000D01*
X88900000Y-69770872D02*
X94761656Y-69770872D01*
%TO.N,Net-(D1-RK)*%
X88956907Y-73602675D02*
X93932574Y-73602675D01*
X93932574Y-73602675D02*
X95078789Y-74748890D01*
D18*
%TO.N,unconnected-(J1-Pin_6-Pad6)*%
X108122400Y-47096200D02*
X106557600Y-47096200D01*
X106557600Y-47096200D02*
X106527600Y-47066200D01*
%TD*%
M02*
