M48
; DRILL file {KiCad 7.0.2} date Mon May 29 16:00:08 2023
; FORMAT={-:-/ absolute / inch / decimal}
; #@! TF.CreationDate,2023-05-29T16:00:08-06:00
; #@! TF.GenerationSoftware,Kicad,Pcbnew,7.0.2
; #@! TF.FileFunction,Plated,1,2,PTH
FMAT,2
INCH
; #@! TA.AperFunction,Plated,PTH,ViaDrill
T1C0.0157
; #@! TA.AperFunction,Plated,PTH,ComponentDrill
T2C0.0354
; #@! TA.AperFunction,Plated,PTH,ComponentDrill
T3C0.0394
; #@! TA.AperFunction,Plated,PTH,ComponentDrill
T4C0.1260
%
G90
G05
T1
X4.194Y-1.853
X4.45Y-3.45
X4.6Y-3.5
X6.5Y-2.75
X6.6Y-2.8
X6.9Y-1.85
X6.9Y-2.6
T2
X3.45Y-2.6226
X3.45Y-2.7076
X3.45Y-2.7926
X3.45Y-2.8776
T3
X4.2568Y-1.6542
X4.2568Y-1.7542
X4.2568Y-1.8542
X4.2568Y-1.9542
X4.2568Y-2.0542
X4.2568Y-2.1542
X4.2568Y-2.2542
X4.2568Y-2.3542
X4.2568Y-2.4542
X4.2568Y-2.5542
X4.2568Y-2.6542
X4.2568Y-2.7542
X4.2568Y-2.8542
X4.2568Y-2.9542
X4.2568Y-3.0542
X4.2568Y-3.1542
X4.2568Y-3.2542
X4.2568Y-3.3542
X4.2568Y-3.4542
X4.2568Y-3.5542
X4.2568Y-3.6542
X4.2568Y-3.7542
X4.2568Y-3.8542
X4.2568Y-3.9542
X4.2568Y-4.0542
X4.3568Y-1.6542
X4.3568Y-1.7542
X4.3568Y-1.8542
X4.3568Y-1.9542
X4.3568Y-2.0542
X4.3568Y-2.1542
X4.3568Y-2.2542
X4.3568Y-2.3542
X4.3568Y-2.4542
X4.3568Y-2.5542
X4.3568Y-2.6542
X4.3568Y-2.7542
X4.3568Y-2.8542
X4.3568Y-2.9542
X4.3568Y-3.0542
X4.3568Y-3.1542
X4.3568Y-3.2542
X4.3568Y-3.3542
X4.3568Y-3.4542
X4.3568Y-3.5542
X4.3568Y-3.6542
X4.3568Y-3.7542
X4.3568Y-3.8542
X4.3568Y-3.9542
X4.3568Y-4.0542
X6.2564Y-1.655
X6.2564Y-1.755
X6.2564Y-1.855
X6.2564Y-1.955
X6.2564Y-2.055
X6.2564Y-2.155
X6.2564Y-2.255
X6.2564Y-2.355
X6.2564Y-2.455
X6.2564Y-2.555
X6.2564Y-2.655
X6.2564Y-2.755
X6.2564Y-2.855
X6.2564Y-2.955
X6.2564Y-3.055
X6.2564Y-3.155
X6.2564Y-3.255
X6.2564Y-3.355
X6.2564Y-3.455
X6.2564Y-3.555
X6.2564Y-3.655
X6.2564Y-3.755
X6.2564Y-3.855
X6.2564Y-3.955
X6.2564Y-4.055
X6.3564Y-1.655
X6.3564Y-1.755
X6.3564Y-1.855
X6.3564Y-1.955
X6.3564Y-2.055
X6.3564Y-2.155
X6.3564Y-2.255
X6.3564Y-2.355
X6.3564Y-2.455
X6.3564Y-2.555
X6.3564Y-2.655
X6.3564Y-2.755
X6.3564Y-2.855
X6.3564Y-2.955
X6.3564Y-3.055
X6.3564Y-3.155
X6.3564Y-3.255
X6.3564Y-3.355
X6.3564Y-3.455
X6.3564Y-3.555
X6.3564Y-3.655
X6.3564Y-3.755
X6.3564Y-3.855
X6.3564Y-3.955
X6.3564Y-4.055
X7.15Y-2.35
X7.15Y-2.45
X7.15Y-2.55
X7.15Y-2.65
X7.15Y-2.75
X7.15Y-2.85
X7.15Y-2.95
X7.15Y-3.05
T4
X3.0Y-1.65
X3.0Y-4.05
X7.311Y-1.686
X7.311Y-4.011
T0
M30
