%TF.GenerationSoftware,KiCad,Pcbnew,7.0.2*%
%TF.CreationDate,2023-05-29T16:26:06-06:00*%
%TF.ProjectId,PCB_Design,5043425f-4465-4736-9967-6e2e6b696361,rev?*%
%TF.SameCoordinates,Original*%
%TF.FileFunction,Soldermask,Top*%
%TF.FilePolarity,Negative*%
%FSLAX46Y46*%
G04 Gerber Fmt 4.6, Leading zero omitted, Abs format (unit mm)*
G04 Created by KiCad (PCBNEW 7.0.2) date 2023-05-29 16:26:06*
%MOMM*%
%LPD*%
G01*
G04 APERTURE LIST*
G04 Aperture macros list*
%AMRoundRect*
0 Rectangle with rounded corners*
0 $1 Rounding radius*
0 $2 $3 $4 $5 $6 $7 $8 $9 X,Y pos of 4 corners*
0 Add a 4 corners polygon primitive as box body*
4,1,4,$2,$3,$4,$5,$6,$7,$8,$9,$2,$3,0*
0 Add four circle primitives for the rounded corners*
1,1,$1+$1,$2,$3*
1,1,$1+$1,$4,$5*
1,1,$1+$1,$6,$7*
1,1,$1+$1,$8,$9*
0 Add four rect primitives between the rounded corners*
20,1,$1+$1,$2,$3,$4,$5,0*
20,1,$1+$1,$4,$5,$6,$7,0*
20,1,$1+$1,$6,$7,$8,$9,0*
20,1,$1+$1,$8,$9,$2,$3,0*%
G04 Aperture macros list end*
%ADD10R,1.700000X1.700000*%
%ADD11O,1.700000X1.700000*%
%ADD12C,6.400000*%
%ADD13RoundRect,0.100000X0.130000X0.100000X-0.130000X0.100000X-0.130000X-0.100000X0.130000X-0.100000X0*%
%ADD14R,1.800000X1.800000*%
%ADD15C,1.800000*%
G04 APERTURE END LIST*
D10*
%TO.C,J2*%
X161452400Y-42036200D03*
D11*
X158912400Y-42036200D03*
X161452400Y-44576200D03*
X158912400Y-44576200D03*
X161452400Y-47116200D03*
X158912400Y-47116200D03*
X161452400Y-49656200D03*
X158912400Y-49656200D03*
X161452400Y-52196200D03*
X158912400Y-52196200D03*
X161452400Y-54736200D03*
X158912400Y-54736200D03*
X161452400Y-57276200D03*
X158912400Y-57276200D03*
X161452400Y-59816200D03*
X158912400Y-59816200D03*
X161452400Y-62356200D03*
X158912400Y-62356200D03*
X161452400Y-64896200D03*
X158912400Y-64896200D03*
X161452400Y-67436200D03*
X158912400Y-67436200D03*
X161452400Y-69976200D03*
X158912400Y-69976200D03*
X161452400Y-72516200D03*
X158912400Y-72516200D03*
X161452400Y-75056200D03*
X158912400Y-75056200D03*
X161452400Y-77596200D03*
X158912400Y-77596200D03*
X161452400Y-80136200D03*
X158912400Y-80136200D03*
X161452400Y-82676200D03*
X158912400Y-82676200D03*
X161452400Y-85216200D03*
X158912400Y-85216200D03*
X161452400Y-87756200D03*
X158912400Y-87756200D03*
X161452400Y-90296200D03*
X158912400Y-90296200D03*
X161452400Y-92836200D03*
X158912400Y-92836200D03*
X161452400Y-95376200D03*
X158912400Y-95376200D03*
X161452400Y-97916200D03*
X158912400Y-97916200D03*
X161452400Y-100456200D03*
X158912400Y-100456200D03*
X161452400Y-102996200D03*
X158912400Y-102996200D03*
%TD*%
D12*
%TO.C,H3*%
X185699400Y-101879400D03*
%TD*%
D13*
%TO.C,R2*%
X95480784Y-69850000D03*
X94840784Y-69850000D03*
%TD*%
%TO.C,R1*%
X95718789Y-74748890D03*
X95078789Y-74748890D03*
%TD*%
D10*
%TO.C,J1*%
X110662400Y-42016200D03*
D11*
X108122400Y-42016200D03*
X110662400Y-44556200D03*
X108122400Y-44556200D03*
X110662400Y-47096200D03*
X108122400Y-47096200D03*
X110662400Y-49636200D03*
X108122400Y-49636200D03*
X110662400Y-52176200D03*
X108122400Y-52176200D03*
X110662400Y-54716200D03*
X108122400Y-54716200D03*
X110662400Y-57256200D03*
X108122400Y-57256200D03*
X110662400Y-59796200D03*
X108122400Y-59796200D03*
X110662400Y-62336200D03*
X108122400Y-62336200D03*
X110662400Y-64876200D03*
X108122400Y-64876200D03*
X110662400Y-67416200D03*
X108122400Y-67416200D03*
X110662400Y-69956200D03*
X108122400Y-69956200D03*
X110662400Y-72496200D03*
X108122400Y-72496200D03*
X110662400Y-75036200D03*
X108122400Y-75036200D03*
X110662400Y-77576200D03*
X108122400Y-77576200D03*
X110662400Y-80116200D03*
X108122400Y-80116200D03*
X110662400Y-82656200D03*
X108122400Y-82656200D03*
X110662400Y-85196200D03*
X108122400Y-85196200D03*
X110662400Y-87736200D03*
X108122400Y-87736200D03*
X110662400Y-90276200D03*
X108122400Y-90276200D03*
X110662400Y-92816200D03*
X108122400Y-92816200D03*
X110662400Y-95356200D03*
X108122400Y-95356200D03*
X110662400Y-97896200D03*
X108122400Y-97896200D03*
X110662400Y-100436200D03*
X108122400Y-100436200D03*
X110662400Y-102976200D03*
X108122400Y-102976200D03*
%TD*%
D14*
%TO.C,RGB_LED*%
X88918969Y-71724712D03*
D15*
X88900000Y-67911878D03*
X88900000Y-69770872D03*
X88956907Y-73602675D03*
%TD*%
D12*
%TO.C,H4*%
X76200000Y-102870000D03*
%TD*%
D13*
%TO.C,R3*%
X95397923Y-67319844D03*
X94757923Y-67319844D03*
%TD*%
D12*
%TO.C,H1*%
X76200000Y-41910000D03*
%TD*%
D10*
%TO.C,RC522*%
X177800000Y-59690000D03*
D11*
X177800000Y-62230000D03*
X177800000Y-64770000D03*
X177800000Y-67310000D03*
X177800000Y-69850000D03*
X177800000Y-72390000D03*
X177800000Y-74930000D03*
X177800000Y-77470000D03*
%TD*%
D12*
%TO.C,H2*%
X185699400Y-42824400D03*
%TD*%
M02*
