%TF.GenerationSoftware,KiCad,Pcbnew,7.0.2*%
%TF.CreationDate,2023-04-20T12:49:32-06:00*%
%TF.ProjectId,Phase_B_KiCad_Bryce,50686173-655f-4425-9f4b-694361645f42,rev?*%
%TF.SameCoordinates,Original*%
%TF.FileFunction,Copper,L1,Top*%
%TF.FilePolarity,Positive*%
%FSLAX46Y46*%
G04 Gerber Fmt 4.6, Leading zero omitted, Abs format (unit mm)*
G04 Created by KiCad (PCBNEW 7.0.2) date 2023-04-20 12:49:32*
%MOMM*%
%LPD*%
G01*
G04 APERTURE LIST*
G04 Aperture macros list*
%AMRoundRect*
0 Rectangle with rounded corners*
0 $1 Rounding radius*
0 $2 $3 $4 $5 $6 $7 $8 $9 X,Y pos of 4 corners*
0 Add a 4 corners polygon primitive as box body*
4,1,4,$2,$3,$4,$5,$6,$7,$8,$9,$2,$3,0*
0 Add four circle primitives for the rounded corners*
1,1,$1+$1,$2,$3*
1,1,$1+$1,$4,$5*
1,1,$1+$1,$6,$7*
1,1,$1+$1,$8,$9*
0 Add four rect primitives between the rounded corners*
20,1,$1+$1,$2,$3,$4,$5,0*
20,1,$1+$1,$4,$5,$6,$7,0*
20,1,$1+$1,$6,$7,$8,$9,0*
20,1,$1+$1,$8,$9,$2,$3,0*%
G04 Aperture macros list end*
%TA.AperFunction,ComponentPad*%
%ADD10C,3.800000*%
%TD*%
%TA.AperFunction,SMDPad,CuDef*%
%ADD11RoundRect,0.250000X0.450000X-0.262500X0.450000X0.262500X-0.450000X0.262500X-0.450000X-0.262500X0*%
%TD*%
%TA.AperFunction,SMDPad,CuDef*%
%ADD12R,1.000000X0.700000*%
%TD*%
%TA.AperFunction,SMDPad,CuDef*%
%ADD13RoundRect,0.200000X0.200000X0.275000X-0.200000X0.275000X-0.200000X-0.275000X0.200000X-0.275000X0*%
%TD*%
%TA.AperFunction,SMDPad,CuDef*%
%ADD14RoundRect,0.100000X-0.637500X-0.100000X0.637500X-0.100000X0.637500X0.100000X-0.637500X0.100000X0*%
%TD*%
%TA.AperFunction,ComponentPad*%
%ADD15R,2.000000X2.000000*%
%TD*%
%TA.AperFunction,ComponentPad*%
%ADD16C,2.000000*%
%TD*%
%TA.AperFunction,SMDPad,CuDef*%
%ADD17RoundRect,0.225000X0.250000X-0.225000X0.250000X0.225000X-0.250000X0.225000X-0.250000X-0.225000X0*%
%TD*%
%TA.AperFunction,SMDPad,CuDef*%
%ADD18RoundRect,0.225000X0.225000X0.250000X-0.225000X0.250000X-0.225000X-0.250000X0.225000X-0.250000X0*%
%TD*%
%TA.AperFunction,ComponentPad*%
%ADD19R,1.700000X1.700000*%
%TD*%
%TA.AperFunction,ComponentPad*%
%ADD20O,1.700000X1.700000*%
%TD*%
%TA.AperFunction,SMDPad,CuDef*%
%ADD21RoundRect,0.250000X-0.312500X-1.450000X0.312500X-1.450000X0.312500X1.450000X-0.312500X1.450000X0*%
%TD*%
%TA.AperFunction,SMDPad,CuDef*%
%ADD22RoundRect,0.243750X-0.243750X-0.456250X0.243750X-0.456250X0.243750X0.456250X-0.243750X0.456250X0*%
%TD*%
%TA.AperFunction,SMDPad,CuDef*%
%ADD23RoundRect,0.150000X-0.512500X-0.150000X0.512500X-0.150000X0.512500X0.150000X-0.512500X0.150000X0*%
%TD*%
%TA.AperFunction,SMDPad,CuDef*%
%ADD24RoundRect,0.200000X-0.200000X-0.275000X0.200000X-0.275000X0.200000X0.275000X-0.200000X0.275000X0*%
%TD*%
%TA.AperFunction,SMDPad,CuDef*%
%ADD25R,1.400000X1.200000*%
%TD*%
%TA.AperFunction,SMDPad,CuDef*%
%ADD26RoundRect,0.250000X0.250000X0.475000X-0.250000X0.475000X-0.250000X-0.475000X0.250000X-0.475000X0*%
%TD*%
%TA.AperFunction,SMDPad,CuDef*%
%ADD27RoundRect,0.200000X0.275000X-0.200000X0.275000X0.200000X-0.275000X0.200000X-0.275000X-0.200000X0*%
%TD*%
%TA.AperFunction,SMDPad,CuDef*%
%ADD28RoundRect,0.225000X-0.225000X-0.250000X0.225000X-0.250000X0.225000X0.250000X-0.225000X0.250000X0*%
%TD*%
%TA.AperFunction,SMDPad,CuDef*%
%ADD29RoundRect,0.250000X-0.262500X-0.450000X0.262500X-0.450000X0.262500X0.450000X-0.262500X0.450000X0*%
%TD*%
%TA.AperFunction,SMDPad,CuDef*%
%ADD30R,2.000000X0.500000*%
%TD*%
%TA.AperFunction,SMDPad,CuDef*%
%ADD31R,1.700000X2.000000*%
%TD*%
%TA.AperFunction,SMDPad,CuDef*%
%ADD32RoundRect,0.150000X-0.150000X0.512500X-0.150000X-0.512500X0.150000X-0.512500X0.150000X0.512500X0*%
%TD*%
%TA.AperFunction,SMDPad,CuDef*%
%ADD33R,2.000000X1.500000*%
%TD*%
%TA.AperFunction,SMDPad,CuDef*%
%ADD34R,1.500000X0.550000*%
%TD*%
%TA.AperFunction,SMDPad,CuDef*%
%ADD35R,0.550000X1.500000*%
%TD*%
%TA.AperFunction,SMDPad,CuDef*%
%ADD36RoundRect,0.200000X-0.275000X0.200000X-0.275000X-0.200000X0.275000X-0.200000X0.275000X0.200000X0*%
%TD*%
%TA.AperFunction,SMDPad,CuDef*%
%ADD37RoundRect,0.225000X-0.250000X0.225000X-0.250000X-0.225000X0.250000X-0.225000X0.250000X0.225000X0*%
%TD*%
%TA.AperFunction,ComponentPad*%
%ADD38R,1.500000X1.500000*%
%TD*%
%TA.AperFunction,ComponentPad*%
%ADD39C,1.500000*%
%TD*%
%TA.AperFunction,ViaPad*%
%ADD40C,0.600000*%
%TD*%
%TA.AperFunction,Conductor*%
%ADD41C,0.200000*%
%TD*%
%TA.AperFunction,Conductor*%
%ADD42C,0.203200*%
%TD*%
G04 APERTURE END LIST*
D10*
%TO.P,REF\u002A\u002A,1*%
%TO.N,N/C*%
X118174108Y-33331284D03*
%TD*%
%TO.P,REF\u002A\u002A,1*%
%TO.N,N/C*%
X66001283Y-75910154D03*
%TD*%
%TO.P,REF\u002A\u002A,1*%
%TO.N,N/C*%
X65708950Y-45160364D03*
%TD*%
D11*
%TO.P,R12,1*%
%TO.N,dp*%
X86830000Y-45072500D03*
%TO.P,R12,2*%
%TO.N,Net-(U1-DPX)*%
X86830000Y-43247500D03*
%TD*%
%TO.P,R9,1*%
%TO.N,e*%
X74130000Y-45072500D03*
%TO.P,R9,2*%
%TO.N,Net-(U1-e)*%
X74130000Y-43247500D03*
%TD*%
D12*
%TO.P,S3,1*%
%TO.N,GND*%
X93489992Y-77658313D03*
%TO.P,S3,2*%
%TO.N,N/C*%
X87489992Y-77658313D03*
%TO.P,S3,3*%
%TO.N,RST*%
X93489992Y-73958313D03*
%TO.P,S3,4*%
%TO.N,N/C*%
X87489992Y-73958313D03*
%TD*%
D13*
%TO.P,R14,1*%
%TO.N,+5V*%
X72415000Y-49240000D03*
%TO.P,R14,2*%
%TO.N,Net-(D3-A)*%
X70765000Y-49240000D03*
%TD*%
D11*
%TO.P,R5,1*%
%TO.N,a*%
X89370000Y-45072500D03*
%TO.P,R5,2*%
%TO.N,Net-(U1-a)*%
X89370000Y-43247500D03*
%TD*%
D14*
%TO.P,U2,1,QB*%
%TO.N,b*%
X78887500Y-49505000D03*
%TO.P,U2,2,QC*%
%TO.N,c*%
X78887500Y-50155000D03*
%TO.P,U2,3,QD*%
%TO.N,d*%
X78887500Y-50805000D03*
%TO.P,U2,4,QE*%
%TO.N,e*%
X78887500Y-51455000D03*
%TO.P,U2,5,QF*%
%TO.N,f*%
X78887500Y-52105000D03*
%TO.P,U2,6,QG*%
%TO.N,g*%
X78887500Y-52755000D03*
%TO.P,U2,7,QH*%
%TO.N,dp*%
X78887500Y-53405000D03*
%TO.P,U2,8,GND*%
%TO.N,GND*%
X78887500Y-54055000D03*
%TO.P,U2,9,QH'*%
%TO.N,unconnected-(U2-QH'-Pad9)*%
X84612500Y-54055000D03*
%TO.P,U2,10,~{SRCLR}*%
%TO.N,+5V*%
X84612500Y-53405000D03*
%TO.P,U2,11,SRCLK*%
%TO.N,SH_CP*%
X84612500Y-52755000D03*
%TO.P,U2,12,RCLK*%
%TO.N,ST_CP*%
X84612500Y-52105000D03*
%TO.P,U2,13,~{OE}*%
%TO.N,GND*%
X84612500Y-51455000D03*
%TO.P,U2,14,SER*%
%TO.N,DS*%
X84612500Y-50805000D03*
%TO.P,U2,15,QA*%
%TO.N,a*%
X84612500Y-50155000D03*
%TO.P,U2,16,VCC*%
%TO.N,+5V*%
X84612500Y-49505000D03*
%TD*%
D15*
%TO.P,LS1,1,1*%
%TO.N,Buzzer*%
X119860000Y-42890000D03*
D16*
%TO.P,LS1,2,2*%
%TO.N,GND*%
X127460000Y-42890000D03*
%TD*%
D17*
%TO.P,C12,1*%
%TO.N,+5V*%
X74247873Y-67638314D03*
%TO.P,C12,2*%
%TO.N,GND*%
X74247873Y-66088314D03*
%TD*%
D18*
%TO.P,C8,1*%
%TO.N,+5V*%
X93955000Y-53025000D03*
%TO.P,C8,2*%
%TO.N,GND*%
X92405000Y-53025000D03*
%TD*%
D19*
%TO.P,J4,1,Pin_1*%
%TO.N,GND*%
X72870000Y-74620000D03*
D20*
%TO.P,J4,2,Pin_2*%
%TO.N,TX*%
X72870000Y-77160000D03*
%TO.P,J4,3,Pin_3*%
%TO.N,unconnected-(J4-Pin_3-Pad3)*%
X75410000Y-74620000D03*
%TO.P,J4,4,Pin_4*%
%TO.N,+3V3*%
X75410000Y-77160000D03*
%TO.P,J4,5,Pin_5*%
%TO.N,Net-(J4-Pin_5)*%
X77950000Y-74620000D03*
%TO.P,J4,6,Pin_6*%
%TO.N,+3V3*%
X77950000Y-77160000D03*
%TO.P,J4,7,Pin_7*%
%TO.N,RX*%
X80490000Y-74620000D03*
%TO.P,J4,8,Pin_8*%
%TO.N,+3V3*%
X80490000Y-77160000D03*
%TD*%
D21*
%TO.P,F1,1*%
%TO.N,Net-(J1-VBUS)*%
X71159484Y-52735557D03*
%TO.P,F1,2*%
%TO.N,+5V*%
X75434484Y-52735557D03*
%TD*%
D22*
%TO.P,D3,1,K*%
%TO.N,GND*%
X66842500Y-49240000D03*
%TO.P,D3,2,A*%
%TO.N,Net-(D3-A)*%
X68717500Y-49240000D03*
%TD*%
D23*
%TO.P,U4,1,I/O1*%
%TO.N,USB_CONN_D-*%
X80612500Y-59720000D03*
%TO.P,U4,2,GND*%
%TO.N,GND*%
X80612500Y-60670000D03*
%TO.P,U4,3,I/O2*%
%TO.N,USB_CONN_D+*%
X80612500Y-61620000D03*
%TO.P,U4,4,I/O2*%
%TO.N,USB_D+*%
X82887500Y-61620000D03*
%TO.P,U4,5,VBUS*%
%TO.N,+5V*%
X82887500Y-60670000D03*
%TO.P,U4,6,I/O1*%
%TO.N,USB_D-*%
X82887500Y-59720000D03*
%TD*%
D24*
%TO.P,R17,1*%
%TO.N,+3V3*%
X76670000Y-72100000D03*
%TO.P,R17,2*%
%TO.N,Net-(J4-Pin_5)*%
X78320000Y-72100000D03*
%TD*%
D25*
%TO.P,Y1,1,1*%
%TO.N,XTAL1*%
X101900000Y-72520000D03*
%TO.P,Y1,2,2*%
%TO.N,GND*%
X99700000Y-72520000D03*
%TO.P,Y1,3,3*%
%TO.N,XTAL2*%
X99700000Y-74220000D03*
%TO.P,Y1,4,4*%
%TO.N,GND*%
X101900000Y-74220000D03*
%TD*%
D17*
%TO.P,C3,1*%
%TO.N,+5V*%
X95720000Y-53520000D03*
%TO.P,C3,2*%
%TO.N,GND*%
X95720000Y-51970000D03*
%TD*%
D26*
%TO.P,C4,1*%
%TO.N,+5V*%
X91329126Y-57416113D03*
%TO.P,C4,2*%
%TO.N,GND*%
X89429126Y-57416113D03*
%TD*%
D19*
%TO.P,J2,1,MISO*%
%TO.N,MISO*%
X88832554Y-69540000D03*
D20*
%TO.P,J2,2,VCC*%
%TO.N,+5V*%
X88832554Y-67000000D03*
%TO.P,J2,3,SCK*%
%TO.N,SCK*%
X86292554Y-69540000D03*
%TO.P,J2,4,MOSI*%
%TO.N,MOSI*%
X86292554Y-67000000D03*
%TO.P,J2,5,~{RST}*%
%TO.N,RST*%
X83752554Y-69540000D03*
%TO.P,J2,6,GND*%
%TO.N,GND*%
X83752554Y-67000000D03*
%TD*%
D27*
%TO.P,R1,1*%
%TO.N,Button_1*%
X110960000Y-59661827D03*
%TO.P,R1,2*%
%TO.N,GND*%
X110960000Y-58011827D03*
%TD*%
D11*
%TO.P,R7,1*%
%TO.N,c*%
X81750000Y-45072500D03*
%TO.P,R7,2*%
%TO.N,Net-(U1-c)*%
X81750000Y-43247500D03*
%TD*%
D17*
%TO.P,C14,1*%
%TO.N,+3V3*%
X79748645Y-70464421D03*
%TO.P,C14,2*%
%TO.N,GND*%
X79748645Y-68914421D03*
%TD*%
D28*
%TO.P,C15,1*%
%TO.N,+5V*%
X73850000Y-56860000D03*
%TO.P,C15,2*%
%TO.N,GND*%
X75400000Y-56860000D03*
%TD*%
D11*
%TO.P,R10,1*%
%TO.N,f*%
X71590000Y-45072500D03*
%TO.P,R10,2*%
%TO.N,Net-(U1-f)*%
X71590000Y-43247500D03*
%TD*%
D29*
%TO.P,R3,1*%
%TO.N,RED_LED*%
X107507500Y-46700000D03*
%TO.P,R3,2*%
%TO.N,Net-(D1-A)*%
X109332500Y-46700000D03*
%TD*%
D13*
%TO.P,R16,1*%
%TO.N,USB_CONN_D-*%
X77085992Y-59761119D03*
%TO.P,R16,2*%
%TO.N,Net-(J1-D-)*%
X75435992Y-59761119D03*
%TD*%
D27*
%TO.P,R2,1*%
%TO.N,Button_2*%
X110960000Y-74980000D03*
%TO.P,R2,2*%
%TO.N,GND*%
X110960000Y-73330000D03*
%TD*%
D11*
%TO.P,R8,1*%
%TO.N,d*%
X76670000Y-45072500D03*
%TO.P,R8,2*%
%TO.N,Net-(U1-d)*%
X76670000Y-43247500D03*
%TD*%
D18*
%TO.P,C9,1*%
%TO.N,+5V*%
X91359836Y-62759308D03*
%TO.P,C9,2*%
%TO.N,GND*%
X89809836Y-62759308D03*
%TD*%
D30*
%TO.P,J1,1,VBUS*%
%TO.N,Net-(J1-VBUS)*%
X69210000Y-59796883D03*
%TO.P,J1,2,D-*%
%TO.N,Net-(J1-D-)*%
X69210000Y-60596883D03*
%TO.P,J1,3,D+*%
%TO.N,Net-(J1-D+)*%
X69210000Y-61396883D03*
%TO.P,J1,4,ID*%
%TO.N,unconnected-(J1-ID-Pad4)*%
X69210000Y-62196883D03*
%TO.P,J1,5,GND*%
%TO.N,GND*%
X69210000Y-62996883D03*
D31*
%TO.P,J1,6,Shield*%
%TO.N,unconnected-(J1-Shield-Pad6)*%
X69110000Y-56946883D03*
X63660000Y-56946883D03*
X69110000Y-65846883D03*
X63660000Y-65846883D03*
%TD*%
D17*
%TO.P,C11,1*%
%TO.N,/AREF*%
X97367029Y-53508329D03*
%TO.P,C11,2*%
%TO.N,GND*%
X97367029Y-51958329D03*
%TD*%
D22*
%TO.P,D1,1,K*%
%TO.N,GND*%
X107482500Y-44160000D03*
%TO.P,D1,2,A*%
%TO.N,Net-(D1-A)*%
X109357500Y-44160000D03*
%TD*%
D18*
%TO.P,C10,1*%
%TO.N,/UCAP*%
X91415000Y-61140000D03*
%TO.P,C10,2*%
%TO.N,GND*%
X89865000Y-61140000D03*
%TD*%
D28*
%TO.P,C5,1*%
%TO.N,+5V*%
X102318821Y-53558415D03*
%TO.P,C5,2*%
%TO.N,GND*%
X103868821Y-53558415D03*
%TD*%
D32*
%TO.P,U5,1,VIN*%
%TO.N,+5V*%
X77940000Y-67775535D03*
%TO.P,U5,2,GND*%
%TO.N,GND*%
X76990000Y-67775535D03*
%TO.P,U5,3,ON/~{OFF}*%
%TO.N,+5V*%
X76040000Y-67775535D03*
%TO.P,U5,4,BP*%
%TO.N,Net-(U5-BP)*%
X76040000Y-70050535D03*
%TO.P,U5,5,VOUT*%
%TO.N,+3V3*%
X77940000Y-70050535D03*
%TD*%
D33*
%TO.P,S2,D1,COM_2*%
%TO.N,unconnected-(S2-COM_2-PadD1)*%
X113970000Y-69600000D03*
%TO.P,S2,C1,COM_1*%
%TO.N,+5V*%
X128270000Y-69600000D03*
%TO.P,S2,B1,NO_2*%
%TO.N,Button_2*%
X113970000Y-74600000D03*
%TO.P,S2,A1,NO_1*%
%TO.N,unconnected-(S2-NO_1-PadA1)*%
X128270000Y-74600000D03*
%TD*%
D18*
%TO.P,C13,1*%
%TO.N,Net-(U5-BP)*%
X74036209Y-69904166D03*
%TO.P,C13,2*%
%TO.N,GND*%
X72486209Y-69904166D03*
%TD*%
D11*
%TO.P,R6,1*%
%TO.N,b*%
X79210000Y-45072500D03*
%TO.P,R6,2*%
%TO.N,Net-(U1-b)*%
X79210000Y-43247500D03*
%TD*%
D34*
%TO.P,U3,1,PE6*%
%TO.N,SH_CP*%
X93210000Y-57140000D03*
%TO.P,U3,2,UVCC*%
%TO.N,+5V*%
X93210000Y-57940000D03*
%TO.P,U3,3,D-*%
%TO.N,USB_D-*%
X93210000Y-58740000D03*
%TO.P,U3,4,D+*%
%TO.N,USB_D+*%
X93210000Y-59540000D03*
%TO.P,U3,5,UGND*%
%TO.N,GND*%
X93210000Y-60340000D03*
%TO.P,U3,6,UCAP*%
%TO.N,/UCAP*%
X93210000Y-61140000D03*
%TO.P,U3,7,VBUS*%
%TO.N,+5V*%
X93210000Y-61940000D03*
%TO.P,U3,8,PB0*%
%TO.N,unconnected-(U3-PB0-Pad8)*%
X93210000Y-62740000D03*
%TO.P,U3,9,PB1*%
%TO.N,SCK*%
X93210000Y-63540000D03*
%TO.P,U3,10,PB2*%
%TO.N,MOSI*%
X93210000Y-64340000D03*
%TO.P,U3,11,PB3*%
%TO.N,MISO*%
X93210000Y-65140000D03*
D35*
%TO.P,U3,12,PB7*%
%TO.N,Dig3*%
X94910000Y-66840000D03*
%TO.P,U3,13,~{RESET}*%
%TO.N,RST*%
X95710000Y-66840000D03*
%TO.P,U3,14,VCC*%
%TO.N,+5V*%
X96510000Y-66840000D03*
%TO.P,U3,15,GND*%
%TO.N,GND*%
X97310000Y-66840000D03*
%TO.P,U3,16,XTAL2*%
%TO.N,XTAL2*%
X98110000Y-66840000D03*
%TO.P,U3,17,XTAL1*%
%TO.N,XTAL1*%
X98910000Y-66840000D03*
%TO.P,U3,18,PD0*%
%TO.N,Button_2*%
X99710000Y-66840000D03*
%TO.P,U3,19,PD1*%
%TO.N,Button_1*%
X100510000Y-66840000D03*
%TO.P,U3,20,PD2*%
%TO.N,TX*%
X101310000Y-66840000D03*
%TO.P,U3,21,PD3*%
%TO.N,RX*%
X102110000Y-66840000D03*
%TO.P,U3,22,PD5*%
%TO.N,unconnected-(U3-PD5-Pad22)*%
X102910000Y-66840000D03*
D34*
%TO.P,U3,23,GND*%
%TO.N,GND*%
X104610000Y-65140000D03*
%TO.P,U3,24,AVCC*%
%TO.N,+5V*%
X104610000Y-64340000D03*
%TO.P,U3,25,PD4*%
%TO.N,GREEN_LED*%
X104610000Y-63540000D03*
%TO.P,U3,26,PD6*%
%TO.N,Dig2*%
X104610000Y-62740000D03*
%TO.P,U3,27,PD7*%
%TO.N,Buzzer*%
X104610000Y-61940000D03*
%TO.P,U3,28,PB4*%
%TO.N,ST_CP*%
X104610000Y-61140000D03*
%TO.P,U3,29,PB5*%
%TO.N,DS*%
X104610000Y-60340000D03*
%TO.P,U3,30,PB6*%
%TO.N,Dig4*%
X104610000Y-59540000D03*
%TO.P,U3,31,PC6*%
%TO.N,RED_LED*%
X104610000Y-58740000D03*
%TO.P,U3,32,PC7*%
%TO.N,Dig1*%
X104610000Y-57940000D03*
%TO.P,U3,33,~{HWB}/PE2*%
%TO.N,GND*%
X104610000Y-57140000D03*
D35*
%TO.P,U3,34,VCC*%
%TO.N,+5V*%
X102910000Y-55440000D03*
%TO.P,U3,35,GND*%
%TO.N,GND*%
X102110000Y-55440000D03*
%TO.P,U3,36,PF7*%
%TO.N,unconnected-(U3-PF7-Pad36)*%
X101310000Y-55440000D03*
%TO.P,U3,37,PF6*%
%TO.N,unconnected-(U3-PF6-Pad37)*%
X100510000Y-55440000D03*
%TO.P,U3,38,PF5*%
%TO.N,unconnected-(U3-PF5-Pad38)*%
X99710000Y-55440000D03*
%TO.P,U3,39,PF4*%
%TO.N,unconnected-(U3-PF4-Pad39)*%
X98910000Y-55440000D03*
%TO.P,U3,40,PF1*%
%TO.N,unconnected-(U3-PF1-Pad40)*%
X98110000Y-55440000D03*
%TO.P,U3,41,PF0*%
%TO.N,unconnected-(U3-PF0-Pad41)*%
X97310000Y-55440000D03*
%TO.P,U3,42,AREF*%
%TO.N,/AREF*%
X96510000Y-55440000D03*
%TO.P,U3,43,GND*%
%TO.N,GND*%
X95710000Y-55440000D03*
%TO.P,U3,44,AVCC*%
%TO.N,+5V*%
X94910000Y-55440000D03*
%TD*%
D24*
%TO.P,R15,1*%
%TO.N,Net-(J1-D+)*%
X75400698Y-61396883D03*
%TO.P,R15,2*%
%TO.N,USB_CONN_D+*%
X77050698Y-61396883D03*
%TD*%
D33*
%TO.P,S1,A1,NO_1*%
%TO.N,unconnected-(S1-NO_1-PadA1)*%
X128270000Y-59360000D03*
%TO.P,S1,B1,NO_2*%
%TO.N,Button_1*%
X113970000Y-59360000D03*
%TO.P,S1,C1,COM_1*%
%TO.N,+5V*%
X128270000Y-54360000D03*
%TO.P,S1,D1,COM_2*%
%TO.N,unconnected-(S1-COM_2-PadD1)*%
X113970000Y-54360000D03*
%TD*%
D11*
%TO.P,R11,1*%
%TO.N,g*%
X84290000Y-45072500D03*
%TO.P,R11,2*%
%TO.N,Net-(U1-g)*%
X84290000Y-43247500D03*
%TD*%
D36*
%TO.P,R13,1*%
%TO.N,+5V*%
X93560000Y-70830000D03*
%TO.P,R13,2*%
%TO.N,RST*%
X93560000Y-72480000D03*
%TD*%
D37*
%TO.P,C2,1*%
%TO.N,XTAL1*%
X104000881Y-72615415D03*
%TO.P,C2,2*%
%TO.N,GND*%
X104000881Y-74165415D03*
%TD*%
%TO.P,C7,1*%
%TO.N,+5V*%
X107150000Y-64950000D03*
%TO.P,C7,2*%
%TO.N,GND*%
X107150000Y-66500000D03*
%TD*%
%TO.P,C1,1*%
%TO.N,XTAL2*%
X97460000Y-72555000D03*
%TO.P,C1,2*%
%TO.N,GND*%
X97460000Y-74105000D03*
%TD*%
%TO.P,C6,1*%
%TO.N,+5V*%
X96439204Y-68869691D03*
%TO.P,C6,2*%
%TO.N,GND*%
X96439204Y-70419691D03*
%TD*%
D38*
%TO.P,U1,1,e*%
%TO.N,Net-(U1-e)*%
X81750000Y-38937500D03*
D39*
%TO.P,U1,2,d*%
%TO.N,Net-(U1-d)*%
X84290000Y-38937500D03*
%TO.P,U1,3,DPX*%
%TO.N,Net-(U1-DPX)*%
X86830000Y-38937500D03*
%TO.P,U1,4,c*%
%TO.N,Net-(U1-c)*%
X89370000Y-38937500D03*
%TO.P,U1,5,g*%
%TO.N,Net-(U1-g)*%
X91910000Y-38937500D03*
%TO.P,U1,6,CA4*%
%TO.N,Dig4*%
X94450000Y-38937500D03*
%TO.P,U1,7,b*%
%TO.N,Net-(U1-b)*%
X94450000Y-23697500D03*
%TO.P,U1,8,CA3*%
%TO.N,Dig3*%
X91910000Y-23697500D03*
%TO.P,U1,9,CA2*%
%TO.N,Dig2*%
X89370000Y-23697500D03*
%TO.P,U1,10,f*%
%TO.N,Net-(U1-f)*%
X86830000Y-23697500D03*
%TO.P,U1,11,a*%
%TO.N,Net-(U1-a)*%
X84290000Y-23697500D03*
%TO.P,U1,12,CA1*%
%TO.N,Dig1*%
X81750000Y-23697500D03*
%TD*%
D29*
%TO.P,R4,1*%
%TO.N,GREEN_LED*%
X112500584Y-46688590D03*
%TO.P,R4,2*%
%TO.N,Net-(D2-A)*%
X114325584Y-46688590D03*
%TD*%
D22*
%TO.P,D2,1,K*%
%TO.N,GND*%
X112475584Y-44148590D03*
%TO.P,D2,2,A*%
%TO.N,Net-(D2-A)*%
X114350584Y-44148590D03*
%TD*%
D40*
%TO.N,GND*%
X88578943Y-61148943D03*
X94640948Y-60435406D03*
X79004216Y-60507878D03*
X91754027Y-51810082D03*
X79798568Y-67602927D03*
X72855958Y-65775000D03*
X65395894Y-49234042D03*
X71414708Y-68516891D03*
X110977025Y-72130571D03*
X101898423Y-75579291D03*
X76594063Y-56856065D03*
X99685392Y-71119561D03*
X87929185Y-57348059D03*
X97546793Y-75701132D03*
X104010251Y-55020247D03*
X77021524Y-66214405D03*
X104665908Y-66122724D03*
X105880000Y-44160000D03*
X71260062Y-63083020D03*
X110960000Y-44160000D03*
X97294241Y-65397497D03*
X110918302Y-56799688D03*
X107113526Y-67765303D03*
X95696311Y-50426142D03*
X93590626Y-78898095D03*
X88578943Y-62655717D03*
X102060730Y-56839933D03*
X95558975Y-71570146D03*
X86162490Y-51488977D03*
X104633472Y-56207395D03*
X95713149Y-56837887D03*
X80533090Y-53815088D03*
X97367029Y-50469350D03*
X103897898Y-75432399D03*
%TO.N,Net-(U1-DPX)*%
X87964562Y-39492854D03*
X87147662Y-41737935D03*
%TO.N,Net-(U1-a)*%
X86387991Y-30531117D03*
X87438792Y-31558792D03*
%TO.N,Button_1*%
X108890000Y-64348900D03*
X108890000Y-65710000D03*
%TO.N,RST*%
X94920000Y-69520000D03*
X92380000Y-69520000D03*
%TO.N,ST_CP*%
X108922700Y-49200000D03*
X103810000Y-50470000D03*
%TO.N,MISO*%
X91936008Y-67748978D03*
X93283349Y-66144355D03*
%TO.N,Dig3*%
X91110000Y-64941100D03*
X79883469Y-56616531D03*
%TO.N,TX*%
X105552246Y-70188900D03*
X105816818Y-73257869D03*
%TO.N,RX*%
X106801415Y-70180649D03*
X106847116Y-72404778D03*
%TO.N,Dig2*%
X105080000Y-46660000D03*
X107931456Y-60803169D03*
X106906400Y-56383818D03*
X105080000Y-44120000D03*
%TO.N,Dig4*%
X104365185Y-45027255D03*
X106277193Y-56877076D03*
X107291558Y-57761558D03*
X104284622Y-46578899D03*
%TO.N,Dig1*%
X103496542Y-46713562D03*
X103810000Y-42850000D03*
X91110000Y-28880000D03*
X89763707Y-27533707D03*
%TD*%
D41*
%TO.N,USB_D-*%
X88772006Y-58740000D02*
X93210000Y-58740000D01*
X87067006Y-60445000D02*
X88772006Y-58740000D01*
X84606251Y-60445000D02*
X87067006Y-60445000D01*
X83881251Y-59720000D02*
X84606251Y-60445000D01*
X82887500Y-59720000D02*
X83881251Y-59720000D01*
%TO.N,USB_D+*%
X92985000Y-59315000D02*
X93210000Y-59540000D01*
X92160000Y-59315000D02*
X92985000Y-59315000D01*
X83881251Y-61620000D02*
X84606251Y-60895000D01*
X88958405Y-59190001D02*
X92160000Y-59190001D01*
X82887500Y-61620000D02*
X83881251Y-61620000D01*
X84606251Y-60895000D02*
X87253406Y-60895000D01*
X92160000Y-59190001D02*
X92160000Y-59315000D01*
X87253406Y-60895000D02*
X88958405Y-59190001D01*
%TO.N,Net-(J1-D+)*%
X69210000Y-61396883D02*
X75400698Y-61396883D01*
%TO.N,Net-(J1-D-)*%
X74600228Y-60596883D02*
X75435992Y-59761119D01*
X69210000Y-60596883D02*
X74600228Y-60596883D01*
D42*
%TO.N,GND*%
X104000881Y-74165415D02*
X104000881Y-75329416D01*
X93489992Y-77658313D02*
X93489992Y-78797461D01*
X69210000Y-62996883D02*
X71173925Y-62996883D01*
X79748645Y-67652850D02*
X79798568Y-67602927D01*
X94545542Y-60340000D02*
X94640948Y-60435406D01*
X71173925Y-62996883D02*
X71260062Y-63083020D01*
X86128513Y-51455000D02*
X86162490Y-51488977D01*
X80612500Y-60670000D02*
X79166338Y-60670000D01*
X95710000Y-55440000D02*
X95710000Y-56834738D01*
X102110000Y-55440000D02*
X102110000Y-56790663D01*
X65401852Y-49240000D02*
X65395894Y-49234042D01*
X78887500Y-54055000D02*
X80293178Y-54055000D01*
X97367029Y-51958329D02*
X97367029Y-50469350D01*
X102110000Y-56790663D02*
X102060730Y-56839933D01*
X96439204Y-70689917D02*
X95558975Y-71570146D01*
X110960000Y-73330000D02*
X110960000Y-72147596D01*
X89429126Y-57416113D02*
X87997239Y-57416113D01*
X88682534Y-62759308D02*
X88578943Y-62655717D01*
X66842500Y-49240000D02*
X65401852Y-49240000D01*
X101900000Y-74220000D02*
X101900000Y-75577714D01*
X104610000Y-65140000D02*
X104610000Y-66066816D01*
X103868821Y-54878817D02*
X104010251Y-55020247D01*
X99700000Y-72520000D02*
X99700000Y-71134169D01*
X92405000Y-53025000D02*
X92405000Y-52461055D01*
X76990000Y-67775535D02*
X76990000Y-66245929D01*
X110960000Y-58011827D02*
X110960000Y-56841386D01*
X73169272Y-66088314D02*
X72855958Y-65775000D01*
X93210000Y-60340000D02*
X94545542Y-60340000D01*
X112475584Y-44148590D02*
X110971410Y-44148590D01*
X93489992Y-78797461D02*
X93590626Y-78898095D01*
X97310000Y-65413256D02*
X97294241Y-65397497D01*
X89809836Y-62759308D02*
X88682534Y-62759308D01*
X84612500Y-51455000D02*
X86128513Y-51455000D01*
X104610000Y-56230867D02*
X104633472Y-56207395D01*
X72486209Y-69904166D02*
X72486209Y-69588392D01*
X107150000Y-67728829D02*
X107113526Y-67765303D01*
X104610000Y-57140000D02*
X104610000Y-56230867D01*
X95710000Y-56834738D02*
X95713149Y-56837887D01*
X76590128Y-56860000D02*
X76594063Y-56856065D01*
X107482500Y-44160000D02*
X105880000Y-44160000D01*
X88587886Y-61140000D02*
X88578943Y-61148943D01*
X72486209Y-69588392D02*
X71414708Y-68516891D01*
X80293178Y-54055000D02*
X80533090Y-53815088D01*
X104610000Y-66066816D02*
X104665908Y-66122724D01*
X110971410Y-44148590D02*
X110960000Y-44160000D01*
X99700000Y-71134169D02*
X99685392Y-71119561D01*
X97310000Y-66840000D02*
X97310000Y-65413256D01*
X104000881Y-75329416D02*
X103897898Y-75432399D01*
X103868821Y-53558415D02*
X103868821Y-54878817D01*
X95720000Y-50449831D02*
X95696311Y-50426142D01*
X79166338Y-60670000D02*
X79004216Y-60507878D01*
X87997239Y-57416113D02*
X87929185Y-57348059D01*
X89865000Y-61140000D02*
X88587886Y-61140000D01*
X101900000Y-75577714D02*
X101898423Y-75579291D01*
X92405000Y-52461055D02*
X91754027Y-51810082D01*
X110960000Y-72147596D02*
X110977025Y-72130571D01*
X76990000Y-66245929D02*
X77021524Y-66214405D01*
X97460000Y-74105000D02*
X97460000Y-75614339D01*
X95720000Y-51970000D02*
X95720000Y-50449831D01*
X79748645Y-68914421D02*
X79748645Y-67652850D01*
X74247873Y-66088314D02*
X73169272Y-66088314D01*
X97460000Y-75614339D02*
X97546793Y-75701132D01*
X110960000Y-56841386D02*
X110918302Y-56799688D01*
X107150000Y-66500000D02*
X107150000Y-67728829D01*
X96439204Y-70419691D02*
X96439204Y-70689917D01*
X75400000Y-56860000D02*
X76590128Y-56860000D01*
%TO.N,+5V*%
X83957052Y-49505000D02*
X83573400Y-49888652D01*
X83573400Y-49888652D02*
X83573400Y-53021348D01*
X91853013Y-57940000D02*
X93210000Y-57940000D01*
X76772333Y-65612805D02*
X77270715Y-65612805D01*
X75434484Y-53017633D02*
X80093426Y-57676574D01*
X96439204Y-68869691D02*
X94478895Y-70830000D01*
X93210000Y-57940000D02*
X94163200Y-57940000D01*
X83957052Y-53405000D02*
X80093426Y-57268626D01*
X83957052Y-53405000D02*
X84612500Y-53405000D01*
X107150000Y-64950000D02*
X123620000Y-64950000D01*
X95242548Y-59019348D02*
X95242548Y-61577452D01*
X93210000Y-61940000D02*
X92179144Y-61940000D01*
X88965000Y-53405000D02*
X91329126Y-55769126D01*
X93560000Y-68160000D02*
X93560000Y-70830000D01*
X95242548Y-59019348D02*
X100732106Y-59019348D01*
X75434484Y-52735557D02*
X75434484Y-53017633D01*
X76040000Y-66345138D02*
X76772333Y-65612805D01*
X84612500Y-49505000D02*
X83957052Y-49505000D01*
X82887500Y-60670000D02*
X82189541Y-60670000D01*
X80093426Y-57268626D02*
X80093426Y-57676574D01*
X95720000Y-53520000D02*
X94910000Y-54330000D01*
X94910000Y-54330000D02*
X94910000Y-55440000D01*
X81576600Y-61282941D02*
X81576600Y-64138935D01*
X93955000Y-53025000D02*
X94910000Y-53980000D01*
X81640022Y-59223171D02*
X81640022Y-59773681D01*
X106540000Y-64340000D02*
X107150000Y-64950000D01*
X102910000Y-56841454D02*
X102910000Y-55440000D01*
X83573400Y-53021348D02*
X83957052Y-53405000D01*
X80093426Y-57676574D02*
X81640022Y-59223171D01*
X97280000Y-64340000D02*
X104610000Y-64340000D01*
X84612500Y-53405000D02*
X88965000Y-53405000D01*
X94880000Y-61940000D02*
X93210000Y-61940000D01*
X72415000Y-49716073D02*
X75434484Y-52735557D01*
X96510000Y-67930000D02*
X96439204Y-68000796D01*
X94910000Y-53980000D02*
X94910000Y-55440000D01*
X96510000Y-63570000D02*
X96510000Y-66840000D01*
X94478895Y-70830000D02*
X93560000Y-70830000D01*
X88832554Y-67000000D02*
X92360000Y-67000000D01*
X82536341Y-60670000D02*
X82887500Y-60670000D01*
X94163200Y-57940000D02*
X95242548Y-59019348D01*
X82189541Y-60670000D02*
X81576600Y-61282941D01*
X102910000Y-54149594D02*
X102318821Y-53558415D01*
X91329126Y-55769126D02*
X91329126Y-57416113D01*
X96510000Y-63570000D02*
X97280000Y-64340000D01*
X96439204Y-68000796D02*
X96439204Y-68869691D01*
X75434484Y-52735557D02*
X73850000Y-54320041D01*
X92179144Y-61940000D02*
X91359836Y-62759308D01*
X81576600Y-64138935D02*
X77940000Y-67775535D01*
X72415000Y-49240000D02*
X72415000Y-49716073D01*
X77940000Y-66282090D02*
X77940000Y-67775535D01*
X104610000Y-64340000D02*
X106540000Y-64340000D01*
X92360000Y-67000000D02*
X92380000Y-66980000D01*
X77270715Y-65612805D02*
X77940000Y-66282090D01*
X76040000Y-67775535D02*
X76040000Y-66345138D01*
X94910000Y-57193200D02*
X94910000Y-55440000D01*
X74247873Y-67638314D02*
X75902779Y-67638314D01*
X73850000Y-54320041D02*
X73850000Y-56860000D01*
X92380000Y-66980000D02*
X93560000Y-68160000D01*
X123620000Y-64950000D02*
X123620000Y-59010000D01*
X75902779Y-67638314D02*
X76040000Y-67775535D01*
X91329126Y-57416113D02*
X91853013Y-57940000D01*
X81640022Y-59773681D02*
X82536341Y-60670000D01*
X94880000Y-61940000D02*
X96510000Y-63570000D01*
X123620000Y-64950000D02*
X128270000Y-69600000D01*
X94163200Y-57940000D02*
X94910000Y-57193200D01*
X100732106Y-59019348D02*
X102910000Y-56841454D01*
X123620000Y-59010000D02*
X128270000Y-54360000D01*
X95242548Y-61577452D02*
X94880000Y-61940000D01*
X96510000Y-66840000D02*
X96510000Y-67930000D01*
X102910000Y-55440000D02*
X102910000Y-54149594D01*
%TO.N,/AREF*%
X97367029Y-53508329D02*
X96510000Y-54365358D01*
X96510000Y-54365358D02*
X96510000Y-55440000D01*
%TO.N,Buzzer*%
X110316702Y-43857302D02*
X111354291Y-42819713D01*
X110316702Y-57186498D02*
X110316702Y-43857302D01*
X104610000Y-61940000D02*
X105563200Y-61940000D01*
X111354291Y-42819713D02*
X116724191Y-42819713D01*
X105563200Y-61940000D02*
X110316702Y-57186498D01*
X116724191Y-42819713D02*
X116794478Y-42890000D01*
X116794478Y-42890000D02*
X119860000Y-42890000D01*
%TO.N,+3V3*%
X76670000Y-75900000D02*
X75410000Y-77160000D01*
X77950000Y-77160000D02*
X75410000Y-77160000D01*
X77940000Y-70830000D02*
X77940000Y-70050535D01*
X77940000Y-70050535D02*
X79334759Y-70050535D01*
X79334759Y-70050535D02*
X79748645Y-70464421D01*
X76670000Y-72100000D02*
X76670000Y-75900000D01*
X76670000Y-72100000D02*
X77940000Y-70830000D01*
X80490000Y-77160000D02*
X77950000Y-77160000D01*
%TO.N,Net-(D1-A)*%
X109357500Y-46675000D02*
X109357500Y-44160000D01*
X109332500Y-46700000D02*
X109357500Y-46675000D01*
%TO.N,Net-(D2-A)*%
X114325584Y-44173590D02*
X114350584Y-44148590D01*
X114325584Y-46688590D02*
X114325584Y-44173590D01*
%TO.N,GREEN_LED*%
X108116800Y-63540000D02*
X108486800Y-63170000D01*
X112500584Y-46688590D02*
X112500584Y-57655613D01*
X112500584Y-57655613D02*
X111442770Y-58713427D01*
X104610000Y-63540000D02*
X108116800Y-63540000D01*
X108486800Y-61033200D02*
X108890000Y-60630000D01*
X108486800Y-63170000D02*
X108486800Y-61033200D01*
X108890000Y-60630000D02*
X108890000Y-60300657D01*
X111442770Y-58713427D02*
X110477230Y-58713427D01*
X108890000Y-60300657D02*
X110477230Y-58713427D01*
%TO.N,e*%
X78887500Y-51455000D02*
X78232052Y-51455000D01*
X74130000Y-47352948D02*
X74130000Y-45072500D01*
X78232052Y-51455000D02*
X74130000Y-47352948D01*
%TO.N,Net-(U1-e)*%
X78440000Y-38937500D02*
X81750000Y-38937500D01*
X74130000Y-43247500D02*
X78440000Y-38937500D01*
%TO.N,Net-(D3-A)*%
X70765000Y-49240000D02*
X68717500Y-49240000D01*
%TO.N,dp*%
X79542948Y-53405000D02*
X83170200Y-49777748D01*
X83170200Y-48732300D02*
X86830000Y-45072500D01*
X83170200Y-49777748D02*
X83170200Y-48732300D01*
X78887500Y-53405000D02*
X79542948Y-53405000D01*
%TO.N,Net-(U1-DPX)*%
X87385354Y-39492854D02*
X86830000Y-38937500D01*
X86830000Y-42055597D02*
X87147662Y-41737935D01*
X86830000Y-43247500D02*
X86830000Y-42055597D01*
X87964562Y-39492854D02*
X87385354Y-39492854D01*
%TO.N,g*%
X78887500Y-52755000D02*
X79542948Y-52755000D01*
X79542948Y-52755000D02*
X82767000Y-49530948D01*
X82767000Y-46595500D02*
X84290000Y-45072500D01*
X82767000Y-49530948D02*
X82767000Y-46595500D01*
%TO.N,Net-(U1-g)*%
X86824300Y-40713200D02*
X90134300Y-40713200D01*
X90134300Y-40713200D02*
X91910000Y-38937500D01*
X84290000Y-43247500D02*
X86824300Y-40713200D01*
%TO.N,f*%
X78232052Y-52105000D02*
X71590000Y-45462948D01*
X71590000Y-45462948D02*
X71590000Y-45072500D01*
X78887500Y-52105000D02*
X78232052Y-52105000D01*
%TO.N,Net-(U1-f)*%
X82801600Y-23698713D02*
X83970313Y-22530000D01*
X82801600Y-32035900D02*
X82801600Y-23698713D01*
X85662500Y-22530000D02*
X86830000Y-23697500D01*
X71590000Y-43247500D02*
X82801600Y-32035900D01*
X83970313Y-22530000D02*
X85662500Y-22530000D01*
%TO.N,d*%
X76670000Y-49242948D02*
X76670000Y-45072500D01*
X78232052Y-50805000D02*
X76670000Y-49242948D01*
X78887500Y-50805000D02*
X78232052Y-50805000D01*
%TO.N,Net-(U1-d)*%
X83238400Y-39989100D02*
X84290000Y-38937500D01*
X79928400Y-39989100D02*
X83238400Y-39989100D01*
X76670000Y-43247500D02*
X79928400Y-39989100D01*
%TO.N,c*%
X78887500Y-50155000D02*
X79542948Y-50155000D01*
X79542948Y-50155000D02*
X81750000Y-47947948D01*
X81750000Y-47947948D02*
X81750000Y-45072500D01*
%TO.N,Net-(U1-c)*%
X84974897Y-40310000D02*
X87997500Y-40310000D01*
X87997500Y-40310000D02*
X89370000Y-38937500D01*
X81750000Y-43247500D02*
X82037397Y-43247500D01*
X82037397Y-43247500D02*
X84974897Y-40310000D01*
%TO.N,RED_LED*%
X105438200Y-58740000D02*
X107507500Y-56670700D01*
X104610000Y-58740000D02*
X105438200Y-58740000D01*
X107507500Y-56670700D02*
X107507500Y-46700000D01*
%TO.N,b*%
X78887500Y-49505000D02*
X78887500Y-45395000D01*
X78887500Y-45395000D02*
X79210000Y-45072500D01*
%TO.N,Net-(U1-b)*%
X79210000Y-43247500D02*
X80257420Y-43247500D01*
X84322387Y-40392300D02*
X85341600Y-39373087D01*
X85341600Y-39373087D02*
X85341600Y-32805900D01*
X85341600Y-32805900D02*
X94450000Y-23697500D01*
X80257420Y-43247500D02*
X83112620Y-40392300D01*
X83112620Y-40392300D02*
X84322387Y-40392300D01*
%TO.N,a*%
X85267948Y-50155000D02*
X89370000Y-46052948D01*
X84612500Y-50155000D02*
X85267948Y-50155000D01*
X89370000Y-46052948D02*
X89370000Y-45072500D01*
%TO.N,Net-(U1-a)*%
X93398400Y-39219100D02*
X93398400Y-37518400D01*
X86387991Y-25795491D02*
X84290000Y-23697500D01*
X93398400Y-37518400D02*
X87438792Y-31558792D01*
X86387991Y-30531117D02*
X86387991Y-25795491D01*
X89370000Y-43247500D02*
X93398400Y-39219100D01*
%TO.N,Button_1*%
X100510000Y-66840000D02*
X100510000Y-68656590D01*
X113970000Y-59360000D02*
X111261827Y-59360000D01*
X111261827Y-59360000D02*
X110960000Y-59661827D01*
X102643410Y-70790000D02*
X107620000Y-70790000D01*
X108890000Y-69520000D02*
X108890000Y-65710000D01*
X110960000Y-59661827D02*
X108890000Y-61731827D01*
X107620000Y-70790000D02*
X108890000Y-69520000D01*
X108890000Y-61731827D02*
X108890000Y-64348900D01*
X100510000Y-68656590D02*
X102643410Y-70790000D01*
%TO.N,Button_2*%
X99710000Y-68426800D02*
X102901600Y-71618400D01*
X111340000Y-74600000D02*
X110960000Y-74980000D01*
X107598400Y-71618400D02*
X110960000Y-74980000D01*
X102901600Y-71618400D02*
X107598400Y-71618400D01*
X113970000Y-74600000D02*
X111340000Y-74600000D01*
X99710000Y-66840000D02*
X99710000Y-68426800D01*
%TO.N,Net-(J4-Pin_5)*%
X77950000Y-72470000D02*
X77950000Y-74620000D01*
X78320000Y-72100000D02*
X77950000Y-72470000D01*
%TO.N,USB_CONN_D-*%
X77085992Y-59761119D02*
X80571381Y-59761119D01*
X80571381Y-59761119D02*
X80612500Y-59720000D01*
%TO.N,USB_CONN_D+*%
X77273815Y-61620000D02*
X80612500Y-61620000D01*
X77050698Y-61396883D02*
X77273815Y-61620000D01*
%TO.N,RST*%
X95710000Y-66840000D02*
X95710000Y-67793200D01*
X94920000Y-68583200D02*
X94920000Y-69520000D01*
X92380000Y-72480000D02*
X86692554Y-72480000D01*
X93560000Y-72480000D02*
X92380000Y-72480000D01*
X95710000Y-67793200D02*
X94920000Y-68583200D01*
X93489992Y-72550008D02*
X93560000Y-72480000D01*
X86692554Y-72480000D02*
X83752554Y-69540000D01*
X92380000Y-69520000D02*
X92380000Y-72480000D01*
X93489992Y-73958313D02*
X93489992Y-72550008D01*
%TO.N,USB_D+*%
X82887500Y-61620000D02*
X83238659Y-61620000D01*
%TO.N,Net-(U5-BP)*%
X75893631Y-69904166D02*
X76040000Y-70050535D01*
X74036209Y-69904166D02*
X75893631Y-69904166D01*
%TO.N,SH_CP*%
X89550000Y-53001800D02*
X93210000Y-56661800D01*
X85783200Y-52755000D02*
X86030000Y-53001800D01*
X93210000Y-56661800D02*
X93210000Y-57140000D01*
X86030000Y-53001800D02*
X89550000Y-53001800D01*
X84612500Y-52755000D02*
X85783200Y-52755000D01*
%TO.N,ST_CP*%
X100075083Y-50470000D02*
X97823483Y-52721600D01*
X108922700Y-51740000D02*
X108922700Y-49200000D01*
X86905281Y-52105000D02*
X84612500Y-52105000D01*
X103810000Y-50470000D02*
X100075083Y-50470000D01*
X108922700Y-57655500D02*
X108922700Y-51740000D01*
X93000275Y-50470000D02*
X88540281Y-50470000D01*
X105438200Y-61140000D02*
X108922700Y-57655500D01*
X95251875Y-52721600D02*
X93000275Y-50470000D01*
X97823483Y-52721600D02*
X95251875Y-52721600D01*
X104610000Y-61140000D02*
X105438200Y-61140000D01*
X88540281Y-50470000D02*
X86905281Y-52105000D01*
%TO.N,DS*%
X108321600Y-46021520D02*
X107998480Y-45698400D01*
X90374548Y-45698400D02*
X85267948Y-50805000D01*
X85267948Y-50805000D02*
X84612500Y-50805000D01*
X107998480Y-45698400D02*
X90374548Y-45698400D01*
X105563200Y-60340000D02*
X108321600Y-57581600D01*
X108321600Y-57581600D02*
X108321600Y-46021520D01*
X104610000Y-60340000D02*
X105563200Y-60340000D01*
%TO.N,/UCAP*%
X91415000Y-61140000D02*
X93210000Y-61140000D01*
%TO.N,SCK*%
X85140954Y-68388400D02*
X85140954Y-65329046D01*
X86930000Y-63540000D02*
X93210000Y-63540000D01*
X85140954Y-65329046D02*
X86930000Y-63540000D01*
X86292554Y-69540000D02*
X85140954Y-68388400D01*
%TO.N,MOSI*%
X88952554Y-64340000D02*
X93210000Y-64340000D01*
X86292554Y-67000000D02*
X88952554Y-64340000D01*
%TO.N,MISO*%
X93210000Y-66071006D02*
X93283349Y-66144355D01*
X93210000Y-65140000D02*
X93210000Y-66071006D01*
X90144986Y-69540000D02*
X88832554Y-69540000D01*
X91936008Y-67748978D02*
X90144986Y-69540000D01*
%TO.N,Dig3*%
X71470537Y-46229030D02*
X77848400Y-52606893D01*
X91110000Y-64941100D02*
X93008900Y-66840000D01*
X70588400Y-25271600D02*
X70588400Y-46229030D01*
X91910000Y-21730000D02*
X92380000Y-21260000D01*
X93008900Y-66840000D02*
X94910000Y-66840000D01*
X74600000Y-21260000D02*
X70588400Y-25271600D01*
X77848400Y-54581462D02*
X79883469Y-56616531D01*
X91910000Y-23697500D02*
X91910000Y-21730000D01*
X92380000Y-21260000D02*
X74600000Y-21260000D01*
X77848400Y-52606893D02*
X77848400Y-54581462D01*
X70588400Y-46229030D02*
X71470537Y-46229030D01*
%TO.N,XTAL2*%
X98110000Y-66840000D02*
X98110000Y-71905000D01*
X99125000Y-74220000D02*
X99700000Y-74220000D01*
X98110000Y-71905000D02*
X97460000Y-72555000D01*
X97460000Y-72555000D02*
X99125000Y-74220000D01*
%TO.N,XTAL1*%
X101900000Y-72483378D02*
X101900000Y-72520000D01*
X98910000Y-66840000D02*
X98910000Y-69493378D01*
X98910000Y-69493378D02*
X101900000Y-72483378D01*
X101900000Y-72520000D02*
X103905466Y-72520000D01*
X103905466Y-72520000D02*
X104000881Y-72615415D01*
%TO.N,TX*%
X101310000Y-66840000D02*
X101310000Y-67793200D01*
X103705700Y-70188900D02*
X105552246Y-70188900D01*
X75209695Y-79499695D02*
X72870000Y-77160000D01*
X105816818Y-74934480D02*
X101251603Y-79499695D01*
X101310000Y-67793200D02*
X103705700Y-70188900D01*
X105816818Y-73257869D02*
X105816818Y-74934480D01*
X101251603Y-79499695D02*
X75209695Y-79499695D01*
%TO.N,RX*%
X106847116Y-72404778D02*
X105805623Y-72404778D01*
X103878356Y-76302732D02*
X82172732Y-76302732D01*
X106208066Y-69587300D02*
X106801415Y-70180649D01*
X105183517Y-74997571D02*
X103878356Y-76302732D01*
X102110000Y-67793200D02*
X103904100Y-69587300D01*
X105183517Y-73026884D02*
X105183517Y-74997571D01*
X102110000Y-66840000D02*
X102110000Y-67793200D01*
X105805623Y-72404778D02*
X105183517Y-73026884D01*
X103904100Y-69587300D02*
X106208066Y-69587300D01*
X82172732Y-76302732D02*
X80490000Y-74620000D01*
%TO.N,Dig2*%
X106350000Y-50999143D02*
X107104300Y-51753443D01*
X92345587Y-24749100D02*
X90421600Y-24749100D01*
X107104300Y-56185918D02*
X106906400Y-56383818D01*
X105080000Y-30150000D02*
X97575900Y-22645900D01*
X92961600Y-24133087D02*
X92345587Y-24749100D01*
X105080000Y-44120000D02*
X105080000Y-30150000D01*
X104610000Y-62740000D02*
X105994625Y-62740000D01*
X97575900Y-22645900D02*
X94014413Y-22645900D01*
X105080000Y-46660000D02*
X106350000Y-47930000D01*
X105994625Y-62740000D02*
X107931456Y-60803169D01*
X90421600Y-24749100D02*
X89370000Y-23697500D01*
X106350000Y-47930000D02*
X106350000Y-50999143D01*
X94014413Y-22645900D02*
X92961600Y-23698713D01*
X92961600Y-23698713D02*
X92961600Y-24133087D01*
X107104300Y-51753443D02*
X107104300Y-56185918D01*
%TO.N,Dig4*%
X105513116Y-59540000D02*
X107291558Y-57761558D01*
X104284622Y-46715413D02*
X105946800Y-48377591D01*
X104610000Y-59540000D02*
X105513116Y-59540000D01*
X105946800Y-48377591D02*
X105946800Y-51443760D01*
X106277193Y-51774153D02*
X106277193Y-56877076D01*
X104284622Y-46578899D02*
X104284622Y-46715413D01*
X103810000Y-44120000D02*
X98627500Y-38937500D01*
X98627500Y-38937500D02*
X94450000Y-38937500D01*
X104365185Y-44675185D02*
X104365185Y-45027255D01*
X103810000Y-44120000D02*
X104365185Y-44675185D01*
X105946800Y-51443760D02*
X106277193Y-51774153D01*
%TO.N,Dig1*%
X103810000Y-41580000D02*
X103810000Y-42850000D01*
X105661600Y-52321600D02*
X105661600Y-57841600D01*
X88318400Y-26088400D02*
X89763707Y-27533707D01*
X83320700Y-22126800D02*
X86746487Y-22126800D01*
X103496542Y-46713562D02*
X103496542Y-47616542D01*
X103496542Y-47616542D02*
X105080000Y-49200000D01*
X105080000Y-51740000D02*
X105661600Y-52321600D01*
X88318400Y-23698713D02*
X88318400Y-26088400D01*
X105661600Y-57841600D02*
X105563200Y-57940000D01*
X105080000Y-49200000D02*
X105080000Y-51740000D01*
X86746487Y-22126800D02*
X88318400Y-23698713D01*
X105563200Y-57940000D02*
X104610000Y-57940000D01*
X91110000Y-28880000D02*
X103810000Y-41580000D01*
X81750000Y-23697500D02*
X83320700Y-22126800D01*
%TO.N,Net-(J1-VBUS)*%
X69210000Y-59796883D02*
X71159484Y-57847399D01*
X71159484Y-57847399D02*
X71159484Y-52735557D01*
%TO.N,unconnected-(J1-Shield-Pad6)*%
X63660000Y-65846883D02*
X69110000Y-65846883D01*
X63660000Y-56946883D02*
X63660000Y-65846883D01*
X69110000Y-56946883D02*
X63660000Y-56946883D01*
%TD*%
M02*
