M48
; DRILL file {KiCad 7.0.2} date Thu Apr 20 12:49:28 2023
; FORMAT={-:-/ absolute / inch / decimal}
; #@! TF.CreationDate,2023-04-20T12:49:28-06:00
; #@! TF.GenerationSoftware,Kicad,Pcbnew,7.0.2
; #@! TF.FileFunction,Plated,1,2,PTH
FMAT,2
INCH
; #@! TA.AperFunction,Plated,PTH,ViaDrill
T1C0.0118
; #@! TA.AperFunction,Plated,PTH,ComponentDrill
T2C0.0394
; #@! TA.AperFunction,Plated,PTH,ComponentDrill
T3C0.0866
%
G90
G05
T1
X2.5746Y-1.9383
X2.8055Y-2.4836
X2.8116Y-2.6975
X2.8683Y-2.5896
X3.0155Y-2.2384
X3.0323Y-2.6069
X3.1104Y-2.3822
X3.1417Y-2.6615
X3.145Y-2.229
X3.1706Y-2.1187
X3.3922Y-2.0271
X3.4011Y-1.202
X3.431Y-1.6432
X3.4425Y-1.2425
X3.4618Y-2.2578
X3.4632Y-1.5548
X3.4874Y-2.4074
X3.4874Y-2.4668
X3.534Y-1.084
X3.587Y-1.137
X3.587Y-2.5567
X3.6124Y-2.0398
X3.6195Y-2.6673
X3.637Y-2.737
X3.6726Y-2.6041
X3.6847Y-3.1062
X3.726Y-2.3793
X3.737Y-2.737
X3.7622Y-2.8177
X3.7676Y-1.9853
X3.7682Y-2.2377
X3.8305Y-2.5747
X3.8333Y-1.987
X3.8404Y-2.9804
X3.9246Y-2.8
X4.0117Y-2.9756
X4.0181Y-2.2378
X4.0747Y-1.8391
X4.087Y-1.687
X4.087Y-1.987
X4.0905Y-2.9698
X4.0949Y-2.1662
X4.1057Y-1.8338
X4.1089Y-1.7727
X4.1194Y-2.2129
X4.1207Y-2.6033
X4.137Y-1.737
X4.137Y-1.837
X4.1556Y-2.7633
X4.166Y-2.8842
X4.1685Y-1.7386
X4.1841Y-2.2393
X4.2048Y-2.763
X4.2066Y-2.8506
X4.2089Y-2.2198
X4.2171Y-2.6679
X4.2241Y-2.2741
X4.2493Y-2.3938
X4.287Y-2.5334
X4.287Y-2.587
X4.2883Y-1.937
X4.3669Y-2.2362
X4.3685Y-1.7386
X4.3692Y-2.8398
T2
X2.8689Y-2.9378
X2.8689Y-3.0378
X2.9689Y-2.9378
X2.9689Y-3.0378
X3.0689Y-2.9378
X3.0689Y-3.0378
X3.1689Y-2.9378
X3.1689Y-3.0378
X3.2185Y-0.933
X3.2185Y-1.533
X3.2973Y-2.6378
X3.2973Y-2.7378
X3.3185Y-0.933
X3.3185Y-1.533
X3.3973Y-2.6378
X3.3973Y-2.7378
X3.4185Y-0.933
X3.4185Y-1.533
X3.4973Y-2.6378
X3.4973Y-2.7378
X3.5185Y-0.933
X3.5185Y-1.533
X3.6185Y-0.933
X3.6185Y-1.533
X3.7185Y-0.933
X3.7185Y-1.533
X4.7189Y-1.6886
X5.0181Y-1.6886
T3
X2.587Y-1.778
X2.5985Y-2.9886
X4.6525Y-1.3123
T0
M30
