%TF.GenerationSoftware,KiCad,Pcbnew,7.0.2*%
%TF.CreationDate,2023-04-20T12:49:32-06:00*%
%TF.ProjectId,Phase_B_KiCad_Bryce,50686173-655f-4425-9f4b-694361645f42,rev?*%
%TF.SameCoordinates,Original*%
%TF.FileFunction,Paste,Top*%
%TF.FilePolarity,Positive*%
%FSLAX46Y46*%
G04 Gerber Fmt 4.6, Leading zero omitted, Abs format (unit mm)*
G04 Created by KiCad (PCBNEW 7.0.2) date 2023-04-20 12:49:32*
%MOMM*%
%LPD*%
G01*
G04 APERTURE LIST*
G04 Aperture macros list*
%AMRoundRect*
0 Rectangle with rounded corners*
0 $1 Rounding radius*
0 $2 $3 $4 $5 $6 $7 $8 $9 X,Y pos of 4 corners*
0 Add a 4 corners polygon primitive as box body*
4,1,4,$2,$3,$4,$5,$6,$7,$8,$9,$2,$3,0*
0 Add four circle primitives for the rounded corners*
1,1,$1+$1,$2,$3*
1,1,$1+$1,$4,$5*
1,1,$1+$1,$6,$7*
1,1,$1+$1,$8,$9*
0 Add four rect primitives between the rounded corners*
20,1,$1+$1,$2,$3,$4,$5,0*
20,1,$1+$1,$4,$5,$6,$7,0*
20,1,$1+$1,$6,$7,$8,$9,0*
20,1,$1+$1,$8,$9,$2,$3,0*%
G04 Aperture macros list end*
%ADD10RoundRect,0.250000X0.450000X-0.262500X0.450000X0.262500X-0.450000X0.262500X-0.450000X-0.262500X0*%
%ADD11R,1.000000X0.700000*%
%ADD12RoundRect,0.200000X0.200000X0.275000X-0.200000X0.275000X-0.200000X-0.275000X0.200000X-0.275000X0*%
%ADD13RoundRect,0.100000X-0.637500X-0.100000X0.637500X-0.100000X0.637500X0.100000X-0.637500X0.100000X0*%
%ADD14RoundRect,0.225000X0.250000X-0.225000X0.250000X0.225000X-0.250000X0.225000X-0.250000X-0.225000X0*%
%ADD15RoundRect,0.225000X0.225000X0.250000X-0.225000X0.250000X-0.225000X-0.250000X0.225000X-0.250000X0*%
%ADD16RoundRect,0.250000X-0.312500X-1.450000X0.312500X-1.450000X0.312500X1.450000X-0.312500X1.450000X0*%
%ADD17RoundRect,0.243750X-0.243750X-0.456250X0.243750X-0.456250X0.243750X0.456250X-0.243750X0.456250X0*%
%ADD18RoundRect,0.150000X-0.512500X-0.150000X0.512500X-0.150000X0.512500X0.150000X-0.512500X0.150000X0*%
%ADD19RoundRect,0.200000X-0.200000X-0.275000X0.200000X-0.275000X0.200000X0.275000X-0.200000X0.275000X0*%
%ADD20R,1.400000X1.200000*%
%ADD21RoundRect,0.250000X0.250000X0.475000X-0.250000X0.475000X-0.250000X-0.475000X0.250000X-0.475000X0*%
%ADD22RoundRect,0.200000X0.275000X-0.200000X0.275000X0.200000X-0.275000X0.200000X-0.275000X-0.200000X0*%
%ADD23RoundRect,0.225000X-0.225000X-0.250000X0.225000X-0.250000X0.225000X0.250000X-0.225000X0.250000X0*%
%ADD24RoundRect,0.250000X-0.262500X-0.450000X0.262500X-0.450000X0.262500X0.450000X-0.262500X0.450000X0*%
%ADD25R,2.000000X0.500000*%
%ADD26R,1.700000X2.000000*%
%ADD27RoundRect,0.150000X-0.150000X0.512500X-0.150000X-0.512500X0.150000X-0.512500X0.150000X0.512500X0*%
%ADD28R,2.000000X1.500000*%
%ADD29R,1.500000X0.550000*%
%ADD30R,0.550000X1.500000*%
%ADD31RoundRect,0.200000X-0.275000X0.200000X-0.275000X-0.200000X0.275000X-0.200000X0.275000X0.200000X0*%
%ADD32RoundRect,0.225000X-0.250000X0.225000X-0.250000X-0.225000X0.250000X-0.225000X0.250000X0.225000X0*%
G04 APERTURE END LIST*
D10*
%TO.C,R12*%
X86830000Y-45072500D03*
X86830000Y-43247500D03*
%TD*%
%TO.C,R9*%
X74130000Y-45072500D03*
X74130000Y-43247500D03*
%TD*%
D11*
%TO.C,S3*%
X93489992Y-77658313D03*
X87489992Y-77658313D03*
X93489992Y-73958313D03*
X87489992Y-73958313D03*
%TD*%
D12*
%TO.C,R14*%
X72415000Y-49240000D03*
X70765000Y-49240000D03*
%TD*%
D10*
%TO.C,R5*%
X89370000Y-45072500D03*
X89370000Y-43247500D03*
%TD*%
D13*
%TO.C,U2*%
X78887500Y-49505000D03*
X78887500Y-50155000D03*
X78887500Y-50805000D03*
X78887500Y-51455000D03*
X78887500Y-52105000D03*
X78887500Y-52755000D03*
X78887500Y-53405000D03*
X78887500Y-54055000D03*
X84612500Y-54055000D03*
X84612500Y-53405000D03*
X84612500Y-52755000D03*
X84612500Y-52105000D03*
X84612500Y-51455000D03*
X84612500Y-50805000D03*
X84612500Y-50155000D03*
X84612500Y-49505000D03*
%TD*%
D14*
%TO.C,C12*%
X74247873Y-67638314D03*
X74247873Y-66088314D03*
%TD*%
D15*
%TO.C,C8*%
X93955000Y-53025000D03*
X92405000Y-53025000D03*
%TD*%
D16*
%TO.C,F1*%
X71159484Y-52735557D03*
X75434484Y-52735557D03*
%TD*%
D17*
%TO.C,D3*%
X66842500Y-49240000D03*
X68717500Y-49240000D03*
%TD*%
D18*
%TO.C,U4*%
X80612500Y-59720000D03*
X80612500Y-60670000D03*
X80612500Y-61620000D03*
X82887500Y-61620000D03*
X82887500Y-60670000D03*
X82887500Y-59720000D03*
%TD*%
D19*
%TO.C,R17*%
X76670000Y-72100000D03*
X78320000Y-72100000D03*
%TD*%
D20*
%TO.C,Y1*%
X101900000Y-72520000D03*
X99700000Y-72520000D03*
X99700000Y-74220000D03*
X101900000Y-74220000D03*
%TD*%
D14*
%TO.C,C3*%
X95720000Y-53520000D03*
X95720000Y-51970000D03*
%TD*%
D21*
%TO.C,C4*%
X91329126Y-57416113D03*
X89429126Y-57416113D03*
%TD*%
D22*
%TO.C,R1*%
X110960000Y-59661827D03*
X110960000Y-58011827D03*
%TD*%
D10*
%TO.C,R7*%
X81750000Y-45072500D03*
X81750000Y-43247500D03*
%TD*%
D14*
%TO.C,C14*%
X79748645Y-70464421D03*
X79748645Y-68914421D03*
%TD*%
D23*
%TO.C,C15*%
X73850000Y-56860000D03*
X75400000Y-56860000D03*
%TD*%
D10*
%TO.C,R10*%
X71590000Y-45072500D03*
X71590000Y-43247500D03*
%TD*%
D24*
%TO.C,R3*%
X107507500Y-46700000D03*
X109332500Y-46700000D03*
%TD*%
D12*
%TO.C,R16*%
X77085992Y-59761119D03*
X75435992Y-59761119D03*
%TD*%
D22*
%TO.C,R2*%
X110960000Y-74980000D03*
X110960000Y-73330000D03*
%TD*%
D10*
%TO.C,R8*%
X76670000Y-45072500D03*
X76670000Y-43247500D03*
%TD*%
D15*
%TO.C,C9*%
X91359836Y-62759308D03*
X89809836Y-62759308D03*
%TD*%
D25*
%TO.C,J1*%
X69210000Y-59796883D03*
X69210000Y-60596883D03*
X69210000Y-61396883D03*
X69210000Y-62196883D03*
X69210000Y-62996883D03*
D26*
X69110000Y-56946883D03*
X63660000Y-56946883D03*
X69110000Y-65846883D03*
X63660000Y-65846883D03*
%TD*%
D14*
%TO.C,C11*%
X97367029Y-53508329D03*
X97367029Y-51958329D03*
%TD*%
D17*
%TO.C,D1*%
X107482500Y-44160000D03*
X109357500Y-44160000D03*
%TD*%
D15*
%TO.C,C10*%
X91415000Y-61140000D03*
X89865000Y-61140000D03*
%TD*%
D23*
%TO.C,C5*%
X102318821Y-53558415D03*
X103868821Y-53558415D03*
%TD*%
D27*
%TO.C,U5*%
X77940000Y-67775535D03*
X76990000Y-67775535D03*
X76040000Y-67775535D03*
X76040000Y-70050535D03*
X77940000Y-70050535D03*
%TD*%
D28*
%TO.C,S2*%
X113970000Y-69600000D03*
X128270000Y-69600000D03*
X113970000Y-74600000D03*
X128270000Y-74600000D03*
%TD*%
D15*
%TO.C,C13*%
X74036209Y-69904166D03*
X72486209Y-69904166D03*
%TD*%
D10*
%TO.C,R6*%
X79210000Y-45072500D03*
X79210000Y-43247500D03*
%TD*%
D29*
%TO.C,U3*%
X93210000Y-57140000D03*
X93210000Y-57940000D03*
X93210000Y-58740000D03*
X93210000Y-59540000D03*
X93210000Y-60340000D03*
X93210000Y-61140000D03*
X93210000Y-61940000D03*
X93210000Y-62740000D03*
X93210000Y-63540000D03*
X93210000Y-64340000D03*
X93210000Y-65140000D03*
D30*
X94910000Y-66840000D03*
X95710000Y-66840000D03*
X96510000Y-66840000D03*
X97310000Y-66840000D03*
X98110000Y-66840000D03*
X98910000Y-66840000D03*
X99710000Y-66840000D03*
X100510000Y-66840000D03*
X101310000Y-66840000D03*
X102110000Y-66840000D03*
X102910000Y-66840000D03*
D29*
X104610000Y-65140000D03*
X104610000Y-64340000D03*
X104610000Y-63540000D03*
X104610000Y-62740000D03*
X104610000Y-61940000D03*
X104610000Y-61140000D03*
X104610000Y-60340000D03*
X104610000Y-59540000D03*
X104610000Y-58740000D03*
X104610000Y-57940000D03*
X104610000Y-57140000D03*
D30*
X102910000Y-55440000D03*
X102110000Y-55440000D03*
X101310000Y-55440000D03*
X100510000Y-55440000D03*
X99710000Y-55440000D03*
X98910000Y-55440000D03*
X98110000Y-55440000D03*
X97310000Y-55440000D03*
X96510000Y-55440000D03*
X95710000Y-55440000D03*
X94910000Y-55440000D03*
%TD*%
D19*
%TO.C,R15*%
X75400698Y-61396883D03*
X77050698Y-61396883D03*
%TD*%
D28*
%TO.C,S1*%
X128270000Y-59360000D03*
X113970000Y-59360000D03*
X128270000Y-54360000D03*
X113970000Y-54360000D03*
%TD*%
D10*
%TO.C,R11*%
X84290000Y-45072500D03*
X84290000Y-43247500D03*
%TD*%
D31*
%TO.C,R13*%
X93560000Y-70830000D03*
X93560000Y-72480000D03*
%TD*%
D32*
%TO.C,C2*%
X104000881Y-72615415D03*
X104000881Y-74165415D03*
%TD*%
%TO.C,C7*%
X107150000Y-64950000D03*
X107150000Y-66500000D03*
%TD*%
%TO.C,C1*%
X97460000Y-72555000D03*
X97460000Y-74105000D03*
%TD*%
%TO.C,C6*%
X96439204Y-68869691D03*
X96439204Y-70419691D03*
%TD*%
D24*
%TO.C,R4*%
X112500584Y-46688590D03*
X114325584Y-46688590D03*
%TD*%
D17*
%TO.C,D2*%
X112475584Y-44148590D03*
X114350584Y-44148590D03*
%TD*%
M02*
